IBMPlexSans-Medium.ufo
<glyph name="exclam" format="2">
	<unicode hex="0021"/>
	<advance width="298"/>
	<outline>
		<contour>
			<point name="sh01" x="124" y="200" type="line"/>
			<point x="89" y="499" type="line"/>
			<point name="at01" x="89" y="698" type="line"/>
			<point x="207" y="698" type="line"/>
			<point x="207" y="499" type="line"/>
			<point x="174" y="200" type="line"/>
		</contour>
		<contour>
			<point name="ih01" x="149" y="-12" type="qcurve"/>
			<point x="111" y="-12"/>
			<point x="76" y="25"/>
			<point x="76" y="54" type="qcurve"/>
			<point x="76" y="71" type="line"/>
			<point x="76" y="100"/>
			<point x="111" y="137"/>
			<point name="sv01" x="149" y="137" type="qcurve"/>
			<point x="187" y="137"/>
			<point x="222" y="100"/>
			<point x="222" y="71" type="qcurve"/>
			<point x="222" y="54" type="line"/>
			<point x="222" y="25"/>
			<point x="187" y="-12"/>
		</contour>
	</outline>
</glyph>
<glyph name="numbersign" format="2">
	<unicode hex="0023"/>
	<advance width="678"/>
	<outline>
		<contour>
			<point name="hr00" x="391" y="191" type="line"/>
			<point name="sv01" x="233" y="191" type="line"/>
			<point x="200" y="0" type="line"/>
			<point name="ab01" x="123" y="0" type="line"/>
			<point x="156" y="191" type="line"/>
			<point name="iv01" x="40" y="191" type="line"/>
			<point name="sv02" x="40" y="264" type="line"/>
			<point x="169" y="264" type="line"/>
			<point x="198" y="434" type="line"/>
			<point name="sv03" x="82" y="434" type="line"/>
			<point name="iv02" x="82" y="507" type="line"/>
			<point x="211" y="507" type="line"/>
			<point name="at01" x="244" y="698" type="line"/>
			<point x="320" y="698" type="line"/>
			<point name="sv04" x="287" y="507" type="line"/>
			<point x="445" y="507" type="line"/>
			<point name="at02" x="478" y="698" type="line"/>
			<point x="555" y="698" type="line"/>
			<point name="sv05" x="522" y="507" type="line"/>
			<point x="638" y="507" type="line"/>
			<point x="638" y="434" type="line"/>
			<point name="sv07" x="509" y="434" type="line"/>
			<point name="sv09" x="480" y="264" type="line"/>
			<point x="596" y="264" type="line"/>
			<point x="596" y="191" type="line"/>
			<point name="sv10" x="467" y="191" type="line"/>
			<point x="434" y="0" type="line"/>
			<point name="ih01" x="358" y="0" type="line"/>
		</contour>
		<contour>
			<point name="sh01" x="403" y="264" type="line"/>
			<point x="433" y="434" type="line"/>
			<point name="sv06" x="275" y="434" type="line"/>
			<point name="sv08" x="245" y="264" type="line"/>
		</contour>
	</outline>
</glyph>
<glyph name="dollar" format="2">
	<unicode hex="0024"/>
	<advance width="599"/>
	<outline>
		<contour>
			<point name="sv01" x="261" y="-82" type="line"/>
			<point name="av02" x="261" y="4" type="line"/>
			<point x="185" y="10"/>
			<point x="81" y="72"/>
			<point x="43" y="117" type="qcurve"/>
			<point x="116" y="183" type="line"/>
			<point x="147" y="145"/>
			<point x="220" y="99"/>
			<point name="ih01" x="268" y="93" type="qcurve"/>
			<point name="iv01" x="268" y="317" type="line"/>
			<point x="160" y="340"/>
			<point x="64" y="433"/>
			<point x="64" y="509" type="qcurve"/>
			<point x="64" y="589"/>
			<point x="170" y="683"/>
			<point name="av01" x="261" y="693" type="qcurve"/>
			<point name="sv03" x="261" y="780" type="line"/>
			<point x="346" y="780" type="line"/>
			<point name="sv04" x="346" y="693" type="line"/>
			<point x="410" y="687"/>
			<point x="505" y="635"/>
			<point x="540" y="590" type="qcurve"/>
			<point x="466" y="529" type="line"/>
			<point x="444" y="558"/>
			<point x="383" y="597"/>
			<point name="sv05" x="340" y="604" type="qcurve"/>
			<point name="iv02" x="340" y="399" type="line"/>
			<point x="399" y="386"/>
			<point x="477" y="350"/>
			<point x="526" y="305"/>
			<point x="548" y="246"/>
			<point x="548" y="207" type="qcurve"/>
			<point x="548" y="126"/>
			<point x="443" y="18"/>
			<point name="sv06" x="346" y="6" type="qcurve"/>
			<point x="346" y="-82" type="line"/>
		</contour>
		<contour>
			<point x="443" y="200" type="qcurve"/>
			<point x="443" y="238"/>
			<point x="399" y="287"/>
			<point name="iv03" x="340" y="302" type="qcurve"/>
			<point name="sh01" x="340" y="94" type="line"/>
			<point x="389" y="102"/>
			<point x="443" y="158"/>
		</contour>
		<contour>
			<point x="168" y="514" type="qcurve"/>
			<point x="168" y="472"/>
			<point x="217" y="429"/>
			<point name="sh02" x="268" y="415" type="qcurve"/>
			<point name="sv02" x="268" y="605" type="line"/>
			<point x="220" y="598"/>
			<point x="168" y="552"/>
		</contour>
	</outline>
</glyph>
<glyph name="percent" format="2">
	<unicode hex="0025"/>
	<advance width="947"/>
	<outline>
		<contour>
			<point name="ab01" x="181" y="0" type="line"/>
			<point name="at01" x="665" y="698" type="line"/>
			<point x="766" y="698" type="line"/>
			<point name="sh01" x="282" y="0" type="line"/>
		</contour>
		<contour>
			<point name="iv01" x="226" y="314" type="qcurve"/>
			<point x="145" y="314"/>
			<point x="59" y="415"/>
			<point x="59" y="512" type="qcurve"/>
			<point x="59" y="609"/>
			<point x="145" y="710"/>
			<point name="at02" x="226" y="710" type="qcurve"/>
			<point x="307" y="710"/>
			<point x="393" y="609"/>
			<point name="ih01" x="393" y="512" type="qcurve"/>
			<point x="393" y="415"/>
			<point x="307" y="314"/>
		</contour>
		<contour>
			<point name="sv01" x="226" y="381" type="qcurve"/>
			<point x="297" y="381"/>
			<point name="sh02" x="297" y="484" type="qcurve"/>
			<point x="297" y="540" type="line"/>
			<point x="297" y="643"/>
			<point name="sv02" x="226" y="643" type="qcurve"/>
			<point x="155" y="643"/>
			<point x="155" y="540" type="qcurve"/>
			<point x="155" y="484" type="line"/>
			<point x="155" y="381"/>
		</contour>
		<contour>
			<point name="ab02" x="721" y="-12" type="qcurve"/>
			<point x="640" y="-12"/>
			<point x="554" y="89"/>
			<point name="sh03" x="554" y="186" type="qcurve"/>
			<point x="554" y="283"/>
			<point x="640" y="384"/>
			<point name="iv02" x="721" y="384" type="qcurve"/>
			<point x="802" y="384"/>
			<point x="888" y="283"/>
			<point x="888" y="186" type="qcurve"/>
			<point x="888" y="89"/>
			<point x="802" y="-12"/>
		</contour>
		<contour>
			<point name="sv03" x="721" y="55" type="qcurve"/>
			<point x="792" y="55"/>
			<point x="792" y="158" type="qcurve"/>
			<point x="792" y="214" type="line"/>
			<point x="792" y="317"/>
			<point name="sv04" x="721" y="317" type="qcurve"/>
			<point x="650" y="317"/>
			<point x="650" y="214" type="qcurve"/>
			<point name="sh04" x="650" y="158" type="line"/>
			<point x="650" y="55"/>
		</contour>
	</outline>
</glyph>
<glyph name="ampersand" format="2">
	<unicode hex="0026"/>
	<advance width="707"/>
	<outline>
		<contour>
			<point name="iv01" x="489" y="71" type="line"/>
			<point x="476" y="58"/>
			<point x="439" y="29"/>
			<point x="390" y="4"/>
			<point x="327" y="-12"/>
			<point name="ab01" x="287" y="-12" type="qcurve"/>
			<point x="233" y="-12"/>
			<point x="149" y="18"/>
			<point x="92" y="70"/>
			<point x="63" y="141"/>
			<point x="63" y="182" type="qcurve"/>
			<point x="63" y="219"/>
			<point x="86" y="278"/>
			<point x="125" y="325"/>
			<point x="176" y="362"/>
			<point name="iv04" x="205" y="378" type="qcurve"/>
			<point x="172" y="413"/>
			<point x="126" y="495"/>
			<point x="126" y="542" type="qcurve"/>
			<point x="126" y="577"/>
			<point x="153" y="639"/>
			<point x="203" y="684"/>
			<point x="274" y="710"/>
			<point name="at01" x="317" y="710" type="qcurve"/>
			<point x="357" y="710"/>
			<point x="425" y="688"/>
			<point x="475" y="648"/>
			<point x="502" y="591"/>
			<point x="502" y="556" type="qcurve"/>
			<point x="502" y="522"/>
			<point x="478" y="467"/>
			<point x="436" y="422"/>
			<point x="381" y="383"/>
			<point name="ih01" x="350" y="365" type="qcurve"/>
			<point name="iv05" x="486" y="218" type="line"/>
			<point x="500" y="254"/>
			<point x="516" y="334"/>
			<point name="sv01" x="518" y="375" type="qcurve"/>
			<point x="667" y="375" type="line"/>
			<point x="667" y="283" type="line"/>
			<point name="iv06" x="599" y="283" type="line"/>
			<point x="584" y="207"/>
			<point name="iv07" x="553" y="148" type="qcurve"/>
			<point x="690" y="0" type="line"/>
			<point name="ab02" x="554" y="0" type="line"/>
		</contour>
		<contour>
			<point name="sh01" x="317" y="623" type="qcurve"/>
			<point x="281" y="623"/>
			<point x="231" y="580"/>
			<point x="231" y="545" type="qcurve"/>
			<point x="231" y="537" type="line"/>
			<point x="231" y="511"/>
			<point x="264" y="459"/>
			<point name="iv02" x="295" y="425" type="qcurve"/>
			<point x="337" y="448"/>
			<point x="397" y="505"/>
			<point x="397" y="542" type="qcurve"/>
			<point x="397" y="550" type="line"/>
			<point x="397" y="585"/>
			<point x="353" y="623"/>
		</contour>
		<contour>
			<point name="sh02" x="300" y="81" type="qcurve"/>
			<point x="342" y="81"/>
			<point x="406" y="109"/>
			<point name="iv08" x="430" y="134" type="qcurve"/>
			<point name="iv03" x="260" y="317" type="line"/>
			<point x="222" y="296"/>
			<point x="175" y="244"/>
			<point x="175" y="199" type="qcurve"/>
			<point x="175" y="186" type="line"/>
			<point x="175" y="138"/>
			<point x="241" y="81"/>
		</contour>
	</outline>
</glyph>
<glyph name="quotesingle" format="2">
	<unicode hex="0027"/>
	<advance width="253"/>
	<outline>
		<contour>
			<point name="ih01" x="78" y="440" type="line"/>
			<point name="at01" x="78" y="740" type="line"/>
			<point x="175" y="740" type="line"/>
			<point x="175" y="440" type="line"/>
		</contour>
	</outline>
</glyph>
<glyph name="parenleft" format="2">
	<unicode hex="0028"/>
	<advance width="336"/>
	<outline>
		<contour>
			<point name="hr00" x="63" y="311" type="qcurve"/>
			<point x="63" y="384"/>
			<point x="90" y="518"/>
			<point x="138" y="634"/>
			<point x="203" y="728"/>
			<point name="av01" x="241" y="760" type="qcurve"/>
			<point x="344" y="760" type="line"/>
			<point x="303" y="722"/>
			<point x="237" y="628"/>
			<point x="191" y="522"/>
			<point x="166" y="408"/>
			<point x="166" y="351" type="qcurve"/>
			<point name="ih01" x="166" y="271" type="line"/>
			<point x="166" y="214"/>
			<point x="191" y="100"/>
			<point x="237" y="-6"/>
			<point x="303" y="-101"/>
			<point x="344" y="-138" type="qcurve"/>
			<point name="av02" x="241" y="-138" type="line"/>
			<point x="203" y="-106"/>
			<point x="138" y="-12"/>
			<point x="90" y="104"/>
			<point x="63" y="238"/>
		</contour>
	</outline>
</glyph>
<glyph name="parenright" format="2">
	<unicode hex="0029"/>
	<advance width="336"/>
	<outline>
		<contour>
			<point name="hr00" x="273" y="311" type="qcurve"/>
			<point x="273" y="238"/>
			<point x="246" y="104"/>
			<point x="198" y="-12"/>
			<point x="133" y="-106"/>
			<point x="95" y="-138" type="qcurve"/>
			<point name="av02" x="-8" y="-138" type="line"/>
			<point x="33" y="-101"/>
			<point x="99" y="-6"/>
			<point x="145" y="100"/>
			<point x="170" y="214"/>
			<point name="ih01" x="170" y="271" type="qcurve"/>
			<point x="170" y="351" type="line"/>
			<point x="170" y="408"/>
			<point x="145" y="522"/>
			<point x="99" y="628"/>
			<point x="33" y="722"/>
			<point name="av01" x="-8" y="760" type="qcurve"/>
			<point x="95" y="760" type="line"/>
			<point x="133" y="728"/>
			<point x="198" y="634"/>
			<point x="246" y="518"/>
			<point x="273" y="384"/>
		</contour>
	</outline>
</glyph>
<glyph name="asterisk" format="2">
	<unicode hex="002A"/>
	<advance width="514"/>
	<outline>
		<contour>
			<point name="hr00" x="163" y="324" type="line"/>
			<point x="87" y="377" type="line"/>
			<point x="193" y="509" type="line"/>
			<point x="34" y="555" type="line"/>
			<point x="63" y="642" type="line"/>
			<point x="216" y="582" type="line"/>
			<point name="at01" x="209" y="747" type="line"/>
			<point x="304" y="747" type="line"/>
			<point x="297" y="582" type="line"/>
			<point x="450" y="642" type="line"/>
			<point x="480" y="555" type="line"/>
			<point x="320" y="509" type="line"/>
			<point x="426" y="377" type="line"/>
			<point x="350" y="324" type="line"/>
			<point name="ih01" x="256" y="464" type="line"/>
		</contour>
	</outline>
</glyph>
<glyph name="plus" format="2">
	<unicode hex="002B"/>
	<advance width="600"/>
	<outline>
		<contour>
			<point name="ih01" x="251" y="63" type="line"/>
			<point x="251" y="261" type="line"/>
			<point name="dv02" x="67" y="261" type="line"/>
			<point name="dv01" x="67" y="350" type="line"/>
			<point x="251" y="350" type="line"/>
			<point x="251" y="548" type="line"/>
			<point x="349" y="548" type="line"/>
			<point name="sv01" x="349" y="350" type="line"/>
			<point x="533" y="350" type="line"/>
			<point x="533" y="261" type="line"/>
			<point name="sv02" x="349" y="261" type="line"/>
			<point x="349" y="63" type="line"/>
		</contour>
	</outline>
</glyph>
<glyph name="comma" format="2">
	<unicode hex="002C"/>
	<advance width="290"/>
	<outline>
		<contour>
			<point name="ih01" x="145" y="139" type="qcurve"/>
			<point x="182" y="139"/>
			<point x="218" y="101"/>
			<point x="218" y="71" type="qcurve"/>
			<point x="218" y="55" type="line"/>
			<point x="218" y="6"/>
			<point x="165" y="-101"/>
			<point x="120" y="-138" type="qcurve"/>
			<point name="sv01" x="39" y="-138" type="line"/>
			<point x="71" y="-106"/>
			<point x="113" y="-46"/>
			<point name="ab01" x="124" y="-9" type="qcurve"/>
			<point x="98" y="-4"/>
			<point x="72" y="31"/>
			<point x="72" y="55" type="qcurve"/>
			<point x="72" y="71" type="line"/>
			<point x="72" y="101"/>
			<point x="108" y="139"/>
		</contour>
	</outline>
</glyph>
<glyph name="hyphen" format="2">
	<unicode hex="002D"/>
	<advance width="401"/>
	<outline>
		<contour>
			<point name="ih01" x="62" y="249" type="line"/>
			<point name="dv01" x="62" y="360" type="line"/>
			<point x="339" y="360" type="line"/>
			<point x="339" y="249" type="line"/>
		</contour>
	</outline>
</glyph>
<glyph name="period" format="2">
	<unicode hex="002E"/>
	<advance width="290"/>
	<outline>
		<contour>
			<point name="ih01" x="145" y="-12" type="qcurve"/>
			<point x="108" y="-12"/>
			<point x="72" y="27"/>
			<point x="72" y="56" type="qcurve"/>
			<point x="72" y="71" type="line"/>
			<point x="72" y="100"/>
			<point x="108" y="139"/>
			<point name="sv01" x="145" y="139" type="qcurve"/>
			<point x="182" y="139"/>
			<point x="218" y="100"/>
			<point x="218" y="71" type="qcurve"/>
			<point x="218" y="56" type="line"/>
			<point x="218" y="27"/>
			<point x="182" y="-12"/>
		</contour>
	</outline>
</glyph>
<glyph name="slash" format="2">
	<unicode hex="002F"/>
	<advance width="417"/>
	<outline>
		<contour>
			<point name="av01" x="7" y="-151" type="line"/>
			<point name="ih01" x="284" y="740" type="line"/>
			<point x="378" y="740" type="line"/>
			<point x="101" y="-151" type="line"/>
		</contour>
	</outline>
</glyph>
<glyph name="one" format="2">
	<unicode hex="0031"/>
	<advance width="600"/>
	<outline>
		<contour>
			<point name="ab01" x="88" y="0" type="line"/>
			<point name="sv01" x="88" y="94" type="line"/>
			<point name="ih01" x="284" y="94" type="line"/>
			<point x="284" y="616" type="line"/>
			<point name="sv02" x="276" y="616" type="line"/>
			<point name="sv03" x="114" y="443" type="line"/>
			<point name="iv01" x="45" y="505" type="line"/>
			<point name="at01" x="223" y="698" type="line"/>
			<point x="395" y="698" type="line"/>
			<point name="sv04" x="395" y="94" type="line"/>
			<point x="565" y="94" type="line"/>
			<point x="565" y="0" type="line"/>
		</contour>
	</outline>
</glyph>
<glyph name="two" format="2">
	<unicode hex="0032"/>
	<advance width="600"/>
	<outline>
		<contour>
			<point name="hr00" x="541" y="0" type="line"/>
			<point name="ab01" x="67" y="0" type="line"/>
			<point name="sv02" x="67" y="108" type="line"/>
			<point name="iv01" x="290" y="307" type="line"/>
			<point x="343" y="355"/>
			<point x="400" y="442"/>
			<point x="400" y="490" type="qcurve"/>
			<point x="400" y="503" type="line"/>
			<point x="400" y="554"/>
			<point x="339" y="612"/>
			<point name="sv03" x="287" y="612" type="qcurve"/>
			<point x="258" y="612"/>
			<point x="215" y="595"/>
			<point x="183" y="565"/>
			<point x="162" y="525"/>
			<point x="156" y="502" type="qcurve"/>
			<point x="57" y="540" type="line"/>
			<point x="68" y="573"/>
			<point x="106" y="634"/>
			<point x="164" y="682"/>
			<point x="243" y="710"/>
			<point name="ih01" x="296" y="710" type="qcurve"/>
			<point x="349" y="710"/>
			<point x="433" y="679"/>
			<point x="490" y="624"/>
			<point x="520" y="548"/>
			<point x="520" y="503" type="qcurve"/>
			<point x="520" y="461"/>
			<point x="494" y="389"/>
			<point x="448" y="325"/>
			<point x="387" y="267"/>
			<point name="iv02" x="353" y="237" type="qcurve"/>
			<point name="sv01" x="189" y="96" type="line"/>
			<point x="541" y="96" type="line"/>
		</contour>
	</outline>
</glyph>
<glyph name="three" format="2">
	<unicode hex="0033"/>
	<advance width="600"/>
	<outline>
		<contour>
			<point name="sv02" x="262" y="411" type="line"/>
			<point x="327" y="411"/>
			<point x="389" y="466"/>
			<point x="389" y="509" type="qcurve"/>
			<point x="389" y="516" type="line"/>
			<point x="389" y="564"/>
			<point x="329" y="615"/>
			<point name="sv01" x="278" y="615" type="qcurve"/>
			<point x="228" y="615"/>
			<point x="158" y="570"/>
			<point x="134" y="530" type="qcurve"/>
			<point x="59" y="595" type="line"/>
			<point x="75" y="618"/>
			<point x="115" y="660"/>
			<point x="169" y="691"/>
			<point x="237" y="710"/>
			<point name="ih01" x="281" y="710" type="qcurve"/>
			<point x="330" y="710"/>
			<point x="414" y="686"/>
			<point x="474" y="639"/>
			<point x="508" y="572"/>
			<point x="508" y="530" type="qcurve"/>
			<point x="508" y="497"/>
			<point x="487" y="443"/>
			<point x="450" y="402"/>
			<point x="401" y="376"/>
			<point name="iv02" x="374" y="370" type="qcurve"/>
			<point x="374" y="365" type="line"/>
			<point x="404" y="359"/>
			<point x="457" y="332"/>
			<point x="497" y="289"/>
			<point x="520" y="230"/>
			<point x="520" y="192" type="qcurve"/>
			<point x="520" y="146"/>
			<point x="484" y="71"/>
			<point x="419" y="17"/>
			<point x="327" y="-12"/>
			<point name="ab01" x="271" y="-12" type="qcurve"/>
			<point x="222" y="-12"/>
			<point x="148" y="9"/>
			<point x="91" y="44"/>
			<point x="48" y="89"/>
			<point x="32" y="113" type="qcurve"/>
			<point x="115" y="178" type="line"/>
			<point x="128" y="157"/>
			<point x="157" y="122"/>
			<point x="194" y="97"/>
			<point x="241" y="83"/>
			<point name="sv03" x="271" y="83" type="qcurve"/>
			<point x="335" y="83"/>
			<point x="403" y="144"/>
			<point x="403" y="198" type="qcurve"/>
			<point x="403" y="205" type="line"/>
			<point x="403" y="259"/>
			<point x="331" y="315"/>
			<point name="iv01" x="265" y="315" type="qcurve"/>
			<point x="191" y="315" type="line"/>
			<point x="191" y="411" type="line"/>
		</contour>
	</outline>
</glyph>
<glyph name="four" format="2">
	<unicode hex="0034"/>
	<advance width="600"/>
	<outline>
		<contour>
			<point name="ab01" x="359" y="0" type="line"/>
			<point x="359" y="136" type="line"/>
			<point name="iv01" x="35" y="136" type="line"/>
			<point name="sv02" x="35" y="233" type="line"/>
			<point name="ih01" x="318" y="698" type="line"/>
			<point x="466" y="698" type="line"/>
			<point name="sv03" x="466" y="225" type="line"/>
			<point x="561" y="225" type="line"/>
			<point x="561" y="136" type="line"/>
			<point name="sv04" x="466" y="136" type="line"/>
			<point x="466" y="0" type="line"/>
		</contour>
		<contour>
			<point name="sv01" x="131" y="225" type="line"/>
			<point x="359" y="225" type="line"/>
			<point x="359" y="595" type="line"/>
			<point name="sh01" x="352" y="595" type="line"/>
		</contour>
	</outline>
</glyph>
<glyph name="five" format="2">
	<unicode hex="0035"/>
	<advance width="600"/>
	<outline>
		<contour>
			<point name="hr00" x="508" y="600" type="line"/>
			<point name="sv01" x="198" y="600" type="line"/>
			<point x="180" y="353" type="line"/>
			<point name="iv02" x="187" y="353" type="line"/>
			<point x="199" y="374"/>
			<point x="225" y="407"/>
			<point x="259" y="431"/>
			<point x="303" y="444"/>
			<point name="iv01" x="333" y="444" type="qcurve"/>
			<point x="378" y="444"/>
			<point x="455" y="414"/>
			<point x="512" y="358"/>
			<point x="544" y="277"/>
			<point x="544" y="226" type="qcurve"/>
			<point x="544" y="174"/>
			<point x="511" y="86"/>
			<point x="447" y="23"/>
			<point x="354" y="-12"/>
			<point name="ab01" x="295" y="-12" type="qcurve"/>
			<point x="248" y="-12"/>
			<point x="176" y="9"/>
			<point x="121" y="44"/>
			<point x="80" y="89"/>
			<point x="64" y="113" type="qcurve"/>
			<point name="iv03" x="146" y="178" type="line"/>
			<point x="159" y="157"/>
			<point x="187" y="123"/>
			<point x="223" y="97"/>
			<point x="268" y="83"/>
			<point name="ih01" x="297" y="83" type="qcurve"/>
			<point x="359" y="83"/>
			<point x="426" y="151"/>
			<point x="426" y="211" type="qcurve"/>
			<point x="426" y="223" type="line"/>
			<point x="426" y="283"/>
			<point x="359" y="351"/>
			<point name="sv02" x="297" y="351" type="qcurve"/>
			<point x="252" y="351"/>
			<point x="198" y="317"/>
			<point name="iv04" x="179" y="296" type="qcurve"/>
			<point x="86" y="309" type="line"/>
			<point name="at01" x="112" y="698" type="line"/>
			<point x="508" y="698" type="line"/>
		</contour>
	</outline>
</glyph>
<glyph name="six" format="2">
	<unicode hex="0036"/>
	<advance width="600"/>
	<outline>
		<contour>
			<point name="ih01" x="302" y="-12" type="qcurve"/>
			<point x="244" y="-12"/>
			<point x="153" y="26"/>
			<point x="90" y="97"/>
			<point x="56" y="197"/>
			<point x="56" y="260" type="qcurve"/>
			<point x="56" y="336"/>
			<point x="102" y="470"/>
			<point x="174" y="582"/>
			<point x="263" y="669"/>
			<point name="at01" x="306" y="698" type="qcurve"/>
			<point x="456" y="698" type="line"/>
			<point x="397" y="655"/>
			<point x="303" y="575"/>
			<point x="233" y="491"/>
			<point x="186" y="397"/>
			<point x="173" y="341" type="qcurve"/>
			<point name="iv02" x="180" y="339" type="line"/>
			<point x="191" y="360"/>
			<point x="220" y="397"/>
			<point x="259" y="425"/>
			<point x="309" y="441"/>
			<point name="iv01" x="342" y="441" type="qcurve"/>
			<point x="386" y="441"/>
			<point x="461" y="411"/>
			<point x="516" y="354"/>
			<point x="547" y="274"/>
			<point x="547" y="225" type="qcurve"/>
			<point x="547" y="172"/>
			<point x="512" y="85"/>
			<point x="448" y="23"/>
			<point x="357" y="-12"/>
		</contour>
		<contour>
			<point name="sh01" x="302" y="80" type="qcurve"/>
			<point x="363" y="80"/>
			<point x="431" y="145"/>
			<point x="431" y="208" type="qcurve"/>
			<point x="431" y="222" type="line"/>
			<point x="431" y="285"/>
			<point x="363" y="350"/>
			<point name="sv01" x="302" y="350" type="qcurve"/>
			<point x="241" y="350"/>
			<point x="173" y="285"/>
			<point x="173" y="222" type="qcurve"/>
			<point x="173" y="208" type="line"/>
			<point x="173" y="145"/>
			<point x="241" y="80"/>
		</contour>
	</outline>
</glyph>
<glyph name="seven" format="2">
	<unicode hex="0037"/>
	<advance width="600"/>
	<outline>
		<contour>
			<point name="ab01" x="171" y="0" type="line"/>
			<point x="424" y="605" type="line"/>
			<point name="sv01" x="160" y="605" type="line"/>
			<point x="160" y="476" type="line"/>
			<point name="iv01" x="63" y="476" type="line"/>
			<point name="at01" x="63" y="698" type="line"/>
			<point x="536" y="698" type="line"/>
			<point name="sv02" x="536" y="600" type="line"/>
			<point name="ih01" x="290" y="0" type="line"/>
		</contour>
	</outline>
</glyph>
<glyph name="eight" format="2">
	<unicode hex="0038"/>
	<advance width="600"/>
	<outline>
		<contour>
			<point name="ih01" x="300" y="-12" type="qcurve"/>
			<point x="239" y="-12"/>
			<point x="146" y="19"/>
			<point x="83" y="73"/>
			<point x="50" y="147"/>
			<point x="50" y="190" type="qcurve"/>
			<point x="50" y="260"/>
			<point x="127" y="345"/>
			<point x="190" y="362" type="qcurve"/>
			<point name="iv01" x="190" y="370" type="line"/>
			<point x="136" y="389"/>
			<point x="71" y="471"/>
			<point x="71" y="531" type="qcurve"/>
			<point x="71" y="571"/>
			<point x="102" y="637"/>
			<point x="160" y="684"/>
			<point x="246" y="710"/>
			<point name="at01" x="300" y="710" type="qcurve"/>
			<point x="354" y="710"/>
			<point x="440" y="684"/>
			<point x="498" y="637"/>
			<point x="529" y="571"/>
			<point x="529" y="531" type="qcurve"/>
			<point x="529" y="471"/>
			<point x="464" y="389"/>
			<point name="iv02" x="410" y="370" type="qcurve"/>
			<point x="410" y="362" type="line"/>
			<point x="473" y="345"/>
			<point x="550" y="260"/>
			<point x="550" y="190" type="qcurve"/>
			<point x="550" y="147"/>
			<point x="517" y="73"/>
			<point x="454" y="19"/>
			<point x="361" y="-12"/>
		</contour>
		<contour>
			<point name="sh01" x="300" y="79" type="qcurve"/>
			<point x="363" y="79"/>
			<point x="432" y="137"/>
			<point x="432" y="189" type="qcurve"/>
			<point x="432" y="209" type="line"/>
			<point x="432" y="261"/>
			<point x="363" y="319"/>
			<point name="sv01" x="300" y="319" type="qcurve"/>
			<point x="237" y="319"/>
			<point x="168" y="261"/>
			<point x="168" y="209" type="qcurve"/>
			<point x="168" y="189" type="line"/>
			<point x="168" y="137"/>
			<point x="237" y="79"/>
		</contour>
		<contour>
			<point name="sh02" x="300" y="406" type="qcurve"/>
			<point x="358" y="406"/>
			<point x="419" y="456"/>
			<point x="419" y="504" type="qcurve"/>
			<point x="419" y="521" type="line"/>
			<point x="419" y="569"/>
			<point x="358" y="619"/>
			<point name="sv02" x="300" y="619" type="qcurve"/>
			<point x="242" y="619"/>
			<point x="181" y="569"/>
			<point x="181" y="521" type="qcurve"/>
			<point x="181" y="504" type="line"/>
			<point x="181" y="456"/>
			<point x="242" y="406"/>
		</contour>
	</outline>
</glyph>
<glyph name="nine" format="2">
	<unicode hex="0039"/>
	<advance width="600"/>
	<outline>
		<contour>
			<point name="hr00" x="544" y="438" type="qcurve"/>
			<point x="544" y="362"/>
			<point x="498" y="228"/>
			<point x="426" y="116"/>
			<point x="337" y="28"/>
			<point x="294" y="0" type="qcurve"/>
			<point name="ab01" x="144" y="0" type="line"/>
			<point x="203" y="43"/>
			<point x="297" y="123"/>
			<point x="367" y="207"/>
			<point x="414" y="301"/>
			<point x="427" y="357" type="qcurve"/>
			<point name="iv02" x="420" y="359" type="line"/>
			<point x="409" y="338"/>
			<point x="380" y="301"/>
			<point x="341" y="273"/>
			<point x="291" y="257"/>
			<point name="iv01" x="258" y="257" type="qcurve"/>
			<point x="214" y="257"/>
			<point x="139" y="287"/>
			<point x="84" y="344"/>
			<point x="53" y="423"/>
			<point x="53" y="473" type="qcurve"/>
			<point x="53" y="525"/>
			<point x="88" y="613"/>
			<point x="152" y="675"/>
			<point x="242" y="710"/>
			<point name="sh01" x="298" y="710" type="qcurve"/>
			<point x="356" y="710"/>
			<point x="447" y="672"/>
			<point x="510" y="601"/>
			<point x="544" y="501"/>
		</contour>
		<contour>
			<point name="ih01" x="298" y="348" type="qcurve"/>
			<point x="359" y="348"/>
			<point x="427" y="413"/>
			<point x="427" y="476" type="qcurve"/>
			<point x="427" y="490" type="line"/>
			<point x="427" y="553"/>
			<point x="359" y="618"/>
			<point name="sv01" x="298" y="618" type="qcurve"/>
			<point x="237" y="618"/>
			<point x="169" y="553"/>
			<point x="169" y="490" type="qcurve"/>
			<point x="169" y="476" type="line"/>
			<point x="169" y="413"/>
			<point x="237" y="348"/>
		</contour>
	</outline>
</glyph>
<glyph name="equal" format="2">
	<unicode hex="003D"/>
	<advance width="600"/>
	<outline>
		<contour>
			<point name="sh01" x="67" y="368" type="line"/>
			<point name="dv02" x="67" y="457" type="line"/>
			<point x="533" y="457" type="line"/>
			<point x="533" y="368" type="line"/>
		</contour>
		<contour>
			<point name="ih01" x="67" y="154" type="line"/>
			<point name="dv01" x="67" y="243" type="line"/>
			<point x="533" y="243" type="line"/>
			<point x="533" y="154" type="line"/>
		</contour>
	</outline>
</glyph>
<glyph name="greater" format="2">
	<unicode hex="003E"/>
	<advance width="600"/>
	<outline>
		<contour>
			<point name="hr00" x="96" y="104" type="line"/>
			<point name="ih01" x="395" y="284" type="line"/>
			<point x="395" y="291" type="line"/>
			<point x="96" y="470" type="line"/>
			<point name="av01" x="96" y="582" type="line"/>
			<point x="504" y="328" type="line"/>
			<point x="504" y="246" type="line"/>
			<point name="ab01" x="96" y="-8" type="line"/>
		</contour>
	</outline>
</glyph>
<glyph name="question" format="2">
	<unicode hex="003F"/>
	<advance width="487"/>
	<outline>
		<contour>
			<point name="hr00" x="170" y="219" type="line"/>
			<point name="sv04" x="170" y="378" type="line"/>
			<point x="251" y="382"/>
			<point x="338" y="443"/>
			<point x="338" y="503" type="qcurve"/>
			<point x="338" y="517" type="line"/>
			<point x="338" y="563"/>
			<point x="282" y="614"/>
			<point name="sv05" x="235" y="614" type="qcurve"/>
			<point x="185" y="614"/>
			<point x="125" y="556"/>
			<point x="114" y="511" type="qcurve"/>
			<point x="19" y="549" type="line"/>
			<point x="28" y="580"/>
			<point x="63" y="638"/>
			<point x="117" y="683"/>
			<point x="191" y="710"/>
			<point name="ih01" x="239" y="710" type="qcurve"/>
			<point x="288" y="710"/>
			<point x="368" y="682"/>
			<point x="424" y="631"/>
			<point x="454" y="558"/>
			<point x="454" y="514" type="qcurve"/>
			<point x="454" y="469"/>
			<point x="423" y="398"/>
			<point x="372" y="348"/>
			<point x="308" y="317"/>
			<point name="sv03" x="274" y="311" type="qcurve"/>
			<point name="sv02" x="274" y="219" type="line"/>
		</contour>
		<contour>
			<point name="sh01" x="223" y="-12" type="qcurve"/>
			<point x="185" y="-12"/>
			<point x="150" y="25"/>
			<point x="150" y="54" type="qcurve"/>
			<point x="150" y="71" type="line"/>
			<point x="150" y="100"/>
			<point x="185" y="137"/>
			<point name="sv01" x="223" y="137" type="qcurve"/>
			<point x="261" y="137"/>
			<point x="296" y="100"/>
			<point x="296" y="71" type="qcurve"/>
			<point x="296" y="54" type="line"/>
			<point x="296" y="25"/>
			<point x="261" y="-12"/>
		</contour>
	</outline>
</glyph>
<glyph name="at" format="2">
	<unicode hex="0040"/>
	<advance width="896"/>
	<outline>
		<contour>
			<point name="hr00" x="676" y="-121" type="line"/>
			<point name="sh01" x="453" y="-121" type="line"/>
			<point x="363" y="-121"/>
			<point x="219" y="-62"/>
			<point x="118" y="46"/>
			<point x="63" y="197"/>
			<point x="63" y="289" type="qcurve"/>
			<point x="63" y="381"/>
			<point x="119" y="535"/>
			<point x="222" y="646"/>
			<point x="369" y="708"/>
			<point name="at01" x="459" y="708" type="qcurve"/>
			<point x="536" y="708"/>
			<point x="673" y="661"/>
			<point x="775" y="566"/>
			<point x="835" y="424"/>
			<point x="835" y="328" type="qcurve"/>
			<point x="835" y="273"/>
			<point x="813" y="180"/>
			<point x="768" y="112"/>
			<point x="700" y="74"/>
			<point name="sv03" x="655" y="74" type="qcurve"/>
			<point x="604" y="74"/>
			<point x="548" y="123"/>
			<point x="544" y="163" type="qcurve"/>
			<point name="iv01" x="539" y="163" type="line"/>
			<point x="524" y="122"/>
			<point x="465" y="74"/>
			<point name="sv02" x="419" y="74" type="qcurve"/>
			<point x="385" y="74"/>
			<point x="325" y="101"/>
			<point x="280" y="154"/>
			<point x="254" y="235"/>
			<point x="254" y="289" type="qcurve"/>
			<point x="254" y="343"/>
			<point x="280" y="424"/>
			<point x="325" y="477"/>
			<point x="385" y="504"/>
			<point name="sv05" x="419" y="504" type="qcurve"/>
			<point x="465" y="504"/>
			<point x="517" y="459"/>
			<point name="iv02" x="528" y="427" type="qcurve"/>
			<point x="533" y="427" type="line"/>
			<point name="sv07" x="533" y="495" type="line"/>
			<point x="620" y="495" type="line"/>
			<point x="620" y="205" type="line"/>
			<point x="620" y="172"/>
			<point x="645" y="146"/>
			<point name="sv08" x="670" y="146" type="qcurve"/>
			<point x="712" y="146"/>
			<point x="757" y="233"/>
			<point x="757" y="314" type="qcurve"/>
			<point x="757" y="353" type="line"/>
			<point x="757" y="418"/>
			<point x="712" y="523"/>
			<point x="632" y="596"/>
			<point x="522" y="636"/>
			<point name="sv04" x="458" y="636" type="qcurve"/>
			<point x="387" y="636"/>
			<point x="270" y="587"/>
			<point x="187" y="502"/>
			<point x="141" y="385"/>
			<point x="141" y="316" type="qcurve"/>
			<point x="141" y="266" type="line"/>
			<point x="141" y="196"/>
			<point x="186" y="81"/>
			<point x="268" y="-2"/>
			<point x="383" y="-48"/>
			<point name="sv01" x="454" y="-48" type="qcurve"/>
			<point x="676" y="-48" type="line"/>
		</contour>
		<contour>
			<point name="ih01" x="445" y="151" type="qcurve"/>
			<point x="487" y="151"/>
			<point x="533" y="197"/>
			<point x="533" y="233" type="qcurve"/>
			<point x="533" y="353" type="line"/>
			<point x="533" y="385"/>
			<point x="487" y="428"/>
			<point name="sv06" x="445" y="428" type="qcurve"/>
			<point x="399" y="428"/>
			<point x="351" y="373"/>
			<point x="351" y="328" type="qcurve"/>
			<point x="351" y="251" type="line"/>
			<point x="351" y="206"/>
			<point x="399" y="151"/>
		</contour>
	</outline>
</glyph>
<glyph name="A" format="2">
	<unicode hex="0041"/>
	<advance width="662"/>
	<outline>
		<contour>
			<point name="ab02" x="522" y="0" type="line"/>
			<point x="459" y="189" type="line"/>
			<point name="iv01" x="198" y="189" type="line"/>
			<point x="137" y="0" type="line"/>
			<point name="ab01" x="22" y="0" type="line"/>
			<point name="sh01" x="260" y="698" type="line"/>
			<point x="402" y="698" type="line"/>
			<point x="640" y="0" type="line"/>
		</contour>
		<contour>
			<point name="ih01" x="331" y="594" type="line"/>
			<point name="sv01" x="326" y="594" type="line"/>
			<point name="sv02" x="225" y="286" type="line"/>
			<point x="431" y="286" type="line"/>
		</contour>
	</outline>
	<anchor name="bottom" x="329" y="0"/>
	<anchor name="bottomright" x="638" y="0"/>
	<anchor name="top" x="329" y="698"/>
</glyph>
<glyph name="B" format="2">
	<unicode hex="0042"/>
	<advance width="659"/>
	<outline>
		<contour>
			<point name="at01" x="86" y="698" type="line"/>
			<point name="sh01" x="395" y="698" type="line"/>
			<point x="482" y="698"/>
			<point x="581" y="600"/>
			<point x="581" y="518" type="qcurve"/>
			<point x="581" y="479"/>
			<point x="559" y="424"/>
			<point x="525" y="389"/>
			<point x="481" y="372"/>
			<point name="iv02" x="460" y="370" type="qcurve"/>
			<point x="460" y="364" type="line"/>
			<point x="481" y="363"/>
			<point x="532" y="345"/>
			<point x="576" y="306"/>
			<point x="606" y="245"/>
			<point x="606" y="201" type="qcurve"/>
			<point x="606" y="159"/>
			<point x="579" y="85"/>
			<point x="531" y="31"/>
			<point x="465" y="0"/>
			<point x="426" y="0" type="qcurve"/>
			<point name="ab01" x="86" y="0" type="line"/>
		</contour>
		<contour>
			<point name="sv03" x="199" y="97" type="line"/>
			<point name="sh02" x="393" y="97" type="line"/>
			<point x="437" y="97"/>
			<point x="487" y="143"/>
			<point x="487" y="186" type="qcurve"/>
			<point x="487" y="220" type="line"/>
			<point x="487" y="263"/>
			<point x="437" y="309"/>
			<point x="393" y="309" type="qcurve"/>
			<point name="iv01" x="199" y="309" type="line"/>
		</contour>
		<contour>
			<point name="sv02" x="199" y="403" type="line"/>
			<point name="ih01" x="374" y="403" type="line"/>
			<point x="416" y="403"/>
			<point x="462" y="446"/>
			<point x="462" y="486" type="qcurve"/>
			<point x="462" y="518" type="line"/>
			<point x="462" y="558"/>
			<point x="416" y="601"/>
			<point x="374" y="601" type="qcurve"/>
			<point name="sv01" x="199" y="601" type="line"/>
		</contour>
	</outline>
	<anchor name="bottom" x="327" y="0"/>
	<anchor name="top" x="327" y="698"/>
</glyph>
<glyph name="C" format="2">
	<unicode hex="0043"/>
	<advance width="634"/>
	<outline>
		<contour>
			<point name="ih01" x="348" y="-12" type="qcurve"/>
			<point x="211" y="-12"/>
			<point x="55" y="173"/>
			<point x="55" y="349" type="qcurve"/>
			<point x="55" y="437"/>
			<point x="95" y="571"/>
			<point x="171" y="663"/>
			<point x="280" y="710"/>
			<point name="at01" x="348" y="710" type="qcurve"/>
			<point x="439" y="710"/>
			<point x="562" y="630"/>
			<point x="597" y="552" type="qcurve"/>
			<point x="502" y="500" type="line"/>
			<point x="484" y="550"/>
			<point x="409" y="609"/>
			<point name="sv01" x="348" y="609" type="qcurve"/>
			<point x="267" y="609"/>
			<point x="175" y="499"/>
			<point x="175" y="402" type="qcurve"/>
			<point x="175" y="296" type="line"/>
			<point x="175" y="199"/>
			<point x="267" y="89"/>
			<point name="sv02" x="348" y="89" type="qcurve"/>
			<point x="411" y="89"/>
			<point x="490" y="154"/>
			<point x="509" y="205" type="qcurve"/>
			<point x="600" y="150" type="line"/>
			<point x="565" y="74"/>
			<point x="439" y="-12"/>
		</contour>
	</outline>
	<anchor name="bottom" x="337" y="0"/>
	<anchor name="top" x="345" y="698"/>
</glyph>
<glyph name="D" format="2">
	<unicode hex="0044"/>
	<advance width="683"/>
	<outline>
		<contour>
			<point name="at01" x="86" y="698" type="line"/>
			<point x="333" y="698" type="line"/>
			<point x="400" y="698"/>
			<point x="509" y="654"/>
			<point x="586" y="567"/>
			<point x="628" y="436"/>
			<point x="628" y="349" type="qcurve"/>
			<point x="628" y="262"/>
			<point x="586" y="131"/>
			<point x="509" y="44"/>
			<point x="400" y="0"/>
			<point name="ih01" x="333" y="0" type="qcurve"/>
			<point name="ab01" x="86" y="0" type="line"/>
		</contour>
		<contour>
			<point name="sh01" x="333" y="100" type="line"/>
			<point x="411" y="100"/>
			<point x="507" y="198"/>
			<point x="507" y="293" type="qcurve"/>
			<point x="507" y="405" type="line"/>
			<point x="507" y="500"/>
			<point x="411" y="598"/>
			<point x="333" y="598" type="qcurve"/>
			<point name="sv01" x="199" y="598" type="line"/>
			<point name="sv02" x="199" y="100" type="line"/>
		</contour>
	</outline>
	<anchor name="bottom" x="314" y="0"/>
	<anchor name="top" x="314" y="698"/>
</glyph>
<glyph name="E" format="2">
	<unicode hex="0045"/>
	<advance width="593"/>
	<outline>
		<contour>
			<point name="ab01" x="86" y="0" type="line"/>
			<point name="at01" x="86" y="698" type="line"/>
			<point x="533" y="698" type="line"/>
			<point x="533" y="598" type="line"/>
			<point name="sv01" x="199" y="598" type="line"/>
			<point name="sv02" x="199" y="404" type="line"/>
			<point x="502" y="404" type="line"/>
			<point x="502" y="304" type="line"/>
			<point name="iv01" x="199" y="304" type="line"/>
			<point name="ih01" x="199" y="100" type="line"/>
			<point x="533" y="100" type="line"/>
			<point x="533" y="0" type="line"/>
		</contour>
	</outline>
	<anchor name="bottom" x="309" y="0"/>
	<anchor name="bottomright" x="533" y="0"/>
	<anchor name="top" x="309" y="698"/>
</glyph>
<glyph name="F" format="2">
	<unicode hex="0046"/>
	<advance width="570"/>
	<outline>
		<contour>
			<point name="ab01" x="86" y="0" type="line"/>
			<point name="at01" x="86" y="698" type="line"/>
			<point x="522" y="698" type="line"/>
			<point x="522" y="598" type="line"/>
			<point name="sv01" x="199" y="598" type="line"/>
			<point name="sv02" x="199" y="404" type="line"/>
			<point x="486" y="404" type="line"/>
			<point x="486" y="304" type="line"/>
			<point name="iv01" x="199" y="304" type="line"/>
			<point name="ih01" x="199" y="0" type="line"/>
		</contour>
	</outline>
	<anchor name="bottom" x="295" y="0"/>
	<anchor name="top" x="304" y="698"/>
</glyph>
<glyph name="G" format="2">
	<unicode hex="0047"/>
	<advance width="705"/>
	<outline>
		<contour>
			<point name="hr00" x="535" y="106" type="line"/>
			<point name="iv01" x="531" y="106" type="line"/>
			<point x="520" y="55"/>
			<point x="423" y="-12"/>
			<point name="ab01" x="343" y="-12" type="qcurve"/>
			<point x="281" y="-12"/>
			<point x="175" y="35"/>
			<point x="98" y="126"/>
			<point x="55" y="261"/>
			<point x="55" y="349" type="qcurve"/>
			<point x="55" y="436"/>
			<point x="99" y="571"/>
			<point x="179" y="663"/>
			<point x="291" y="710"/>
			<point name="at01" x="360" y="710" type="qcurve"/>
			<point x="454" y="710"/>
			<point x="584" y="627"/>
			<point x="620" y="553" type="qcurve"/>
			<point name="iv03" x="528" y="499" type="line"/>
			<point x="508" y="548"/>
			<point x="424" y="609"/>
			<point name="sv01" x="360" y="609" type="qcurve"/>
			<point x="277" y="609"/>
			<point x="176" y="503"/>
			<point x="176" y="406" type="qcurve"/>
			<point x="176" y="292" type="line"/>
			<point x="176" y="195"/>
			<point x="277" y="89"/>
			<point name="ih01" x="360" y="89" type="qcurve"/>
			<point x="393" y="89"/>
			<point x="453" y="106"/>
			<point x="498" y="139"/>
			<point x="525" y="188"/>
			<point x="525" y="221" type="qcurve"/>
			<point x="525" y="275" type="line"/>
			<point name="iv02" x="381" y="275" type="line"/>
			<point name="sv02" x="381" y="372" type="line"/>
			<point x="634" y="372" type="line"/>
			<point x="634" y="0" type="line"/>
			<point name="ab02" x="535" y="0" type="line"/>
		</contour>
	</outline>
	<anchor name="bottom" x="348" y="0"/>
	<anchor name="top" x="356" y="698"/>
</glyph>
<glyph name="H" format="2">
	<unicode hex="0048"/>
	<advance width="714"/>
	<outline>
		<contour>
			<point name="hr00" x="515" y="304" type="line"/>
			<point name="iv01" x="199" y="304" type="line"/>
			<point name="ih01" x="199" y="0" type="line"/>
			<point name="ab02" x="86" y="0" type="line"/>
			<point name="at01" x="86" y="698" type="line"/>
			<point x="199" y="698" type="line"/>
			<point name="sv01" x="199" y="404" type="line"/>
			<point x="515" y="404" type="line"/>
			<point name="at02" x="515" y="698" type="line"/>
			<point x="628" y="698" type="line"/>
			<point x="628" y="0" type="line"/>
			<point name="ab01" x="515" y="0" type="line"/>
		</contour>
	</outline>
	<anchor name="bottom" x="357" y="0"/>
	<anchor name="top" x="357" y="698"/>
</glyph>
<glyph name="I" format="2">
	<unicode hex="0049"/>
	<advance width="416"/>
	<outline>
		<contour>
			<point name="ab01" x="56" y="0" type="line"/>
			<point name="sv01" x="56" y="92" type="line"/>
			<point x="151" y="92" type="line"/>
			<point x="151" y="606" type="line"/>
			<point name="sv02" x="56" y="606" type="line"/>
			<point name="at01" x="56" y="698" type="line"/>
			<point x="360" y="698" type="line"/>
			<point x="360" y="606" type="line"/>
			<point name="sv03" x="264" y="606" type="line"/>
			<point name="ih01" x="264" y="92" type="line"/>
			<point x="360" y="92" type="line"/>
			<point x="360" y="0" type="line"/>
		</contour>
	</outline>
	<anchor name="bottom" x="207" y="0"/>
	<anchor name="bottomright" x="358" y="0"/>
	<anchor name="top" x="207" y="698"/>
</glyph>
<glyph name="J" format="2">
	<unicode hex="004A"/>
	<advance width="531"/>
	<outline>
		<contour>
			<point name="hr00" x="449" y="698" type="line"/>
			<point x="449" y="190" type="line"/>
			<point x="449" y="144"/>
			<point x="419" y="70"/>
			<point x="364" y="17"/>
			<point x="285" y="-12"/>
			<point name="ih01" x="237" y="-12" type="qcurve"/>
			<point x="146" y="-12"/>
			<point x="41" y="85"/>
			<point x="27" y="163" type="qcurve"/>
			<point x="131" y="186" type="line"/>
			<point x="140" y="141"/>
			<point x="191" y="89"/>
			<point name="sv01" x="237" y="89" type="qcurve"/>
			<point x="282" y="89"/>
			<point x="336" y="145"/>
			<point x="336" y="202" type="qcurve"/>
			<point x="336" y="604" type="line"/>
			<point name="sv02" x="108" y="604" type="line"/>
			<point name="at01" x="108" y="698" type="line"/>
		</contour>
	</outline>
	<anchor name="bottom" x="238" y="0"/>
	<anchor name="top" x="280" y="698"/>
</glyph>
<glyph name="K" format="2">
	<unicode hex="004B"/>
	<advance width="660"/>
	<outline>
		<contour>
			<point name="hr00" x="295" y="326" type="line"/>
			<point name="sv01" x="199" y="216" type="line"/>
			<point x="199" y="0" type="line"/>
			<point name="ab02" x="86" y="0" type="line"/>
			<point name="at01" x="86" y="698" type="line"/>
			<point x="199" y="698" type="line"/>
			<point name="iv01" x="199" y="344" type="line"/>
			<point x="203" y="344" type="line"/>
			<point name="ih01" x="303" y="471" type="line"/>
			<point name="at02" x="491" y="698" type="line"/>
			<point x="623" y="698" type="line"/>
			<point x="374" y="404" type="line"/>
			<point x="643" y="0" type="line"/>
			<point name="ab01" x="507" y="0" type="line"/>
		</contour>
	</outline>
	<anchor name="bottom" x="345" y="0"/>
	<anchor name="top" x="337" y="698"/>
</glyph>
<glyph name="L" format="2">
	<unicode hex="004C"/>
	<advance width="513"/>
	<outline>
		<contour>
			<point name="ab01" x="86" y="0" type="line"/>
			<point name="at01" x="86" y="698" type="line"/>
			<point x="199" y="698" type="line"/>
			<point name="ih01" x="199" y="100" type="line"/>
			<point x="483" y="100" type="line"/>
			<point x="483" y="0" type="line"/>
		</contour>
	</outline>
	<anchor name="bottom" x="293" y="0"/>
	<anchor name="top" x="143" y="698"/>
	<anchor name="topright" x="275" y="740"/>
</glyph>
<glyph name="M" format="2">
	<unicode hex="004D"/>
	<advance width="814"/>
	<outline>
		<contour>
			<point name="hr00" x="620" y="534" type="line"/>
			<point name="sv01" x="615" y="534" type="line"/>
			<point x="560" y="421" type="line"/>
			<point name="ih01" x="407" y="142" type="line"/>
			<point x="254" y="421" type="line"/>
			<point x="199" y="534" type="line"/>
			<point name="sv02" x="194" y="534" type="line"/>
			<point x="194" y="0" type="line"/>
			<point name="ab02" x="86" y="0" type="line"/>
			<point name="at01" x="86" y="698" type="line"/>
			<point x="220" y="698" type="line"/>
			<point name="sv03" x="407" y="343" type="line"/>
			<point x="413" y="343" type="line"/>
			<point name="at02" x="600" y="698" type="line"/>
			<point x="728" y="698" type="line"/>
			<point x="728" y="0" type="line"/>
			<point name="ab01" x="620" y="0" type="line"/>
		</contour>
	</outline>
	<anchor name="bottom" x="407" y="0"/>
	<anchor name="top" x="407" y="698"/>
</glyph>
<glyph name="N" format="2">
	<unicode hex="004E"/>
	<advance width="714"/>
	<outline>
		<contour>
			<point name="hr00" x="274" y="386" type="line"/>
			<point x="197" y="534" type="line"/>
			<point name="sv01" x="194" y="534" type="line"/>
			<point x="194" y="0" type="line"/>
			<point name="ab02" x="86" y="0" type="line"/>
			<point name="at01" x="86" y="698" type="line"/>
			<point x="212" y="698" type="line"/>
			<point name="ih01" x="440" y="312" type="line"/>
			<point name="sv02" x="517" y="164" type="line"/>
			<point x="520" y="164" type="line"/>
			<point name="at02" x="520" y="698" type="line"/>
			<point x="628" y="698" type="line"/>
			<point x="628" y="0" type="line"/>
			<point name="ab01" x="502" y="0" type="line"/>
		</contour>
	</outline>
	<anchor name="bottom" x="356" y="0"/>
	<anchor name="top" x="356" y="698"/>
</glyph>
<glyph name="O" format="2">
	<unicode hex="004F"/>
	<advance width="712"/>
	<outline>
		<contour>
			<point name="ih01" x="356" y="-12" type="qcurve"/>
			<point x="288" y="-12"/>
			<point x="177" y="35"/>
			<point x="98" y="126"/>
			<point x="55" y="261"/>
			<point x="55" y="349" type="qcurve"/>
			<point x="55" y="437"/>
			<point x="98" y="572"/>
			<point x="177" y="663"/>
			<point x="288" y="710"/>
			<point name="at01" x="356" y="710" type="qcurve"/>
			<point x="424" y="710"/>
			<point x="535" y="663"/>
			<point x="614" y="572"/>
			<point x="657" y="437"/>
			<point x="657" y="349" type="qcurve"/>
			<point x="657" y="261"/>
			<point x="614" y="126"/>
			<point x="535" y="35"/>
			<point x="424" y="-12"/>
		</contour>
		<contour>
			<point name="sh01" x="356" y="89" type="qcurve"/>
			<point x="396" y="89"/>
			<point x="463" y="117"/>
			<point x="510" y="170"/>
			<point x="536" y="246"/>
			<point x="536" y="294" type="qcurve"/>
			<point x="536" y="404" type="line"/>
			<point x="536" y="452"/>
			<point x="510" y="528"/>
			<point x="463" y="581"/>
			<point x="396" y="609"/>
			<point name="sv01" x="356" y="609" type="qcurve"/>
			<point x="315" y="609"/>
			<point x="249" y="581"/>
			<point x="202" y="528"/>
			<point x="176" y="452"/>
			<point x="176" y="404" type="qcurve"/>
			<point x="176" y="294" type="line"/>
			<point x="176" y="246"/>
			<point x="202" y="170"/>
			<point x="249" y="117"/>
			<point x="315" y="89"/>
		</contour>
	</outline>
	<anchor name="bottom" x="355" y="0"/>
	<anchor name="top" x="355" y="698"/>
</glyph>
<glyph name="P" format="2">
	<unicode hex="0050"/>
	<advance width="627"/>
	<outline>
		<contour>
			<point name="ab01" x="86" y="0" type="line"/>
			<point name="at01" x="86" y="698" type="line"/>
			<point x="386" y="698" type="line"/>
			<point x="483" y="698"/>
			<point x="589" y="584"/>
			<point x="589" y="488" type="qcurve"/>
			<point x="589" y="392"/>
			<point x="483" y="278"/>
			<point name="sh01" x="386" y="278" type="qcurve"/>
			<point name="iv01" x="199" y="278" type="line"/>
			<point x="199" y="0" type="line"/>
		</contour>
		<contour>
			<point name="sv02" x="199" y="377" type="line"/>
			<point name="ih01" x="379" y="377" type="line"/>
			<point x="422" y="377"/>
			<point x="470" y="422"/>
			<point x="470" y="464" type="qcurve"/>
			<point x="470" y="512" type="line"/>
			<point x="470" y="554"/>
			<point x="422" y="599"/>
			<point x="379" y="599" type="qcurve"/>
			<point name="sv01" x="199" y="599" type="line"/>
		</contour>
	</outline>
	<anchor name="bottom" x="305" y="0"/>
	<anchor name="top" x="305" y="698"/>
</glyph>
<glyph name="Q" format="2">
	<unicode hex="0051"/>
	<advance width="712"/>
	<outline>
		<contour>
			<point name="hr00" x="523" y="-173" type="line"/>
			<point name="sv02" x="424" y="-173" type="line"/>
			<point x="365" y="-173"/>
			<point x="310" y="-113"/>
			<point x="310" y="-62" type="qcurve"/>
			<point name="ab01" x="310" y="-9" type="line"/>
			<point x="251" y="-2"/>
			<point x="157" y="52"/>
			<point x="91" y="142"/>
			<point x="55" y="269"/>
			<point x="55" y="349" type="qcurve"/>
			<point x="55" y="437"/>
			<point x="98" y="572"/>
			<point x="177" y="663"/>
			<point x="288" y="710"/>
			<point name="sh01" x="356" y="710" type="qcurve"/>
			<point x="424" y="710"/>
			<point x="535" y="663"/>
			<point x="614" y="572"/>
			<point x="657" y="437"/>
			<point x="657" y="349" type="qcurve"/>
			<point x="657" y="193"/>
			<point x="527" y="12"/>
			<point name="sv03" x="416" y="-7" type="qcurve"/>
			<point name="sv01" x="416" y="-79" type="line"/>
			<point x="523" y="-79" type="line"/>
		</contour>
		<contour>
			<point name="ih01" x="356" y="89" type="qcurve"/>
			<point x="396" y="89"/>
			<point x="463" y="117"/>
			<point x="510" y="170"/>
			<point x="536" y="246"/>
			<point x="536" y="294" type="qcurve"/>
			<point x="536" y="404" type="line"/>
			<point x="536" y="452"/>
			<point x="510" y="528"/>
			<point x="463" y="581"/>
			<point x="396" y="609"/>
			<point name="sv04" x="356" y="609" type="qcurve"/>
			<point x="315" y="609"/>
			<point x="249" y="581"/>
			<point x="202" y="528"/>
			<point x="176" y="452"/>
			<point x="176" y="404" type="qcurve"/>
			<point x="176" y="294" type="line"/>
			<point x="176" y="246"/>
			<point x="202" y="170"/>
			<point x="249" y="117"/>
			<point x="315" y="89"/>
		</contour>
	</outline>
	<anchor name="top" x="355" y="698"/>
</glyph>
<glyph name="R" format="2">
	<unicode hex="0052"/>
	<advance width="655"/>
	<outline>
		<contour>
			<point name="hr00" x="199" y="0" type="line"/>
			<point name="ab01" x="86" y="0" type="line"/>
			<point name="at01" x="86" y="698" type="line"/>
			<point x="387" y="698" type="line"/>
			<point x="481" y="698"/>
			<point x="589" y="585"/>
			<point x="589" y="488" type="qcurve"/>
			<point x="589" y="413"/>
			<point x="520" y="314"/>
			<point name="iv02" x="453" y="294" type="qcurve"/>
			<point x="604" y="0" type="line"/>
			<point name="ab02" x="478" y="0" type="line"/>
			<point name="ih01" x="338" y="282" type="line"/>
			<point name="iv01" x="199" y="282" type="line"/>
		</contour>
		<contour>
			<point name="sh01" x="379" y="377" type="line"/>
			<point x="422" y="377"/>
			<point x="470" y="422"/>
			<point x="470" y="464" type="qcurve"/>
			<point x="470" y="512" type="line"/>
			<point x="470" y="554"/>
			<point x="422" y="599"/>
			<point x="379" y="599" type="qcurve"/>
			<point name="sv01" x="199" y="599" type="line"/>
			<point name="sv02" x="199" y="377" type="line"/>
		</contour>
	</outline>
	<anchor name="bottom" x="331" y="0"/>
	<anchor name="top" x="314" y="698"/>
</glyph>
<glyph name="S" format="2">
	<unicode hex="0053"/>
	<advance width="598"/>
	<outline>
		<contour>
			<point name="ab01" x="295" y="-12" type="qcurve"/>
			<point x="207" y="-12"/>
			<point x="84" y="52"/>
			<point x="40" y="106" type="qcurve"/>
			<point name="iv02" x="118" y="179" type="line"/>
			<point x="155" y="134"/>
			<point x="244" y="88"/>
			<point name="sv01" x="301" y="88" type="qcurve"/>
			<point x="368" y="88"/>
			<point x="436" y="148"/>
			<point x="436" y="199" type="qcurve"/>
			<point x="436" y="240"/>
			<point x="388" y="288"/>
			<point x="327" y="300" type="qcurve"/>
			<point name="iv01" x="265" y="311" type="line"/>
			<point x="163" y="330"/>
			<point x="61" y="426"/>
			<point x="61" y="510" type="qcurve"/>
			<point x="61" y="556"/>
			<point x="96" y="631"/>
			<point x="159" y="682"/>
			<point x="249" y="710"/>
			<point name="at01" x="305" y="710" type="qcurve"/>
			<point x="384" y="710"/>
			<point x="500" y="655"/>
			<point x="541" y="603" type="qcurve"/>
			<point name="iv04" x="462" y="533" type="line"/>
			<point x="435" y="568"/>
			<point x="357" y="610"/>
			<point name="ih01" x="299" y="610" type="qcurve"/>
			<point x="239" y="610"/>
			<point x="173" y="562"/>
			<point x="173" y="516" type="qcurve"/>
			<point x="173" y="472"/>
			<point x="227" y="429"/>
			<point name="iv03" x="284" y="418" type="qcurve"/>
			<point x="346" y="405" type="line"/>
			<point x="451" y="385"/>
			<point x="548" y="289"/>
			<point x="548" y="205" type="qcurve"/>
			<point x="548" y="156"/>
			<point x="514" y="76"/>
			<point x="449" y="19"/>
			<point x="355" y="-12"/>
		</contour>
	</outline>
	<anchor name="bottom" x="297" y="0"/>
	<anchor name="top" x="297" y="698"/>
</glyph>
<glyph name="T" format="2">
	<unicode hex="0054"/>
	<advance width="577"/>
	<outline>
		<contour>
			<point name="sv02" x="345" y="598" type="line"/>
			<point x="345" y="0" type="line"/>
			<point name="ih01" x="232" y="0" type="line"/>
			<point x="232" y="598" type="line"/>
			<point name="sv01" x="24" y="598" type="line"/>
			<point name="at01" x="24" y="698" type="line"/>
			<point x="553" y="698" type="line"/>
			<point x="553" y="598" type="line"/>
		</contour>
	</outline>
	<anchor name="bottom" x="289" y="0"/>
	<anchor name="top" x="289" y="698"/>
</glyph>
<glyph name="U" format="2">
	<unicode hex="0055"/>
	<advance width="686"/>
	<outline>
		<contour>
			<point name="hr00" x="193" y="698" type="line"/>
			<point x="193" y="268" type="line"/>
			<point x="193" y="179"/>
			<point x="261" y="89"/>
			<point name="sv01" x="343" y="89" type="qcurve"/>
			<point x="425" y="89"/>
			<point x="493" y="179"/>
			<point x="493" y="268" type="qcurve"/>
			<point name="at02" x="493" y="698" type="line"/>
			<point x="604" y="698" type="line"/>
			<point x="604" y="286" type="line"/>
			<point x="604" y="209"/>
			<point x="576" y="97"/>
			<point x="514" y="24"/>
			<point x="415" y="-12"/>
			<point name="ih01" x="343" y="-12" type="qcurve"/>
			<point x="271" y="-12"/>
			<point x="172" y="24"/>
			<point x="110" y="97"/>
			<point x="82" y="209"/>
			<point x="82" y="286" type="qcurve"/>
			<point name="at01" x="82" y="698" type="line"/>
		</contour>
	</outline>
	<anchor name="bottom" x="341" y="0"/>
	<anchor name="bottomright" x="444" y="0"/>
	<anchor name="top" x="341" y="698"/>
</glyph>
<glyph name="V" format="2">
	<unicode hex="0056"/>
	<advance width="628"/>
	<outline>
		<contour>
			<point name="ab01" x="247" y="0" type="line"/>
			<point name="at01" x="18" y="698" type="line"/>
			<point x="135" y="698" type="line"/>
			<point x="246" y="353" type="line"/>
			<point name="ih01" x="313" y="110" type="line"/>
			<point x="317" y="110" type="line"/>
			<point x="385" y="353" type="line"/>
			<point name="at02" x="496" y="698" type="line"/>
			<point x="610" y="698" type="line"/>
			<point x="378" y="0" type="line"/>
		</contour>
	</outline>
	<anchor name="bottom" x="313" y="0"/>
	<anchor name="top" x="313" y="698"/>
</glyph>
<glyph name="W" format="2">
	<unicode hex="0057"/>
	<advance width="926"/>
	<outline>
		<contour>
			<point name="ab02" x="189" y="0" type="line"/>
			<point name="at01" x="24" y="698" type="line"/>
			<point x="139" y="698" type="line"/>
			<point x="210" y="362" type="line"/>
			<point name="sv01" x="259" y="130" type="line"/>
			<point x="262" y="130" type="line"/>
			<point x="318" y="362" type="line"/>
			<point name="at02" x="401" y="698" type="line"/>
			<point x="527" y="698" type="line"/>
			<point x="609" y="362" type="line"/>
			<point name="sv02" x="664" y="131" type="line"/>
			<point x="667" y="131" type="line"/>
			<point x="718" y="362" type="line"/>
			<point name="at03" x="791" y="698" type="line"/>
			<point x="902" y="698" type="line"/>
			<point x="730" y="0" type="line"/>
			<point name="ab01" x="603" y="0" type="line"/>
			<point x="514" y="361" type="line"/>
			<point name="ih01" x="462" y="573" type="line"/>
			<point name="sv03" x="460" y="573" type="line"/>
			<point x="407" y="361" type="line"/>
			<point x="316" y="0" type="line"/>
		</contour>
	</outline>
	<anchor name="bottom" x="464" y="0"/>
	<anchor name="top" x="464" y="698"/>
</glyph>
<glyph name="X" format="2">
	<unicode hex="0058"/>
	<advance width="639"/>
	<outline>
		<contour>
			<point name="hr00" x="618" y="0" type="line"/>
			<point name="ab02" x="485" y="0" type="line"/>
			<point x="316" y="278" type="line"/>
			<point name="iv01" x="313" y="278" type="line"/>
			<point x="146" y="0" type="line"/>
			<point name="ab01" x="21" y="0" type="line"/>
			<point x="247" y="357" type="line"/>
			<point name="at01" x="29" y="698" type="line"/>
			<point x="162" y="698" type="line"/>
			<point name="ih01" x="321" y="438" type="line"/>
			<point x="323" y="438" type="line"/>
			<point name="at02" x="484" y="698" type="line"/>
			<point x="609" y="698" type="line"/>
			<point x="389" y="358" type="line"/>
		</contour>
	</outline>
	<anchor name="bottom" x="320" y="0"/>
	<anchor name="top" x="320" y="698"/>
</glyph>
<glyph name="Y" format="2">
	<unicode hex="0059"/>
	<advance width="617"/>
	<outline>
		<contour>
			<point name="ab01" x="251" y="0" type="line"/>
			<point name="sv01" x="251" y="275" type="line"/>
			<point name="at01" x="11" y="698" type="line"/>
			<point x="140" y="698" type="line"/>
			<point name="ih01" x="310" y="387" type="line"/>
			<point x="313" y="387" type="line"/>
			<point name="at02" x="482" y="698" type="line"/>
			<point x="606" y="698" type="line"/>
			<point name="sv02" x="364" y="277" type="line"/>
			<point x="364" y="0" type="line"/>
		</contour>
	</outline>
	<anchor name="bottom" x="308" y="0"/>
	<anchor name="top" x="309" y="698"/>
</glyph>
<glyph name="bracketleft" format="2">
	<unicode hex="005B"/>
	<advance width="325"/>
	<outline>
		<contour>
			<point name="av02" x="86" y="-138" type="line"/>
			<point name="av01" x="86" y="760" type="line"/>
			<point x="269" y="760" type="line"/>
			<point x="269" y="679" type="line"/>
			<point name="sv01" x="184" y="679" type="line"/>
			<point name="ih01" x="184" y="-57" type="line"/>
			<point x="269" y="-57" type="line"/>
			<point x="269" y="-138" type="line"/>
		</contour>
	</outline>
</glyph>
<glyph name="backslash" format="2">
	<unicode hex="005C"/>
	<advance width="417"/>
	<outline>
		<contour>
			<point name="av01" x="316" y="-151" type="line"/>
			<point name="at01" x="39" y="740" type="line"/>
			<point name="ih01" x="133" y="740" type="line"/>
			<point x="410" y="-151" type="line"/>
		</contour>
	</outline>
</glyph>
<glyph name="bracketright" format="2">
	<unicode hex="005D"/>
	<advance width="325"/>
	<outline>
		<contour>
			<point name="hr00" x="239" y="760" type="line"/>
			<point x="239" y="-138" type="line"/>
			<point name="av02" x="56" y="-138" type="line"/>
			<point name="sv01" x="56" y="-57" type="line"/>
			<point name="ih01" x="141" y="-57" type="line"/>
			<point name="sv02" x="141" y="679" type="line"/>
			<point x="56" y="679" type="line"/>
			<point name="av01" x="56" y="760" type="line"/>
		</contour>
	</outline>
</glyph>
<glyph name="asciicircum" format="2">
	<unicode hex="005E"/>
	<advance width="600"/>
	<outline>
		<contour>
			<point name="hr00" x="467" y="288" type="line"/>
			<point name="ih01" x="300" y="587" type="line"/>
			<point name="sv01" x="295" y="587" type="line"/>
			<point x="129" y="288" type="line"/>
			<point x="47" y="331" type="line"/>
			<point name="at01" x="250" y="698" type="line"/>
			<point x="350" y="698" type="line"/>
			<point x="553" y="331" type="line"/>
		</contour>
	</outline>
</glyph>
<glyph name="underscore" format="2">
	<unicode hex="005F"/>
	<advance width="561"/>
	<outline>
		<contour>
			<point name="dv01" x="30" y="-176" type="line"/>
			<point name="ih01" x="30" y="-82" type="line"/>
			<point x="531" y="-82" type="line"/>
			<point x="531" y="-176" type="line"/>
		</contour>
	</outline>
</glyph>
<glyph name="grave" format="2">
	<unicode hex="0060"/>
	<advance width="600"/>
	<outline>
		<contour>
			<point name="hr00" x="171" y="749" type="line"/>
			<point x="266" y="795" type="line"/>
			<point x="357" y="615" type="line"/>
			<point name="ih01" x="289" y="582" type="line"/>
		</contour>
	</outline>
	<anchor name="_top" x="300" y="540"/>
</glyph>
<glyph name="a" format="2">
	<unicode hex="0061"/>
	<advance width="549"/>
	<outline>
		<contour>
			<point name="ab02" x="459" y="0" type="line"/>
			<point x="416" y="0"/>
			<point x="370" y="49"/>
			<point x="365" y="87" type="qcurve"/>
			<point name="iv01" x="360" y="87" type="line"/>
			<point x="345" y="38"/>
			<point x="265" y="-12"/>
			<point name="ab01" x="208" y="-12" type="qcurve"/>
			<point x="127" y="-12"/>
			<point x="40" y="72"/>
			<point x="40" y="143" type="qcurve"/>
			<point x="40" y="221"/>
			<point x="153" y="299"/>
			<point name="sh01" x="262" y="299" type="qcurve"/>
			<point x="356" y="299" type="line"/>
			<point x="356" y="343" type="line"/>
			<point x="356" y="391"/>
			<point x="304" y="443"/>
			<point name="sv02" x="249" y="443" type="qcurve"/>
			<point x="203" y="443"/>
			<point x="145" y="403"/>
			<point name="iv02" x="125" y="372" type="qcurve"/>
			<point x="60" y="431" type="line"/>
			<point x="86" y="475"/>
			<point x="180" y="532"/>
			<point name="at01" x="256" y="532" type="qcurve"/>
			<point x="357" y="532"/>
			<point x="465" y="438"/>
			<point x="465" y="350" type="qcurve"/>
			<point name="sv03" x="465" y="89" type="line"/>
			<point x="520" y="89" type="line"/>
			<point x="520" y="0" type="line"/>
		</contour>
		<contour>
			<point name="sv01" x="239" y="71" type="qcurve"/>
			<point x="290" y="71"/>
			<point x="356" y="116"/>
			<point x="356" y="154" type="qcurve"/>
			<point x="356" y="229" type="line"/>
			<point name="ih01" x="264" y="229" type="line"/>
			<point x="151" y="229"/>
			<point x="151" y="159" type="qcurve"/>
			<point x="151" y="141" type="line"/>
			<point x="151" y="106"/>
			<point x="198" y="71"/>
		</contour>
	</outline>
	<anchor name="bottom" x="255" y="0"/>
	<anchor name="bottomright" x="520" y="0"/>
	<anchor name="top" x="259" y="540"/>
</glyph>
<glyph name="c" format="2">
	<unicode hex="0063"/>
	<advance width="510"/>
	<outline>
		<contour>
			<point name="ih01" x="279" y="-12" type="qcurve"/>
			<point x="223" y="-12"/>
			<point x="135" y="26"/>
			<point x="75" y="97"/>
			<point x="43" y="198"/>
			<point x="43" y="260" type="qcurve"/>
			<point x="43" y="322"/>
			<point x="75" y="423"/>
			<point x="135" y="494"/>
			<point x="223" y="532"/>
			<point name="at01" x="279" y="532" type="qcurve"/>
			<point x="357" y="532"/>
			<point x="457" y="462"/>
			<point x="480" y="404" type="qcurve"/>
			<point x="390" y="362" type="line"/>
			<point x="379" y="398"/>
			<point x="324" y="441"/>
			<point name="sv01" x="279" y="441" type="qcurve"/>
			<point x="219" y="441"/>
			<point x="158" y="366"/>
			<point x="158" y="306" type="qcurve"/>
			<point x="158" y="213" type="line"/>
			<point x="158" y="153"/>
			<point x="219" y="78"/>
			<point name="sv02" x="279" y="78" type="qcurve"/>
			<point x="327" y="78"/>
			<point x="384" y="125"/>
			<point x="401" y="164" type="qcurve"/>
			<point x="484" y="120" type="line"/>
			<point x="458" y="56"/>
			<point x="354" y="-12"/>
		</contour>
	</outline>
	<anchor name="bottom" x="270" y="0"/>
	<anchor name="top" x="275" y="540"/>
</glyph>
<glyph name="e" format="2">
	<unicode hex="0065"/>
	<advance width="556"/>
	<outline>
		<contour>
			<point name="ih01" x="282" y="-12" type="qcurve"/>
			<point x="226" y="-12"/>
			<point x="138" y="26"/>
			<point x="76" y="97"/>
			<point x="43" y="198"/>
			<point x="43" y="260" type="qcurve"/>
			<point x="43" y="322"/>
			<point x="76" y="423"/>
			<point x="138" y="494"/>
			<point x="226" y="532"/>
			<point name="at01" x="282" y="532" type="qcurve"/>
			<point x="339" y="532"/>
			<point x="426" y="492"/>
			<point x="484" y="421"/>
			<point x="513" y="327"/>
			<point x="513" y="273" type="qcurve"/>
			<point x="513" y="232" type="line"/>
			<point name="sv02" x="156" y="232" type="line"/>
			<point x="156" y="215" type="line"/>
			<point x="156" y="155"/>
			<point x="227" y="78"/>
			<point name="sv01" x="293" y="78" type="qcurve"/>
			<point x="341" y="78"/>
			<point x="407" y="120"/>
			<point name="iv02" x="430" y="156" type="qcurve"/>
			<point x="494" y="93" type="line"/>
			<point x="465" y="45"/>
			<point x="355" y="-12"/>
		</contour>
		<contour>
			<point name="sh01" x="282" y="447" type="qcurve"/>
			<point x="254" y="447"/>
			<point x="207" y="427"/>
			<point x="174" y="391"/>
			<point x="156" y="341"/>
			<point x="156" y="311" type="qcurve"/>
			<point name="iv01" x="156" y="304" type="line"/>
			<point x="398" y="304" type="line"/>
			<point x="398" y="314" type="line"/>
			<point x="398" y="374"/>
			<point x="336" y="447"/>
		</contour>
	</outline>
	<anchor name="bottom" x="283" y="0"/>
	<anchor name="bottomright" x="369" y="0"/>
	<anchor name="top" x="282" y="540"/>
</glyph>
<glyph name="g" format="2">
	<unicode hex="0067"/>
	<advance width="537"/>
	<outline>
		<contour>
			<point name="hr00" x="534" y="-49" type="qcurve"/>
			<point x="534" y="-130"/>
			<point x="410" y="-212"/>
			<point name="ab01" x="270" y="-212" type="qcurve"/>
			<point x="206" y="-212"/>
			<point x="117" y="-195"/>
			<point x="60" y="-163"/>
			<point x="34" y="-117"/>
			<point x="34" y="-87" type="qcurve"/>
			<point x="34" y="-44"/>
			<point x="81" y="4"/>
			<point x="123" y="13" type="qcurve"/>
			<point name="iv02" x="123" y="24" type="line"/>
			<point x="64" y="43"/>
			<point x="64" y="104" type="qcurve"/>
			<point x="64" y="144"/>
			<point x="118" y="187"/>
			<point x="156" y="196" type="qcurve"/>
			<point name="iv03" x="156" y="200" type="line"/>
			<point x="110" y="222"/>
			<point x="61" y="301"/>
			<point x="61" y="354" type="qcurve"/>
			<point x="61" y="434"/>
			<point x="168" y="532"/>
			<point name="ih01" x="268" y="532" type="qcurve"/>
			<point x="323" y="532"/>
			<point x="362" y="516" type="qcurve"/>
			<point x="362" y="530" type="line"/>
			<point x="362" y="565"/>
			<point x="395" y="604"/>
			<point name="dv02" x="430" y="604" type="qcurve"/>
			<point x="510" y="604" type="line"/>
			<point x="510" y="516" type="line"/>
			<point name="dv01" x="404" y="516" type="line"/>
			<point x="404" y="495" type="line"/>
			<point x="439" y="472"/>
			<point x="477" y="399"/>
			<point x="477" y="354" type="qcurve"/>
			<point x="477" y="275"/>
			<point x="369" y="178"/>
			<point name="sv03" x="269" y="178" type="qcurve"/>
			<point x="231" y="178"/>
			<point x="201" y="186" type="qcurve"/>
			<point x="181" y="179"/>
			<point x="151" y="154"/>
			<point x="151" y="134" type="qcurve"/>
			<point x="151" y="113"/>
			<point x="189" y="95"/>
			<point name="sv02" x="224" y="95" type="qcurve"/>
			<point x="352" y="95" type="line"/>
			<point x="448" y="95"/>
			<point x="534" y="18"/>
		</contour>
		<contour>
			<point x="432" y="-61" type="qcurve"/>
			<point x="432" y="-34"/>
			<point x="391" y="-2"/>
			<point x="337" y="-2" type="qcurve"/>
			<point name="iv01" x="161" y="-2" type="line"/>
			<point x="125" y="-23"/>
			<point x="125" y="-62" type="qcurve"/>
			<point x="125" y="-94"/>
			<point x="176" y="-133"/>
			<point name="sh01" x="237" y="-133" type="qcurve"/>
			<point x="305" y="-133" type="line"/>
			<point x="432" y="-133"/>
		</contour>
		<contour>
			<point name="sh02" x="269" y="257" type="qcurve"/>
			<point x="317" y="257"/>
			<point x="370" y="300"/>
			<point x="370" y="345" type="qcurve"/>
			<point x="370" y="365" type="line"/>
			<point x="370" y="410"/>
			<point x="317" y="453"/>
			<point name="sv01" x="269" y="453" type="qcurve"/>
			<point x="221" y="453"/>
			<point x="168" y="410"/>
			<point x="168" y="365" type="qcurve"/>
			<point x="168" y="345" type="line"/>
			<point x="168" y="300"/>
			<point x="221" y="257"/>
		</contour>
	</outline>
	<anchor name="top" x="269" y="540"/>
</glyph>
<glyph name="i" format="2">
	<unicode hex="0069"/>
	<advance width="265"/>
	<outline>
		<contour>
			<point name="ih01" x="133" y="613" type="qcurve"/>
			<point x="99" y="613"/>
			<point x="68" y="645"/>
			<point x="68" y="670" type="qcurve"/>
			<point x="68" y="687" type="line"/>
			<point x="68" y="712"/>
			<point x="99" y="744"/>
			<point name="at02" x="133" y="744" type="qcurve"/>
			<point x="167" y="744"/>
			<point x="197" y="712"/>
			<point x="197" y="687" type="qcurve"/>
			<point x="197" y="670" type="line"/>
			<point x="197" y="645"/>
			<point x="167" y="613"/>
		</contour>
		<contour>
			<point name="at01" x="78" y="520" type="line"/>
			<point x="187" y="520" type="line"/>
			<point x="187" y="0" type="line"/>
			<point name="sh01" x="78" y="0" type="line"/>
		</contour>
	</outline>
	<anchor name="bottom" x="133" y="0"/>
	<anchor name="bottomright" x="187" y="0"/>
</glyph>
<glyph name="j" format="2">
	<unicode hex="006A"/>
	<advance width="265"/>
	<outline>
		<contour>
			<point name="at01" x="78" y="520" type="line"/>
			<point x="187" y="520" type="line"/>
			<point x="187" y="-70" type="line"/>
			<point x="187" y="-130"/>
			<point x="126" y="-200"/>
			<point x="60" y="-200" type="qcurve"/>
			<point name="ab01" x="-3" y="-200" type="line"/>
			<point name="sv01" x="-3" y="-111" type="line"/>
			<point name="sh01" x="78" y="-111" type="line"/>
		</contour>
		<contour>
			<point name="ih01" x="133" y="613" type="qcurve"/>
			<point x="99" y="613"/>
			<point x="68" y="645"/>
			<point x="68" y="670" type="qcurve"/>
			<point x="68" y="687" type="line"/>
			<point x="68" y="712"/>
			<point x="99" y="744"/>
			<point name="at02" x="133" y="744" type="qcurve"/>
			<point x="167" y="744"/>
			<point x="197" y="712"/>
			<point x="197" y="687" type="qcurve"/>
			<point x="197" y="670" type="line"/>
			<point x="197" y="645"/>
			<point x="167" y="613"/>
		</contour>
	</outline>
</glyph>
<glyph name="k" format="2">
	<unicode hex="006B"/>
	<advance width="547"/>
	<outline>
		<contour>
			<point name="at02" x="78" y="740" type="line"/>
			<point x="187" y="740" type="line"/>
			<point name="iv01" x="187" y="286" type="line"/>
			<point x="192" y="286" type="line"/>
			<point name="ih01" x="264" y="379" type="line"/>
			<point name="at01" x="389" y="520" type="line"/>
			<point x="516" y="520" type="line"/>
			<point x="334" y="319" type="line"/>
			<point x="538" y="0" type="line"/>
			<point name="ab02" x="408" y="0" type="line"/>
			<point x="259" y="248" type="line"/>
			<point name="sv01" x="187" y="170" type="line"/>
			<point x="187" y="0" type="line"/>
			<point name="ab01" x="78" y="0" type="line"/>
		</contour>
	</outline>
	<anchor name="bottom" x="306" y="0"/>
</glyph>
<glyph name="l" format="2">
	<unicode hex="006C"/>
	<advance width="285"/>
	<outline>
		<contour>
			<point name="ab01" x="189" y="0" type="line"/>
			<point x="133" y="0"/>
			<point x="78" y="57"/>
			<point x="78" y="108" type="qcurve"/>
			<point name="at01" x="78" y="740" type="line"/>
			<point x="187" y="740" type="line"/>
			<point name="ih01" x="187" y="89" type="line"/>
			<point x="259" y="89" type="line"/>
			<point x="259" y="0" type="line"/>
		</contour>
	</outline>
	<anchor name="bottom" x="169" y="0"/>
	<anchor name="top" x="133" y="740"/>
	<anchor name="topright" x="248" y="740"/>
</glyph>
<glyph name="m" format="2">
	<unicode hex="006D"/>
	<advance width="882"/>
	<outline>
		<contour>
			<point name="ab01" x="78" y="0" type="line"/>
			<point name="at01" x="78" y="520" type="line"/>
			<point x="187" y="520" type="line"/>
			<point x="187" y="434" type="line"/>
			<point name="iv01" x="192" y="434" type="line"/>
			<point x="200" y="454"/>
			<point x="223" y="490"/>
			<point x="256" y="517"/>
			<point x="301" y="532"/>
			<point name="at02" x="331" y="532" type="qcurve"/>
			<point x="384" y="532"/>
			<point x="466" y="480"/>
			<point name="ih01" x="485" y="426" type="qcurve"/>
			<point name="iv02" x="488" y="426" type="line"/>
			<point x="502" y="470"/>
			<point x="582" y="532"/>
			<point name="at03" x="645" y="532" type="qcurve"/>
			<point x="723" y="532"/>
			<point x="809" y="427"/>
			<point x="809" y="330" type="qcurve"/>
			<point x="809" y="0" type="line"/>
			<point name="ab03" x="700" y="0" type="line"/>
			<point x="700" y="317" type="line"/>
			<point x="700" y="377"/>
			<point x="654" y="438"/>
			<point name="sv02" x="604" y="438" type="qcurve"/>
			<point x="583" y="438"/>
			<point x="545" y="427"/>
			<point x="516" y="405"/>
			<point x="498" y="371"/>
			<point x="498" y="349" type="qcurve"/>
			<point x="498" y="0" type="line"/>
			<point name="ab02" x="389" y="0" type="line"/>
			<point x="389" y="317" type="line"/>
			<point x="389" y="438"/>
			<point name="sv01" x="294" y="438" type="qcurve"/>
			<point x="274" y="438"/>
			<point x="235" y="427"/>
			<point x="205" y="405"/>
			<point x="187" y="371"/>
			<point x="187" y="349" type="qcurve"/>
			<point x="187" y="0" type="line"/>
		</contour>
	</outline>
	<anchor name="bottom" x="443" y="0"/>
	<anchor name="top" x="443" y="540"/>
</glyph>
<glyph name="n" format="2">
	<unicode hex="006E"/>
	<advance width="580"/>
	<outline>
		<contour>
			<point name="ab01" x="78" y="0" type="line"/>
			<point name="at01" x="78" y="520" type="line"/>
			<point x="187" y="520" type="line"/>
			<point x="187" y="434" type="line"/>
			<point name="iv01" x="192" y="434" type="line"/>
			<point x="209" y="476"/>
			<point x="278" y="532"/>
			<point name="at02" x="338" y="532" type="qcurve"/>
			<point x="418" y="532"/>
			<point x="507" y="427"/>
			<point x="507" y="330" type="qcurve"/>
			<point x="507" y="0" type="line"/>
			<point name="ab02" x="398" y="0" type="line"/>
			<point x="398" y="316" type="line"/>
			<point x="398" y="438"/>
			<point name="ih01" x="300" y="438" type="qcurve"/>
			<point x="279" y="438"/>
			<point x="238" y="427"/>
			<point x="206" y="405"/>
			<point x="187" y="371"/>
			<point x="187" y="348" type="qcurve"/>
			<point x="187" y="0" type="line"/>
		</contour>
	</outline>
	<anchor name="bottom" x="293" y="0"/>
	<anchor name="top" x="293" y="540"/>
</glyph>
<glyph name="o" format="2">
	<unicode hex="006F"/>
	<advance width="564"/>
	<outline>
		<contour>
			<point name="ih01" x="282" y="-12" type="qcurve"/>
			<point x="228" y="-12"/>
			<point x="139" y="26"/>
			<point x="77" y="97"/>
			<point x="43" y="198"/>
			<point x="43" y="260" type="qcurve"/>
			<point x="43" y="322"/>
			<point x="77" y="423"/>
			<point x="139" y="494"/>
			<point x="228" y="532"/>
			<point name="at01" x="282" y="532" type="qcurve"/>
			<point x="336" y="532"/>
			<point x="425" y="494"/>
			<point x="487" y="423"/>
			<point x="521" y="322"/>
			<point x="521" y="260" type="qcurve"/>
			<point x="521" y="198"/>
			<point x="487" y="97"/>
			<point x="425" y="26"/>
			<point x="336" y="-12"/>
		</contour>
		<contour>
			<point name="sh01" x="282" y="78" type="qcurve"/>
			<point x="338" y="78"/>
			<point x="406" y="147"/>
			<point x="406" y="216" type="qcurve"/>
			<point x="406" y="304" type="line"/>
			<point x="406" y="373"/>
			<point x="338" y="442"/>
			<point name="sv01" x="282" y="442" type="qcurve"/>
			<point x="226" y="442"/>
			<point x="158" y="373"/>
			<point x="158" y="304" type="qcurve"/>
			<point x="158" y="216" type="line"/>
			<point x="158" y="147"/>
			<point x="226" y="78"/>
		</contour>
	</outline>
	<anchor name="bottom" x="280" y="0"/>
	<anchor name="top" x="280" y="540"/>
</glyph>
<glyph name="r" format="2">
	<unicode hex="0072"/>
	<advance width="383"/>
	<outline>
		<contour>
			<point name="ab01" x="78" y="0" type="line"/>
			<point name="at01" x="78" y="520" type="line"/>
			<point x="187" y="520" type="line"/>
			<point x="187" y="420" type="line"/>
			<point name="ih01" x="192" y="420" type="line"/>
			<point x="203" y="460"/>
			<point x="273" y="520"/>
			<point name="at02" x="335" y="520" type="qcurve"/>
			<point x="364" y="520" type="line"/>
			<point x="364" y="415" type="line"/>
			<point name="sv01" x="321" y="415" type="line"/>
			<point x="256" y="415"/>
			<point x="187" y="373"/>
			<point x="187" y="332" type="qcurve"/>
			<point x="187" y="0" type="line"/>
		</contour>
	</outline>
	<anchor name="bottom" x="134" y="0"/>
	<anchor name="top" x="221" y="540"/>
</glyph>
<glyph name="s" format="2">
	<unicode hex="0073"/>
	<advance width="494"/>
	<outline>
		<contour>
			<point name="ab01" x="243" y="-12" type="qcurve"/>
			<point x="169" y="-12"/>
			<point x="69" y="40"/>
			<point x="32" y="86" type="qcurve"/>
			<point name="iv02" x="102" y="150" type="line"/>
			<point x="131" y="115"/>
			<point x="202" y="76"/>
			<point name="ih01" x="249" y="76" type="qcurve"/>
			<point x="297" y="76"/>
			<point x="344" y="113"/>
			<point x="344" y="146" type="qcurve"/>
			<point x="344" y="171"/>
			<point x="311" y="206"/>
			<point x="270" y="211" type="qcurve"/>
			<point name="iv01" x="222" y="217" type="line"/>
			<point x="142" y="227"/>
			<point x="51" y="300"/>
			<point x="51" y="372" type="qcurve"/>
			<point x="51" y="410"/>
			<point x="79" y="469"/>
			<point x="130" y="510"/>
			<point x="201" y="532"/>
			<point name="at01" x="244" y="532" type="qcurve"/>
			<point x="314" y="532"/>
			<point x="403" y="488"/>
			<point x="438" y="449" type="qcurve"/>
			<point name="iv04" x="371" y="385" type="line"/>
			<point x="351" y="409"/>
			<point x="286" y="444"/>
			<point name="sv01" x="244" y="444" type="qcurve"/>
			<point x="199" y="444"/>
			<point x="156" y="408"/>
			<point x="156" y="379" type="qcurve"/>
			<point x="156" y="349"/>
			<point x="194" y="319"/>
			<point name="iv03" x="236" y="312" type="qcurve"/>
			<point x="284" y="306" type="line"/>
			<point x="370" y="293"/>
			<point x="449" y="218"/>
			<point x="449" y="155" type="qcurve"/>
			<point x="449" y="117"/>
			<point x="420" y="56"/>
			<point x="366" y="12"/>
			<point x="290" y="-12"/>
		</contour>
	</outline>
	<anchor name="bottom" x="244" y="0"/>
	<anchor name="top" x="243" y="540"/>
</glyph>
<glyph name="t" format="2">
	<unicode hex="0074"/>
	<advance width="365"/>
	<outline>
		<contour>
			<point name="ab01" x="222" y="0" type="line"/>
			<point x="165" y="0"/>
			<point x="107" y="59"/>
			<point x="107" y="113" type="qcurve"/>
			<point x="107" y="431" type="line"/>
			<point name="sv01" x="26" y="431" type="line"/>
			<point name="at01" x="26" y="520" type="line"/>
			<point x="70" y="520" type="line"/>
			<point x="97" y="520"/>
			<point x="118" y="544"/>
			<point x="118" y="571" type="qcurve"/>
			<point name="av01" x="118" y="662" type="line"/>
			<point x="216" y="662" type="line"/>
			<point name="at02" x="216" y="520" type="line"/>
			<point x="325" y="520" type="line"/>
			<point x="325" y="431" type="line"/>
			<point name="sv02" x="216" y="431" type="line"/>
			<point name="ih01" x="216" y="89" type="line"/>
			<point x="317" y="89" type="line"/>
			<point x="317" y="0" type="line"/>
		</contour>
	</outline>
	<anchor name="bottom" x="220" y="0"/>
	<anchor name="topright" x="282" y="768"/>
</glyph>
<glyph name="u" format="2">
	<unicode hex="0075"/>
	<advance width="580"/>
	<outline>
		<contour>
			<point name="hr00" x="393" y="86" type="line"/>
			<point name="iv01" x="389" y="86" type="line"/>
			<point x="382" y="67"/>
			<point x="359" y="31"/>
			<point x="324" y="4"/>
			<point x="275" y="-12"/>
			<point name="ab02" x="243" y="-12" type="qcurve"/>
			<point x="162" y="-12"/>
			<point x="73" y="92"/>
			<point x="73" y="189" type="qcurve"/>
			<point name="at01" x="73" y="520" type="line"/>
			<point x="182" y="520" type="line"/>
			<point x="182" y="203" type="line"/>
			<point x="182" y="82"/>
			<point name="ih01" x="282" y="82" type="qcurve"/>
			<point x="303" y="82"/>
			<point x="343" y="93"/>
			<point x="374" y="115"/>
			<point x="393" y="149"/>
			<point x="393" y="172" type="qcurve"/>
			<point name="at02" x="393" y="520" type="line"/>
			<point x="502" y="520" type="line"/>
			<point x="502" y="0" type="line"/>
			<point name="ab01" x="393" y="0" type="line"/>
		</contour>
	</outline>
	<anchor name="bottom" x="285" y="0"/>
	<anchor name="bottomright" x="502" y="0"/>
	<anchor name="top" x="288" y="540"/>
</glyph>
<glyph name="v" format="2">
	<unicode hex="0076"/>
	<advance width="512"/>
	<outline>
		<contour>
			<point name="ab01" x="191" y="0" type="line"/>
			<point name="at01" x="14" y="520" type="line"/>
			<point x="122" y="520" type="line"/>
			<point x="201" y="283" type="line"/>
			<point name="ih01" x="254" y="101" type="line"/>
			<point x="260" y="101" type="line"/>
			<point x="313" y="283" type="line"/>
			<point name="at02" x="394" y="520" type="line"/>
			<point x="498" y="520" type="line"/>
			<point x="319" y="0" type="line"/>
		</contour>
	</outline>
	<anchor name="bottom" x="256" y="0"/>
	<anchor name="top" x="256" y="540"/>
</glyph>
<glyph name="w" format="2">
	<unicode hex="0077"/>
	<advance width="799"/>
	<outline>
		<contour>
			<point name="at01" x="26" y="520" type="line"/>
			<point x="132" y="520" type="line"/>
			<point x="185" y="302" type="line"/>
			<point name="sv01" x="232" y="105" type="line"/>
			<point x="235" y="105" type="line"/>
			<point x="289" y="302" type="line"/>
			<point name="at02" x="352" y="520" type="line"/>
			<point x="450" y="520" type="line"/>
			<point x="514" y="302" type="line"/>
			<point name="sv02" x="569" y="105" type="line"/>
			<point x="572" y="105" type="line"/>
			<point x="618" y="302" type="line"/>
			<point name="at03" x="672" y="520" type="line"/>
			<point x="773" y="520" type="line"/>
			<point x="633" y="0" type="line"/>
			<point name="ab01" x="510" y="0" type="line"/>
			<point x="442" y="237" type="line"/>
			<point x="400" y="383" type="line"/>
			<point name="ih01" x="398" y="383" type="line"/>
			<point x="357" y="237" type="line"/>
			<point x="288" y="0" type="line"/>
			<point name="ab02" x="168" y="0" type="line"/>
		</contour>
	</outline>
	<anchor name="bottom" x="400" y="0"/>
	<anchor name="top" x="400" y="540"/>
</glyph>
<glyph name="y" format="2">
	<unicode hex="0079"/>
	<advance width="514"/>
	<outline>
		<contour>
			<point name="at02" x="397" y="520" type="line"/>
			<point x="502" y="520" type="line"/>
			<point x="283" y="-103" type="line"/>
			<point x="274" y="-129"/>
			<point x="251" y="-166"/>
			<point x="220" y="-189"/>
			<point x="176" y="-200"/>
			<point x="146" y="-200" type="qcurve"/>
			<point name="ab01" x="83" y="-200" type="line"/>
			<point name="sv01" x="83" y="-111" type="line"/>
			<point x="171" y="-111" type="line"/>
			<point name="iv01" x="201" y="-23" type="line"/>
			<point name="at01" x="12" y="520" type="line"/>
			<point x="121" y="520" type="line"/>
			<point x="225" y="214" type="line"/>
			<point name="ih01" x="255" y="101" type="line"/>
			<point x="260" y="101" type="line"/>
			<point x="293" y="214" type="line"/>
		</contour>
	</outline>
	<anchor name="bottom" x="409" y="0"/>
	<anchor name="top" x="259" y="540"/>
</glyph>
<glyph name="z" format="2">
	<unicode hex="007A"/>
	<advance width="487"/>
	<outline>
		<contour>
			<point name="ab01" x="36" y="0" type="line"/>
			<point name="sv02" x="36" y="88" type="line"/>
			<point name="ih01" x="315" y="431" type="line"/>
			<point name="sv03" x="45" y="431" type="line"/>
			<point name="at01" x="45" y="520" type="line"/>
			<point x="444" y="520" type="line"/>
			<point name="sv04" x="444" y="436" type="line"/>
			<point name="sv01" x="161" y="89" type="line"/>
			<point x="451" y="89" type="line"/>
			<point x="451" y="0" type="line"/>
		</contour>
	</outline>
	<anchor name="bottom" x="244" y="0"/>
	<anchor name="top" x="244" y="540"/>
</glyph>
<glyph name="braceleft" format="2">
	<unicode hex="007B"/>
	<advance width="354"/>
	<outline>
		<contour>
			<point name="ih01" x="204" y="-138" type="line"/>
			<point x="164" y="-138"/>
			<point x="117" y="-89"/>
			<point x="117" y="-48" type="qcurve"/>
			<point x="117" y="176" type="line"/>
			<point x="117" y="220"/>
			<point x="62" y="265"/>
			<point name="sv01" x="20" y="265" type="qcurve"/>
			<point name="sv02" x="20" y="358" type="line"/>
			<point x="62" y="358"/>
			<point x="117" y="403"/>
			<point x="117" y="446" type="qcurve"/>
			<point x="117" y="670" type="line"/>
			<point x="117" y="711"/>
			<point x="164" y="760"/>
			<point name="av01" x="204" y="760" type="qcurve"/>
			<point x="298" y="760" type="line"/>
			<point x="298" y="679" type="line"/>
			<point name="sv03" x="215" y="679" type="line"/>
			<point x="215" y="444" type="line"/>
			<point x="215" y="420"/>
			<point x="200" y="378"/>
			<point x="173" y="343"/>
			<point x="137" y="320"/>
			<point name="dv01" x="116" y="316" type="qcurve"/>
			<point name="dv02" x="116" y="306" type="line"/>
			<point x="137" y="302"/>
			<point x="173" y="279"/>
			<point x="200" y="244"/>
			<point x="215" y="202"/>
			<point x="215" y="178" type="qcurve"/>
			<point name="sv04" x="215" y="-57" type="line"/>
			<point x="298" y="-57" type="line"/>
			<point x="298" y="-138" type="line"/>
		</contour>
	</outline>
</glyph>
<glyph name="bar" format="2">
	<unicode hex="007C"/>
	<advance width="353"/>
	<outline>
		<contour>
			<point name="ih01" x="130" y="-138" type="line"/>
			<point name="av01" x="130" y="760" type="line"/>
			<point x="223" y="760" type="line"/>
			<point x="223" y="-138" type="line"/>
		</contour>
	</outline>
</glyph>
<glyph name="braceright" format="2">
	<unicode hex="007D"/>
	<advance width="356"/>
	<outline>
		<contour>
			<point name="hr00" x="150" y="760" type="line"/>
			<point x="190" y="760"/>
			<point x="239" y="711"/>
			<point x="239" y="670" type="qcurve"/>
			<point x="239" y="446" type="line"/>
			<point x="239" y="403"/>
			<point x="294" y="358"/>
			<point name="sv01" x="336" y="358" type="qcurve"/>
			<point name="sv02" x="336" y="265" type="line"/>
			<point x="294" y="265"/>
			<point x="239" y="220"/>
			<point x="239" y="176" type="qcurve"/>
			<point x="239" y="-48" type="line"/>
			<point x="239" y="-89"/>
			<point x="190" y="-138"/>
			<point name="ih01" x="150" y="-138" type="qcurve"/>
			<point name="av02" x="56" y="-138" type="line"/>
			<point name="sv03" x="56" y="-57" type="line"/>
			<point x="141" y="-57" type="line"/>
			<point x="141" y="178" type="line"/>
			<point x="141" y="202"/>
			<point x="156" y="244"/>
			<point x="182" y="279"/>
			<point x="218" y="302"/>
			<point name="dv02" x="240" y="306" type="qcurve"/>
			<point name="dv01" x="240" y="316" type="line"/>
			<point x="218" y="320"/>
			<point x="182" y="343"/>
			<point x="156" y="378"/>
			<point x="141" y="420"/>
			<point x="141" y="444" type="qcurve"/>
			<point x="141" y="679" type="line"/>
			<point name="sv04" x="56" y="679" type="line"/>
			<point name="av01" x="56" y="760" type="line"/>
		</contour>
	</outline>
</glyph>
<glyph name="asciitilde" format="2">
	<unicode hex="007E"/>
	<advance width="600"/>
	<outline>
		<contour>
			<point name="dv01" x="418" y="226" type="qcurve"/>
			<point x="381" y="226"/>
			<point x="324" y="245"/>
			<point name="ih01" x="290" y="262" type="qcurve"/>
			<point x="262" y="276"/>
			<point x="209" y="296"/>
			<point name="sv01" x="178" y="296" type="qcurve"/>
			<point x="155" y="296"/>
			<point x="120" y="282"/>
			<point name="iv01" x="97" y="266" type="qcurve"/>
			<point x="58" y="327" type="line"/>
			<point x="77" y="353"/>
			<point x="135" y="385"/>
			<point name="sv02" x="182" y="385" type="qcurve"/>
			<point x="219" y="385"/>
			<point x="276" y="366"/>
			<point x="310" y="349" type="qcurve"/>
			<point x="338" y="335"/>
			<point x="391" y="315"/>
			<point name="dv02" x="422" y="315" type="qcurve"/>
			<point x="445" y="315"/>
			<point x="480" y="329"/>
			<point name="iv02" x="503" y="345" type="qcurve"/>
			<point x="542" y="284" type="line"/>
			<point x="523" y="258"/>
			<point x="465" y="226"/>
		</contour>
	</outline>
</glyph>
<glyph name="exclamdown" format="2">
	<unicode hex="00A1"/>
	<advance width="298"/>
	<outline>
		<contour>
			<point name="av01" x="91" y="-178" type="line"/>
			<point x="91" y="21" type="line"/>
			<point name="sh01" x="124" y="320" type="line"/>
			<point x="174" y="320" type="line"/>
			<point x="209" y="21" type="line"/>
			<point x="209" y="-178" type="line"/>
		</contour>
		<contour>
			<point name="ih01" x="149" y="383" type="qcurve"/>
			<point x="111" y="383"/>
			<point x="76" y="420"/>
			<point x="76" y="449" type="qcurve"/>
			<point x="76" y="466" type="line"/>
			<point x="76" y="495"/>
			<point x="111" y="532"/>
			<point name="at01" x="149" y="532" type="qcurve"/>
			<point x="187" y="532"/>
			<point x="222" y="495"/>
			<point x="222" y="466" type="qcurve"/>
			<point x="222" y="449" type="line"/>
			<point x="222" y="420"/>
			<point x="187" y="383"/>
		</contour>
	</outline>
</glyph>
<glyph name="cent" format="2">
	<unicode hex="00A2"/>
	<advance width="529"/>
	<outline>
		<contour>
			<point name="sv01" x="235" y="-114" type="line"/>
			<point name="sh01" x="235" y="-8" type="line"/>
			<point x="144" y="7"/>
			<point x="44" y="147"/>
			<point x="44" y="258" type="qcurve"/>
			<point x="44" y="370"/>
			<point x="144" y="510"/>
			<point name="at01" x="235" y="524" type="qcurve"/>
			<point name="sv02" x="235" y="630" type="line"/>
			<point x="322" y="630" type="line"/>
			<point name="at02" x="322" y="526" type="line"/>
			<point x="384" y="518"/>
			<point x="464" y="454"/>
			<point x="485" y="406" type="qcurve"/>
			<point x="403" y="361" type="line"/>
			<point x="391" y="390"/>
			<point x="348" y="430"/>
			<point name="sv03" x="317" y="437" type="qcurve"/>
			<point name="sv04" x="317" y="79" type="line"/>
			<point x="350" y="85"/>
			<point x="399" y="127"/>
			<point x="414" y="159" type="qcurve"/>
			<point x="492" y="111" type="line"/>
			<point x="470" y="62"/>
			<point x="385" y="-3"/>
			<point name="ab01" x="322" y="-10" type="qcurve"/>
			<point x="322" y="-114" type="line"/>
		</contour>
		<contour>
			<point x="153" y="215" type="line"/>
			<point x="153" y="165"/>
			<point x="196" y="93"/>
			<point name="ih01" x="240" y="81" type="qcurve"/>
			<point name="sv05" x="240" y="435" type="line"/>
			<point x="197" y="423"/>
			<point x="153" y="352"/>
			<point x="153" y="301" type="qcurve"/>
		</contour>
	</outline>
</glyph>
<glyph name="sterling" format="2">
	<unicode hex="00A3"/>
	<advance width="589"/>
	<outline>
		<contour>
			<point name="ab01" x="75" y="0" type="line"/>
			<point x="75" y="115" type="line"/>
			<point x="116" y="133"/>
			<point x="152" y="204"/>
			<point x="152" y="246" type="qcurve"/>
			<point x="152" y="257"/>
			<point x="150" y="278"/>
			<point x="148" y="288" type="qcurve"/>
			<point name="dv02" x="49" y="288" type="line"/>
			<point name="dv01" x="49" y="379" type="line"/>
			<point x="117" y="379" type="line"/>
			<point x="108" y="408"/>
			<point x="92" y="467"/>
			<point x="92" y="502" type="qcurve"/>
			<point x="92" y="548"/>
			<point x="125" y="625"/>
			<point x="187" y="680"/>
			<point x="275" y="710"/>
			<point name="at01" x="331" y="710" type="qcurve"/>
			<point x="409" y="710"/>
			<point x="518" y="650"/>
			<point x="554" y="593" type="qcurve"/>
			<point x="471" y="534" type="line"/>
			<point x="445" y="572"/>
			<point x="378" y="612"/>
			<point name="sv01" x="331" y="612" type="qcurve"/>
			<point x="272" y="612"/>
			<point x="207" y="549"/>
			<point x="207" y="487" type="qcurve"/>
			<point x="207" y="456"/>
			<point x="221" y="405"/>
			<point name="sv02" x="229" y="379" type="qcurve"/>
			<point x="437" y="379" type="line"/>
			<point x="437" y="288" type="line"/>
			<point name="sv03" x="259" y="288" type="line"/>
			<point x="262" y="271"/>
			<point name="ih01" x="262" y="253" type="qcurve"/>
			<point x="262" y="198"/>
			<point x="215" y="121"/>
			<point x="186" y="104" type="qcurve"/>
			<point name="sv04" x="186" y="98" type="line"/>
			<point x="537" y="98" type="line"/>
			<point x="537" y="0" type="line"/>
		</contour>
	</outline>
</glyph>
<glyph name="currency" format="2">
	<unicode hex="00A4"/>
	<advance width="620"/>
	<outline>
		<contour>
			<point name="ih01" x="310" y="114" type="qcurve"/>
			<point x="269" y="114"/>
			<point x="200" y="134"/>
			<point name="iv01" x="174" y="152" type="qcurve"/>
			<point x="77" y="55" type="line"/>
			<point x="15" y="116" type="line"/>
			<point name="sv02" x="114" y="215" type="line"/>
			<point x="82" y="271"/>
			<point x="82" y="349" type="qcurve"/>
			<point x="82" y="427"/>
			<point name="sv03" x="114" y="483" type="qcurve"/>
			<point x="15" y="582" type="line"/>
			<point x="77" y="643" type="line"/>
			<point name="iv02" x="174" y="546" type="line"/>
			<point x="200" y="564"/>
			<point x="269" y="584"/>
			<point name="av01" x="310" y="584" type="qcurve"/>
			<point x="351" y="584"/>
			<point x="420" y="564"/>
			<point name="iv03" x="446" y="546" type="qcurve"/>
			<point x="543" y="643" type="line"/>
			<point x="605" y="582" type="line"/>
			<point name="sv04" x="506" y="483" type="line"/>
			<point x="538" y="427"/>
			<point x="538" y="349" type="qcurve"/>
			<point x="538" y="271"/>
			<point name="sv05" x="506" y="215" type="qcurve"/>
			<point x="605" y="116" type="line"/>
			<point x="543" y="55" type="line"/>
			<point name="iv04" x="446" y="152" type="line"/>
			<point x="420" y="134"/>
			<point x="351" y="114"/>
		</contour>
		<contour>
			<point name="sh01" x="310" y="198" type="qcurve"/>
			<point x="364" y="198"/>
			<point x="426" y="259"/>
			<point x="426" y="319" type="qcurve"/>
			<point x="426" y="379" type="line"/>
			<point x="426" y="439"/>
			<point x="364" y="500"/>
			<point name="sv01" x="310" y="500" type="qcurve"/>
			<point x="256" y="500"/>
			<point x="194" y="439"/>
			<point x="194" y="379" type="qcurve"/>
			<point x="194" y="319" type="line"/>
			<point x="194" y="259"/>
			<point x="256" y="198"/>
		</contour>
	</outline>
</glyph>
<glyph name="yen" format="2">
	<unicode hex="00A5"/>
	<advance width="622"/>
	<outline>
		<contour>
			<point name="sv03" x="368" y="140" type="line"/>
			<point x="368" y="0" type="line"/>
			<point name="ab01" x="255" y="0" type="line"/>
			<point x="255" y="140" type="line"/>
			<point name="sv02" x="83" y="140" type="line"/>
			<point name="sv01" x="83" y="217" type="line"/>
			<point x="255" y="217" type="line"/>
			<point x="255" y="301" type="line"/>
			<point name="dv02" x="83" y="301" type="line"/>
			<point name="dv01" x="83" y="378" type="line"/>
			<point x="208" y="378" type="line"/>
			<point name="at01" x="28" y="698" type="line"/>
			<point x="156" y="698" type="line"/>
			<point name="ih01" x="315" y="400" type="line"/>
			<point name="sv05" x="319" y="400" type="line"/>
			<point name="at02" x="473" y="698" type="line"/>
			<point x="595" y="698" type="line"/>
			<point name="sv06" x="416" y="378" type="line"/>
			<point x="540" y="378" type="line"/>
			<point x="540" y="301" type="line"/>
			<point name="sv04" x="368" y="301" type="line"/>
			<point name="sv07" x="368" y="217" type="line"/>
			<point x="540" y="217" type="line"/>
			<point x="540" y="140" type="line"/>
		</contour>
	</outline>
</glyph>
<glyph name="brokenbar" format="2">
	<unicode hex="00A6"/>
	<advance width="353"/>
	<outline>
		<contour>
			<point name="sh01" x="130" y="404" type="line"/>
			<point name="av01" x="130" y="760" type="line"/>
			<point x="223" y="760" type="line"/>
			<point x="223" y="404" type="line"/>
		</contour>
		<contour>
			<point name="ih01" x="130" y="-138" type="line"/>
			<point x="130" y="218" type="line"/>
			<point x="223" y="218" type="line"/>
			<point x="223" y="-138" type="line"/>
		</contour>
	</outline>
</glyph>
<glyph name="section" format="2">
	<unicode hex="00A7"/>
	<advance width="577"/>
	<outline>
		<contour>
			<point name="hr00" x="480" y="8" type="qcurve"/>
			<point x="480" y="-31"/>
			<point x="450" y="-92"/>
			<point x="395" y="-135"/>
			<point x="319" y="-158"/>
			<point name="av01" x="273" y="-158" type="qcurve"/>
			<point x="225" y="-158"/>
			<point x="131" y="-129"/>
			<point x="93" y="-95" type="qcurve"/>
			<point x="150" y="-25" type="line"/>
			<point x="175" y="-48"/>
			<point x="237" y="-73"/>
			<point name="sv01" x="275" y="-73" type="qcurve"/>
			<point x="324" y="-73"/>
			<point x="381" y="-32"/>
			<point x="381" y="4" type="qcurve"/>
			<point x="381" y="38"/>
			<point x="332" y="76"/>
			<point name="ih01" x="285" y="90" type="qcurve"/>
			<point x="216" y="110" type="line"/>
			<point x="133" y="133"/>
			<point x="64" y="214"/>
			<point x="64" y="261" type="qcurve"/>
			<point x="64" y="307"/>
			<point x="118" y="379"/>
			<point x="172" y="402" type="qcurve"/>
			<point name="iv03" x="172" y="413" type="line"/>
			<point x="138" y="436"/>
			<point x="97" y="502"/>
			<point x="97" y="547" type="qcurve"/>
			<point x="97" y="585"/>
			<point x="127" y="646"/>
			<point x="181" y="688"/>
			<point x="256" y="710"/>
			<point name="at01" x="302" y="710" type="qcurve"/>
			<point x="351" y="710"/>
			<point x="445" y="682"/>
			<point x="484" y="647" type="qcurve"/>
			<point x="426" y="578" type="line"/>
			<point x="401" y="600"/>
			<point x="340" y="626"/>
			<point name="sv02" x="300" y="626" type="qcurve"/>
			<point x="252" y="626"/>
			<point x="194" y="587"/>
			<point x="194" y="550" type="qcurve"/>
			<point x="194" y="517"/>
			<point x="243" y="479"/>
			<point name="iv01" x="291" y="465" type="qcurve"/>
			<point x="360" y="446" type="line"/>
			<point x="443" y="422"/>
			<point x="513" y="342"/>
			<point x="513" y="294" type="qcurve"/>
			<point x="513" y="248"/>
			<point x="458" y="175"/>
			<point x="404" y="153" type="qcurve"/>
			<point name="iv05" x="404" y="143" type="line"/>
			<point x="439" y="120"/>
			<point x="480" y="53"/>
		</contour>
		<contour>
			<point x="415" y="263" type="qcurve"/>
			<point x="415" y="298"/>
			<point x="369" y="347"/>
			<point x="314" y="362" type="qcurve"/>
			<point x="246" y="381" type="line"/>
			<point x="238" y="383"/>
			<point x="222" y="388"/>
			<point name="iv02" x="214" y="391" type="qcurve"/>
			<point x="189" y="371"/>
			<point x="161" y="322"/>
			<point x="161" y="292" type="qcurve"/>
			<point x="161" y="257"/>
			<point x="207" y="209"/>
			<point name="sh01" x="262" y="193" type="qcurve"/>
			<point x="330" y="175" type="line"/>
			<point x="345" y="171"/>
			<point name="iv04" x="362" y="164" type="qcurve"/>
			<point x="387" y="184"/>
			<point x="415" y="233"/>
		</contour>
	</outline>
</glyph>
<glyph name="dieresis" format="2">
	<unicode hex="00A8"/>
	<advance width="600"/>
	<outline>
		<contour>
			<point name="av01" x="200" y="610" type="qcurve"/>
			<point x="166" y="610"/>
			<point x="138" y="640"/>
			<point x="138" y="663" type="qcurve"/>
			<point x="138" y="681" type="line"/>
			<point x="138" y="704"/>
			<point x="166" y="734"/>
			<point name="sv01" x="200" y="734" type="qcurve"/>
			<point x="234" y="734"/>
			<point x="262" y="704"/>
			<point x="262" y="681" type="qcurve"/>
			<point name="ih01" x="262" y="663" type="line"/>
			<point x="262" y="640"/>
			<point x="234" y="610"/>
		</contour>
		<contour>
			<point name="sv02" x="400" y="610" type="qcurve"/>
			<point x="366" y="610"/>
			<point x="338" y="640"/>
			<point name="sh01" x="338" y="663" type="qcurve"/>
			<point x="338" y="681" type="line"/>
			<point x="338" y="704"/>
			<point x="366" y="734"/>
			<point name="sv03" x="400" y="734" type="qcurve"/>
			<point x="434" y="734"/>
			<point x="462" y="704"/>
			<point x="462" y="681" type="qcurve"/>
			<point x="462" y="663" type="line"/>
			<point x="462" y="640"/>
			<point x="434" y="610"/>
		</contour>
	</outline>
	<anchor name="_top" x="300" y="540"/>
</glyph>
<glyph name="copyright" format="2">
	<unicode hex="00A9"/>
	<advance width="782"/>
	<outline>
		<contour>
			<point name="ih01" x="391" y="-11" type="qcurve"/>
			<point x="319" y="-11"/>
			<point x="194" y="39"/>
			<point x="103" y="132"/>
			<point x="51" y="266"/>
			<point x="51" y="349" type="qcurve"/>
			<point x="51" y="432"/>
			<point x="103" y="566"/>
			<point x="194" y="659"/>
			<point x="319" y="709"/>
			<point name="at01" x="391" y="709" type="qcurve"/>
			<point x="463" y="709"/>
			<point x="588" y="659"/>
			<point x="679" y="566"/>
			<point x="731" y="432"/>
			<point x="731" y="349" type="qcurve"/>
			<point x="731" y="266"/>
			<point x="679" y="132"/>
			<point x="588" y="39"/>
			<point x="463" y="-11"/>
		</contour>
		<contour>
			<point name="sh01" x="391" y="50" type="qcurve"/>
			<point x="450" y="50"/>
			<point x="549" y="91"/>
			<point x="620" y="162"/>
			<point x="660" y="260"/>
			<point x="660" y="317" type="qcurve"/>
			<point x="660" y="381" type="line"/>
			<point x="660" y="438"/>
			<point x="620" y="536"/>
			<point x="549" y="607"/>
			<point x="450" y="648"/>
			<point name="sv01" x="391" y="648" type="qcurve"/>
			<point x="332" y="648"/>
			<point x="233" y="607"/>
			<point x="162" y="536"/>
			<point x="122" y="438"/>
			<point x="122" y="381" type="qcurve"/>
			<point x="122" y="317" type="line"/>
			<point x="122" y="260"/>
			<point x="162" y="162"/>
			<point x="233" y="91"/>
			<point x="332" y="50"/>
		</contour>
		<contour>
			<point name="sh02" x="399" y="146" type="qcurve"/>
			<point x="312" y="146"/>
			<point x="216" y="256"/>
			<point x="216" y="349" type="qcurve"/>
			<point x="216" y="442"/>
			<point x="312" y="552"/>
			<point name="sv02" x="399" y="552" type="qcurve"/>
			<point x="459" y="552"/>
			<point x="533" y="498"/>
			<point x="552" y="454" type="qcurve"/>
			<point name="iv01" x="477" y="415" type="line"/>
			<point x="466" y="441"/>
			<point x="430" y="472"/>
			<point name="sv03" x="399" y="472" type="qcurve"/>
			<point x="360" y="472"/>
			<point x="318" y="423"/>
			<point x="318" y="384" type="qcurve"/>
			<point x="318" y="313" type="line"/>
			<point x="318" y="274"/>
			<point x="360" y="225"/>
			<point name="sv04" x="399" y="225" type="qcurve"/>
			<point x="431" y="225"/>
			<point x="471" y="258"/>
			<point name="iv02" x="485" y="284" type="qcurve"/>
			<point x="559" y="245" type="line"/>
			<point x="540" y="203"/>
			<point x="463" y="146"/>
		</contour>
	</outline>
	<guideline x="0" y="349" angle="0"/>
</glyph>
<glyph name="ordfeminine" format="2">
	<unicode hex="00AA"/>
	<advance width="420"/>
	<outline>
		<contour>
			<point name="hr00" x="379" y="342" type="line"/>
			<point name="sv02" x="334" y="342" type="line"/>
			<point x="307" y="342"/>
			<point x="269" y="369"/>
			<point x="267" y="400" type="qcurve"/>
			<point name="iv02" x="263" y="400" type="line"/>
			<point x="252" y="372"/>
			<point x="198" y="336"/>
			<point name="iv01" x="154" y="336" type="qcurve"/>
			<point x="102" y="336"/>
			<point x="43" y="391"/>
			<point x="43" y="439" type="qcurve"/>
			<point x="43" y="494"/>
			<point x="121" y="546"/>
			<point name="iv03" x="196" y="546" type="qcurve"/>
			<point x="261" y="546" type="line"/>
			<point x="261" y="569" type="line"/>
			<point x="261" y="642"/>
			<point name="sv01" x="191" y="642" type="qcurve"/>
			<point x="158" y="642"/>
			<point x="114" y="614"/>
			<point name="iv04" x="102" y="593" type="qcurve"/>
			<point x="54" y="634" type="line"/>
			<point x="70" y="662"/>
			<point x="141" y="704"/>
			<point name="ih01" x="198" y="704" type="qcurve"/>
			<point x="264" y="704"/>
			<point x="341" y="637"/>
			<point x="341" y="573" type="qcurve"/>
			<point name="sv04" x="341" y="407" type="line"/>
			<point x="379" y="407" type="line"/>
		</contour>
		<contour>
			<point name="sh01" x="196" y="496" type="line"/>
			<point x="122" y="496"/>
			<point x="122" y="451" type="qcurve"/>
			<point x="122" y="439" type="line"/>
			<point x="122" y="416"/>
			<point x="152" y="395"/>
			<point name="sv03" x="179" y="395" type="qcurve"/>
			<point x="212" y="395"/>
			<point x="261" y="425"/>
			<point x="261" y="454" type="qcurve"/>
			<point x="261" y="496" type="line"/>
		</contour>
	</outline>
</glyph>
<glyph name="logicalnot" format="2">
	<unicode hex="00AC"/>
	<advance width="600"/>
	<outline>
		<contour>
			<point name="ih01" x="442" y="78" type="line"/>
			<point x="442" y="261" type="line"/>
			<point name="dv02" x="45" y="261" type="line"/>
			<point name="dv01" x="45" y="350" type="line"/>
			<point x="533" y="350" type="line"/>
			<point x="533" y="78" type="line"/>
		</contour>
	</outline>
</glyph>
<glyph name="registered" format="2">
	<unicode hex="00AE"/>
	<advance width="472"/>
	<outline>
		<contour>
			<point name="ih01" x="236" y="298" type="qcurve"/>
			<point x="194" y="298"/>
			<point x="121" y="329"/>
			<point x="67" y="385"/>
			<point x="36" y="460"/>
			<point x="36" y="504" type="qcurve"/>
			<point x="36" y="548"/>
			<point x="67" y="623"/>
			<point x="121" y="679"/>
			<point x="194" y="710"/>
			<point name="at01" x="236" y="710" type="qcurve"/>
			<point x="278" y="710"/>
			<point x="351" y="679"/>
			<point x="405" y="623"/>
			<point x="436" y="548"/>
			<point x="436" y="504" type="qcurve"/>
			<point x="436" y="460"/>
			<point x="405" y="385"/>
			<point x="351" y="329"/>
			<point x="278" y="298"/>
		</contour>
		<contour>
			<point name="sh01" x="236" y="341" type="qcurve"/>
			<point x="269" y="341"/>
			<point x="325" y="364"/>
			<point x="366" y="405"/>
			<point x="389" y="459"/>
			<point x="389" y="491" type="qcurve"/>
			<point x="389" y="517" type="line"/>
			<point x="389" y="548"/>
			<point x="366" y="603"/>
			<point x="325" y="644"/>
			<point x="269" y="667"/>
			<point name="sv01" x="236" y="667" type="qcurve"/>
			<point x="203" y="667"/>
			<point x="147" y="644"/>
			<point x="106" y="603"/>
			<point x="83" y="548"/>
			<point x="83" y="517" type="qcurve"/>
			<point x="83" y="491" type="line"/>
			<point x="83" y="459"/>
			<point x="106" y="405"/>
			<point x="147" y="364"/>
			<point x="203" y="341"/>
		</contour>
		<contour>
			<point x="206" y="398" type="line"/>
			<point name="iv01" x="155" y="398" type="line"/>
			<point name="iv02" x="155" y="607" type="line"/>
			<point x="250" y="607" type="line"/>
			<point x="285" y="607"/>
			<point x="321" y="570"/>
			<point x="321" y="541" type="qcurve"/>
			<point x="321" y="516"/>
			<point x="300" y="485"/>
			<point name="iv04" x="283" y="478" type="qcurve"/>
			<point x="330" y="398" type="line"/>
			<point name="sv04" x="274" y="398" type="line"/>
			<point name="sh02" x="235" y="470" type="line"/>
			<point name="sv03" x="206" y="470" type="line"/>
		</contour>
		<contour>
			<point name="sh03" x="244" y="508" type="line"/>
			<point x="269" y="508"/>
			<point x="269" y="530" type="qcurve"/>
			<point x="269" y="545" type="line"/>
			<point x="269" y="567"/>
			<point x="244" y="567" type="qcurve"/>
			<point name="sv02" x="206" y="567" type="line"/>
			<point name="iv03" x="206" y="508" type="line"/>
		</contour>
	</outline>
</glyph>
<glyph name="macron" format="2">
	<unicode hex="00AF"/>
	<advance width="600"/>
	<outline>
		<contour>
			<point name="sv01" x="154" y="714" type="line"/>
			<point x="446" y="714" type="line"/>
			<point x="446" y="631" type="line"/>
			<point name="ih01" x="154" y="631" type="line"/>
		</contour>
	</outline>
	<anchor name="_top" x="300" y="540"/>
</glyph>
<glyph name="degree" format="2">
	<unicode hex="00B0"/>
	<advance width="470"/>
	<outline>
		<contour>
			<point name="ih01" x="235" y="352" type="qcurve"/>
			<point x="197" y="352"/>
			<point x="133" y="379"/>
			<point x="86" y="427"/>
			<point x="59" y="493"/>
			<point x="59" y="531" type="qcurve"/>
			<point x="59" y="569"/>
			<point x="86" y="635"/>
			<point x="133" y="683"/>
			<point x="197" y="710"/>
			<point name="at01" x="235" y="710" type="qcurve"/>
			<point x="272" y="710"/>
			<point x="337" y="683"/>
			<point x="384" y="635"/>
			<point x="411" y="569"/>
			<point x="411" y="531" type="qcurve"/>
			<point x="411" y="493"/>
			<point x="384" y="427"/>
			<point x="337" y="379"/>
			<point x="272" y="352"/>
		</contour>
		<contour>
			<point name="sh01" x="235" y="430" type="qcurve"/>
			<point x="278" y="430"/>
			<point x="327" y="488"/>
			<point x="327" y="531" type="qcurve"/>
			<point x="327" y="574"/>
			<point x="278" y="632"/>
			<point name="sv01" x="235" y="632" type="qcurve"/>
			<point x="192" y="632"/>
			<point x="143" y="574"/>
			<point x="143" y="531" type="qcurve"/>
			<point x="143" y="488"/>
			<point x="192" y="430"/>
		</contour>
	</outline>
</glyph>
<glyph name="plusminus" format="2">
	<unicode hex="00B1"/>
	<advance width="600"/>
	<outline>
		<contour>
			<point name="ih01" x="251" y="167" type="line"/>
			<point x="251" y="351" type="line"/>
			<point name="dv02" x="67" y="351" type="line"/>
			<point name="dv01" x="67" y="440" type="line"/>
			<point x="251" y="440" type="line"/>
			<point x="251" y="625" type="line"/>
			<point x="349" y="625" type="line"/>
			<point name="sv02" x="349" y="440" type="line"/>
			<point x="533" y="440" type="line"/>
			<point x="533" y="351" type="line"/>
			<point name="sv03" x="349" y="351" type="line"/>
			<point x="349" y="167" type="line"/>
		</contour>
		<contour>
			<point name="sh01" x="67" y="0" type="line"/>
			<point name="sv01" x="67" y="89" type="line"/>
			<point x="533" y="89" type="line"/>
			<point x="533" y="0" type="line"/>
		</contour>
	</outline>
</glyph>
<glyph name="twosuperior" format="2">
	<unicode hex="00B2"/>
	<advance width="346"/>
	<outline>
		<contour>
			<point name="hr00" x="315" y="329" type="line"/>
			<point name="ab01" x="36" y="329" type="line"/>
			<point x="36" y="399" type="line"/>
			<point name="iv01" x="157" y="495" type="line"/>
			<point x="190" y="521"/>
			<point x="221" y="561"/>
			<point x="221" y="586" type="qcurve"/>
			<point x="221" y="590" type="line"/>
			<point x="221" y="614"/>
			<point x="190" y="638"/>
			<point name="sv02" x="165" y="638" type="qcurve"/>
			<point x="135" y="638"/>
			<point x="105" y="608"/>
			<point x="97" y="585" type="qcurve"/>
			<point x="28" y="611" type="line"/>
			<point x="42" y="649"/>
			<point x="110" y="704"/>
			<point name="ih01" x="172" y="704" type="qcurve"/>
			<point x="236" y="704"/>
			<point x="306" y="642"/>
			<point x="306" y="593" type="qcurve"/>
			<point x="306" y="570"/>
			<point x="290" y="530"/>
			<point x="262" y="496"/>
			<point x="224" y="465"/>
			<point name="iv02" x="203" y="450" type="qcurve"/>
			<point name="sv01" x="122" y="393" type="line"/>
			<point x="315" y="393" type="line"/>
		</contour>
	</outline>
</glyph>
<glyph name="threesuperior" format="2">
	<unicode hex="00B3"/>
	<advance width="345"/>
	<outline>
		<contour>
			<point name="sv03" x="153" y="551" type="line"/>
			<point x="186" y="551"/>
			<point x="218" y="575"/>
			<point x="218" y="592" type="qcurve"/>
			<point x="218" y="596" type="line"/>
			<point x="218" y="616"/>
			<point x="187" y="642"/>
			<point name="sv01" x="161" y="642" type="qcurve"/>
			<point x="135" y="642"/>
			<point x="94" y="618"/>
			<point x="79" y="597" type="qcurve"/>
			<point x="28" y="642" type="line"/>
			<point x="49" y="670"/>
			<point x="113" y="704"/>
			<point name="ih01" x="164" y="704" type="qcurve"/>
			<point x="227" y="704"/>
			<point x="302" y="651"/>
			<point x="302" y="606" type="qcurve"/>
			<point x="302" y="571"/>
			<point x="257" y="528"/>
			<point name="iv02" x="225" y="523" type="qcurve"/>
			<point x="225" y="520" type="line"/>
			<point x="260" y="514"/>
			<point x="308" y="470"/>
			<point x="308" y="432" type="qcurve"/>
			<point x="308" y="382"/>
			<point x="227" y="323"/>
			<point name="ab01" x="159" y="323" type="qcurve"/>
			<point x="100" y="323"/>
			<point x="34" y="365"/>
			<point x="15" y="393" type="qcurve"/>
			<point x="74" y="437" type="line"/>
			<point x="88" y="414"/>
			<point x="127" y="385"/>
			<point name="sv02" x="159" y="385" type="qcurve"/>
			<point x="191" y="385"/>
			<point x="225" y="413"/>
			<point x="225" y="437" type="qcurve"/>
			<point x="225" y="442" type="line"/>
			<point x="225" y="465"/>
			<point x="187" y="487"/>
			<point name="iv01" x="154" y="487" type="qcurve"/>
			<point x="115" y="487" type="line"/>
			<point x="115" y="551" type="line"/>
		</contour>
	</outline>
</glyph>
<glyph name="acute" format="2">
	<unicode hex="00B4"/>
	<advance width="600"/>
	<outline>
		<contour>
			<point name="ih01" x="311" y="582" type="line"/>
			<point x="243" y="615" type="line"/>
			<point x="334" y="795" type="line"/>
			<point x="429" y="749" type="line"/>
		</contour>
	</outline>
	<anchor name="_top" x="300" y="540"/>
</glyph>
<glyph name="mu" format="2">
	<unicode hex="00B5"/>
	<advance width="585"/>
	<outline>
		<contour>
			<point name="ab01" x="78" y="-200" type="line"/>
			<point name="at01" x="78" y="520" type="line"/>
			<point x="187" y="520" type="line"/>
			<point x="187" y="203" type="line"/>
			<point x="187" y="82"/>
			<point name="ih01" x="287" y="82" type="qcurve"/>
			<point x="308" y="82"/>
			<point x="348" y="93"/>
			<point x="379" y="115"/>
			<point x="398" y="149"/>
			<point x="398" y="172" type="qcurve"/>
			<point name="at02" x="398" y="520" type="line"/>
			<point x="507" y="520" type="line"/>
			<point x="507" y="0" type="line"/>
			<point name="ab02" x="398" y="0" type="line"/>
			<point x="398" y="86" type="line"/>
			<point name="iv01" x="394" y="86" type="line"/>
			<point x="387" y="67"/>
			<point x="365" y="31"/>
			<point x="333" y="4"/>
			<point x="290" y="-12"/>
			<point name="ab03" x="263" y="-12" type="qcurve"/>
			<point x="198" y="-12"/>
			<point x="175" y="36" type="qcurve"/>
			<point name="iv02" x="171" y="36" type="line"/>
			<point x="187" y="-71" type="line"/>
			<point x="187" y="-200" type="line"/>
		</contour>
	</outline>
</glyph>
<glyph name="paragraph" format="2">
	<unicode hex="00B6"/>
	<advance width="663"/>
	<outline>
		<contour>
			<point name="sv02" x="244" y="282" type="line"/>
			<point x="202" y="282"/>
			<point x="129" y="315"/>
			<point x="74" y="372"/>
			<point x="43" y="447"/>
			<point x="43" y="490" type="qcurve"/>
			<point x="43" y="533"/>
			<point x="74" y="608"/>
			<point x="129" y="665"/>
			<point x="202" y="698"/>
			<point name="at01" x="244" y="698" type="qcurve"/>
			<point x="593" y="698" type="line"/>
			<point x="593" y="614" type="line"/>
			<point name="sv03" x="527" y="614" type="line"/>
			<point x="527" y="-149" type="line"/>
			<point name="sv04" x="438" y="-149" type="line"/>
			<point x="438" y="614" type="line"/>
			<point name="sv01" x="333" y="614" type="line"/>
			<point name="ih01" x="333" y="-149" type="line"/>
			<point name="av01" x="244" y="-149" type="line"/>
		</contour>
	</outline>
</glyph>
<glyph name="periodcentered" format="2">
	<unicode hex="00B7"/>
	<advance width="356"/>
	<outline>
		<contour>
			<point name="ih01" x="178" y="224" type="qcurve"/>
			<point x="136" y="224"/>
			<point x="98" y="263"/>
			<point x="98" y="292" type="qcurve"/>
			<point x="98" y="316" type="line"/>
			<point x="98" y="345"/>
			<point x="136" y="384"/>
			<point name="dv01" x="178" y="384" type="qcurve"/>
			<point x="220" y="384"/>
			<point x="258" y="345"/>
			<point x="258" y="316" type="qcurve"/>
			<point x="258" y="292" type="line"/>
			<point x="258" y="263"/>
			<point x="220" y="224"/>
		</contour>
	</outline>
</glyph>
<glyph name="cedilla" format="2">
	<unicode hex="00B8"/>
	<advance width="600"/>
	<outline>
		<contour>
			<point name="sv03" x="313" y="-209" type="qcurve"/>
			<point x="267" y="-209"/>
			<point x="214" y="-181"/>
			<point x="203" y="-167" type="qcurve"/>
			<point x="245" y="-119" type="line"/>
			<point x="254" y="-131"/>
			<point x="285" y="-148"/>
			<point name="ih01" x="308" y="-148" type="qcurve"/>
			<point x="327" y="-148"/>
			<point x="352" y="-134"/>
			<point x="352" y="-119" type="qcurve"/>
			<point x="352" y="-107"/>
			<point x="324" y="-84"/>
			<point x="281" y="-79" type="qcurve"/>
			<point name="sv02" x="256" y="-76" type="line"/>
			<point name="av01" x="276" y="24" type="line"/>
			<point x="333" y="24" type="line"/>
			<point x="316" y="-58" type="line"/>
			<point x="320" y="-62" type="line"/>
			<point x="331" y="-59"/>
			<point x="352" y="-55"/>
			<point name="sv01" x="363" y="-55" type="qcurve"/>
			<point x="392" y="-55"/>
			<point x="433" y="-88"/>
			<point x="433" y="-123" type="qcurve"/>
			<point x="433" y="-146"/>
			<point x="413" y="-178"/>
			<point x="380" y="-199"/>
			<point x="337" y="-209"/>
		</contour>
	</outline>
	<anchor name="_bottom" x="300" y="0"/>
</glyph>
<glyph name="onesuperior" format="2">
	<unicode hex="00B9"/>
	<advance width="353"/>
	<outline>
		<contour>
			<point name="hr00" x="53" y="329" type="line"/>
			<point x="53" y="391" type="line"/>
			<point name="ih01" x="155" y="391" type="line"/>
			<point x="155" y="635" type="line"/>
			<point name="sv02" x="149" y="635" type="line"/>
			<point x="72" y="548" type="line"/>
			<point x="22" y="590" type="line"/>
			<point name="at01" x="117" y="698" type="line"/>
			<point x="234" y="698" type="line"/>
			<point x="234" y="391" type="line"/>
			<point name="sv01" x="325" y="391" type="line"/>
			<point name="ab01" x="325" y="329" type="line"/>
		</contour>
	</outline>
</glyph>
<glyph name="ordmasculine" format="2">
	<unicode hex="00BA"/>
	<advance width="414"/>
	<outline>
		<contour>
			<point name="ih01" x="207" y="336" type="qcurve"/>
			<point x="129" y="336"/>
			<point x="42" y="434"/>
			<point x="42" y="520" type="qcurve"/>
			<point x="42" y="606"/>
			<point x="129" y="704"/>
			<point name="at01" x="207" y="704" type="qcurve"/>
			<point x="285" y="704"/>
			<point x="372" y="606"/>
			<point x="372" y="520" type="qcurve"/>
			<point x="372" y="434"/>
			<point x="285" y="336"/>
		</contour>
		<contour>
			<point name="sh01" x="207" y="399" type="qcurve"/>
			<point x="246" y="399"/>
			<point x="288" y="445"/>
			<point x="288" y="488" type="qcurve"/>
			<point x="288" y="552" type="line"/>
			<point x="288" y="595"/>
			<point x="246" y="641"/>
			<point name="sv01" x="207" y="641" type="qcurve"/>
			<point x="168" y="641"/>
			<point x="126" y="595"/>
			<point x="126" y="552" type="qcurve"/>
			<point x="126" y="488" type="line"/>
			<point x="126" y="445"/>
			<point x="168" y="399"/>
		</contour>
	</outline>
</glyph>
<glyph name="questiondown" format="2">
	<unicode hex="00BF"/>
	<advance width="479"/>
	<outline>
		<contour>
			<point name="ih01" x="248" y="-190" type="qcurve"/>
			<point x="199" y="-190"/>
			<point x="119" y="-162"/>
			<point x="63" y="-111"/>
			<point x="33" y="-38"/>
			<point x="33" y="6" type="qcurve"/>
			<point x="33" y="51"/>
			<point x="64" y="122"/>
			<point x="115" y="172"/>
			<point x="179" y="203"/>
			<point name="sv02" x="213" y="209" type="qcurve"/>
			<point name="sv01" x="213" y="301" type="line"/>
			<point x="317" y="301" type="line"/>
			<point name="sv03" x="317" y="142" type="line"/>
			<point x="236" y="138"/>
			<point x="149" y="77"/>
			<point x="149" y="17" type="qcurve"/>
			<point x="149" y="3" type="line"/>
			<point x="149" y="-43"/>
			<point x="205" y="-94"/>
			<point name="sv04" x="252" y="-94" type="qcurve"/>
			<point x="302" y="-94"/>
			<point x="362" y="-36"/>
			<point x="373" y="9" type="qcurve"/>
			<point x="468" y="-29" type="line"/>
			<point x="459" y="-60"/>
			<point x="424" y="-118"/>
			<point x="370" y="-163"/>
			<point x="296" y="-190"/>
		</contour>
		<contour>
			<point name="sh01" x="264" y="383" type="qcurve"/>
			<point x="226" y="383"/>
			<point x="191" y="420"/>
			<point x="191" y="449" type="qcurve"/>
			<point x="191" y="466" type="line"/>
			<point x="191" y="495"/>
			<point x="226" y="532"/>
			<point name="at01" x="264" y="532" type="qcurve"/>
			<point x="302" y="532"/>
			<point x="337" y="495"/>
			<point x="337" y="466" type="qcurve"/>
			<point x="337" y="449" type="line"/>
			<point x="337" y="420"/>
			<point x="302" y="383"/>
		</contour>
	</outline>
</glyph>
<glyph name="AE" format="2">
	<unicode hex="00C6"/>
	<advance width="933"/>
	<outline>
		<contour>
			<point name="hr00" x="426" y="188" type="line"/>
			<point name="iv01" x="208" y="188" type="line"/>
			<point x="116" y="0" type="line"/>
			<point name="ab01" x="2" y="0" type="line"/>
			<point name="at01" x="352" y="698" type="line"/>
			<point x="873" y="698" type="line"/>
			<point x="873" y="598" type="line"/>
			<point name="sv02" x="539" y="598" type="line"/>
			<point name="sv03" x="539" y="404" type="line"/>
			<point x="842" y="404" type="line"/>
			<point x="842" y="304" type="line"/>
			<point name="iv02" x="539" y="304" type="line"/>
			<point name="sv04" x="539" y="100" type="line"/>
			<point x="873" y="100" type="line"/>
			<point x="873" y="0" type="line"/>
			<point name="ih01" x="426" y="0" type="line"/>
		</contour>
		<contour>
			<point name="sv01" x="409" y="598" type="line"/>
			<point name="sv05" x="254" y="286" type="line"/>
			<point name="sh01" x="426" y="286" type="line"/>
			<point x="426" y="598" type="line"/>
		</contour>
	</outline>
	<anchor name="bottom" x="496" y="0"/>
	<anchor name="top" x="614" y="698"/>
</glyph>
<glyph name="Ccedilla" format="2">
	<unicode hex="00C7"/>
	<advance width="634"/>
	<outline>
		<contour>
			<point name="sv01" x="348" y="609" type="qcurve"/>
			<point x="267" y="609"/>
			<point x="175" y="499"/>
			<point x="175" y="402" type="qcurve"/>
			<point x="175" y="296" type="line"/>
			<point x="175" y="199"/>
			<point x="267" y="89"/>
			<point name="sv02" x="348" y="89" type="qcurve"/>
			<point x="411" y="89"/>
			<point x="490" y="154"/>
			<point x="509" y="205" type="qcurve"/>
			<point x="600" y="150" type="line"/>
			<point x="566" y="77"/>
			<point x="448" y="-8"/>
			<point name="sv03" x="362" y="-12" type="qcurve"/>
			<point x="353" y="-58" type="line"/>
			<point x="356" y="-62" type="line"/>
			<point x="367" y="-59"/>
			<point x="388" y="-55"/>
			<point name="sv04" x="399" y="-55" type="qcurve"/>
			<point x="428" y="-55"/>
			<point x="469" y="-88"/>
			<point x="469" y="-123" type="qcurve"/>
			<point x="469" y="-146"/>
			<point x="449" y="-178"/>
			<point x="416" y="-199"/>
			<point x="373" y="-209"/>
			<point name="sv06" x="349" y="-209" type="qcurve"/>
			<point x="304" y="-209"/>
			<point x="251" y="-181"/>
			<point x="239" y="-167" type="qcurve"/>
			<point x="281" y="-119" type="line"/>
			<point x="290" y="-131"/>
			<point x="321" y="-148"/>
			<point name="sv05" x="344" y="-148" type="qcurve"/>
			<point x="363" y="-148"/>
			<point x="388" y="-134"/>
			<point x="388" y="-119" type="qcurve"/>
			<point x="388" y="-107"/>
			<point x="361" y="-84"/>
			<point name="ih01" x="317" y="-79" type="qcurve"/>
			<point x="292" y="-76" type="line"/>
			<point name="ab01" x="305" y="-9" type="line"/>
			<point x="187" y="5"/>
			<point x="55" y="187"/>
			<point x="55" y="349" type="qcurve"/>
			<point x="55" y="437"/>
			<point x="95" y="571"/>
			<point x="171" y="663"/>
			<point x="280" y="710"/>
			<point name="at01" x="348" y="710" type="qcurve"/>
			<point x="439" y="710"/>
			<point x="562" y="630"/>
			<point x="597" y="552" type="qcurve"/>
			<point x="502" y="500" type="line"/>
			<point x="484" y="550"/>
			<point x="409" y="609"/>
		</contour>
	</outline>
	<anchor name="top" x="345" y="698"/>
</glyph>
<glyph name="multiply" format="2">
	<unicode hex="00D7"/>
	<advance width="600"/>
	<outline>
		<contour>
			<point name="ih01" x="300" y="238" type="line"/>
			<point x="150" y="83" type="line"/>
			<point x="86" y="146" type="line"/>
			<point x="237" y="302" type="line"/>
			<point x="86" y="458" type="line"/>
			<point name="at01" x="150" y="521" type="line"/>
			<point x="300" y="366" type="line"/>
			<point x="450" y="521" type="line"/>
			<point x="514" y="458" type="line"/>
			<point x="363" y="302" type="line"/>
			<point x="514" y="146" type="line"/>
			<point x="450" y="83" type="line"/>
		</contour>
	</outline>
</glyph>
<glyph name="Oslash" format="2">
	<unicode hex="00D8"/>
	<advance width="712"/>
	<outline>
		<contour>
			<point name="ih01" x="356" y="-12" type="qcurve"/>
			<point x="261" y="-12"/>
			<point name="iv01" x="193" y="32" type="qcurve"/>
			<point x="136" y="-50" type="line"/>
			<point x="64" y="-3" type="line"/>
			<point name="iv03" x="129" y="91" type="line"/>
			<point x="94" y="136"/>
			<point x="55" y="265"/>
			<point x="55" y="349" type="qcurve"/>
			<point x="55" y="437"/>
			<point x="98" y="572"/>
			<point x="177" y="663"/>
			<point x="288" y="710"/>
			<point name="at01" x="356" y="710" type="qcurve"/>
			<point x="451" y="710"/>
			<point name="iv04" x="519" y="666" type="qcurve"/>
			<point x="576" y="748" type="line"/>
			<point x="648" y="701" type="line"/>
			<point name="iv06" x="583" y="607" type="line"/>
			<point x="618" y="562"/>
			<point x="657" y="433"/>
			<point x="657" y="349" type="qcurve"/>
			<point x="657" y="261"/>
			<point x="614" y="126"/>
			<point x="535" y="35"/>
			<point x="424" y="-12"/>
		</contour>
		<contour>
			<point x="173" y="292" type="line"/>
			<point x="173" y="229"/>
			<point name="iv02" x="196" y="181" type="qcurve"/>
			<point name="iv07" x="464" y="580" type="line"/>
			<point x="419" y="614"/>
			<point name="sh01" x="356" y="614" type="qcurve"/>
			<point x="315" y="614"/>
			<point x="247" y="585"/>
			<point x="199" y="531"/>
			<point x="173" y="454"/>
			<point x="173" y="406" type="qcurve"/>
		</contour>
		<contour>
			<point x="539" y="406" type="line"/>
			<point x="539" y="469"/>
			<point name="iv05" x="516" y="517" type="qcurve"/>
			<point name="iv08" x="248" y="118" type="line"/>
			<point x="293" y="84"/>
			<point name="sh02" x="356" y="84" type="qcurve"/>
			<point x="397" y="84"/>
			<point x="465" y="113"/>
			<point x="513" y="167"/>
			<point x="539" y="244"/>
			<point x="539" y="292" type="qcurve"/>
		</contour>
	</outline>
	<anchor name="bottom" x="355" y="0"/>
	<anchor name="top" x="355" y="698"/>
</glyph>
<glyph name="Thorn" format="2">
	<unicode hex="00DE"/>
	<advance width="627"/>
	<outline>
		<contour>
			<point name="ab01" x="86" y="0" type="line"/>
			<point name="at01" x="86" y="698" type="line"/>
			<point x="199" y="698" type="line"/>
			<point name="sv01" x="199" y="564" type="line"/>
			<point x="386" y="564" type="line"/>
			<point x="434" y="564"/>
			<point x="509" y="534"/>
			<point x="562" y="479"/>
			<point x="589" y="401"/>
			<point x="589" y="354" type="qcurve"/>
			<point x="589" y="307"/>
			<point x="562" y="229"/>
			<point x="509" y="174"/>
			<point x="434" y="144"/>
			<point name="sh01" x="386" y="144" type="qcurve"/>
			<point name="sv02" x="199" y="144" type="line"/>
			<point x="199" y="0" type="line"/>
		</contour>
		<contour>
			<point name="sv03" x="199" y="243" type="line"/>
			<point name="ih01" x="379" y="243" type="line"/>
			<point x="422" y="243"/>
			<point x="470" y="288"/>
			<point x="470" y="330" type="qcurve"/>
			<point x="470" y="378" type="line"/>
			<point x="470" y="420"/>
			<point x="422" y="465"/>
			<point x="379" y="465" type="qcurve"/>
			<point name="sv04" x="199" y="465" type="line"/>
		</contour>
	</outline>
</glyph>
<glyph name="germandbls" format="2">
	<unicode hex="00DF"/>
	<advance width="662"/>
	<outline>
		<contour>
			<point name="hr00" x="636" y="159" type="qcurve"/>
			<point x="636" y="119"/>
			<point x="609" y="56"/>
			<point x="561" y="12"/>
			<point x="492" y="-12"/>
			<point name="ab02" x="450" y="-12" type="qcurve"/>
			<point x="388" y="-12"/>
			<point x="299" y="29"/>
			<point x="269" y="68" type="qcurve"/>
			<point name="ih01" x="335" y="132" type="line"/>
			<point x="383" y="74"/>
			<point name="sv01" x="452" y="74" type="qcurve"/>
			<point x="490" y="74"/>
			<point x="534" y="111"/>
			<point x="534" y="146" type="qcurve"/>
			<point x="534" y="175"/>
			<point x="504" y="210"/>
			<point name="iv01" x="466" y="220" type="qcurve"/>
			<point x="435" y="228" type="line"/>
			<point x="406" y="236"/>
			<point x="358" y="259"/>
			<point x="323" y="293"/>
			<point x="303" y="342"/>
			<point x="303" y="375" type="qcurve"/>
			<point x="303" y="440"/>
			<point x="390" y="517"/>
			<point name="at03" x="465" y="525" type="qcurve"/>
			<point x="465" y="529" type="line"/>
			<point x="465" y="666"/>
			<point name="sv03" x="339" y="666" type="qcurve"/>
			<point x="214" y="666"/>
			<point x="214" y="529" type="qcurve"/>
			<point x="214" y="0" type="line"/>
			<point name="ab01" x="105" y="0" type="line"/>
			<point x="105" y="431" type="line"/>
			<point name="sv04" x="26" y="431" type="line"/>
			<point name="at02" x="26" y="520" type="line"/>
			<point x="105" y="520" type="line"/>
			<point x="105" y="524" type="line"/>
			<point x="105" y="630"/>
			<point x="229" y="752"/>
			<point name="at01" x="338" y="752" type="qcurve"/>
			<point x="391" y="752"/>
			<point x="476" y="720"/>
			<point x="536" y="662"/>
			<point x="568" y="577"/>
			<point x="568" y="525" type="qcurve"/>
			<point x="568" y="449" type="line"/>
			<point name="sv02" x="517" y="449" type="line"/>
			<point x="461" y="449"/>
			<point x="405" y="419"/>
			<point x="405" y="383" type="qcurve"/>
			<point x="405" y="351"/>
			<point x="442" y="323"/>
			<point name="iv02" x="477" y="313" type="qcurve"/>
			<point x="507" y="304" type="line"/>
			<point x="573" y="287"/>
			<point x="636" y="219"/>
		</contour>
	</outline>
</glyph>
<glyph name="ae" format="2">
	<unicode hex="00E6"/>
	<advance width="865"/>
	<outline>
		<contour>
			<point name="iv01" x="264" y="232" type="line"/>
			<point x="151" y="230"/>
			<point x="151" y="161" type="qcurve"/>
			<point x="151" y="143" type="line"/>
			<point x="151" y="108"/>
			<point x="198" y="71"/>
			<point name="sv02" x="241" y="71" type="qcurve"/>
			<point x="289" y="71"/>
			<point x="356" y="116"/>
			<point name="sh01" x="356" y="154" type="qcurve"/>
			<point x="356" y="232" type="line"/>
		</contour>
		<contour>
			<point x="707" y="304" type="line"/>
			<point x="707" y="314" type="line"/>
			<point x="707" y="374"/>
			<point x="645" y="447"/>
			<point name="sv03" x="591" y="447" type="qcurve"/>
			<point x="563" y="447"/>
			<point x="516" y="427"/>
			<point x="483" y="391"/>
			<point x="465" y="341"/>
			<point x="465" y="311" type="qcurve"/>
			<point name="sh02" x="465" y="304" type="line"/>
		</contour>
		<contour>
			<point name="sv05" x="604" y="78" type="qcurve"/>
			<point x="652" y="78"/>
			<point x="719" y="120"/>
			<point name="iv02" x="740" y="155" type="qcurve"/>
			<point x="804" y="93" type="line"/>
			<point x="775" y="45"/>
			<point x="668" y="-12"/>
			<point name="ab02" x="599" y="-12" type="qcurve"/>
			<point x="560" y="-12"/>
			<point x="493" y="8"/>
			<point x="442" y="40"/>
			<point x="409" y="79"/>
			<point x="402" y="98" type="qcurve"/>
			<point name="iv03" x="396" y="98" type="line"/>
			<point x="391" y="80"/>
			<point x="362" y="41"/>
			<point x="316" y="9"/>
			<point x="250" y="-12"/>
			<point name="ab01" x="208" y="-12" type="qcurve"/>
			<point x="129" y="-12"/>
			<point x="40" y="74"/>
			<point x="40" y="143" type="qcurve"/>
			<point x="40" y="222"/>
			<point x="156" y="304"/>
			<point name="sv04" x="262" y="304" type="qcurve"/>
			<point x="356" y="304" type="line"/>
			<point x="356" y="343" type="line"/>
			<point x="356" y="391"/>
			<point x="304" y="443"/>
			<point name="sv01" x="250" y="443" type="qcurve"/>
			<point x="202" y="443"/>
			<point x="145" y="404"/>
			<point name="iv04" x="125" y="373" type="qcurve"/>
			<point x="60" y="431" type="line"/>
			<point x="86" y="475"/>
			<point x="180" y="532"/>
			<point name="at01" x="256" y="532" type="qcurve"/>
			<point x="292" y="532"/>
			<point x="344" y="514"/>
			<point x="381" y="486"/>
			<point x="404" y="451"/>
			<point name="iv05" x="412" y="434" type="qcurve"/>
			<point name="ih01" x="418" y="434" type="line"/>
			<point x="426" y="452"/>
			<point x="458" y="487"/>
			<point x="503" y="515"/>
			<point x="562" y="532"/>
			<point name="at02" x="597" y="532" type="qcurve"/>
			<point x="653" y="532"/>
			<point x="737" y="492"/>
			<point x="794" y="421"/>
			<point x="822" y="327"/>
			<point x="822" y="273" type="qcurve"/>
			<point x="822" y="232" type="line"/>
			<point name="sv06" x="465" y="232" type="line"/>
			<point x="465" y="215" type="line"/>
			<point x="465" y="155"/>
			<point x="538" y="78"/>
		</contour>
	</outline>
	<anchor name="bottom" x="422" y="0"/>
	<anchor name="top" x="422" y="540"/>
</glyph>
<glyph name="ccedilla" format="2">
	<unicode hex="00E7"/>
	<advance width="510"/>
	<outline>
		<contour>
			<point name="at01" x="279" y="532" type="qcurve"/>
			<point x="357" y="532"/>
			<point x="457" y="462"/>
			<point x="480" y="404" type="qcurve"/>
			<point x="390" y="362" type="line"/>
			<point x="379" y="398"/>
			<point x="324" y="441"/>
			<point name="sv01" x="279" y="441" type="qcurve"/>
			<point x="219" y="441"/>
			<point x="158" y="366"/>
			<point x="158" y="306" type="qcurve"/>
			<point x="158" y="213" type="line"/>
			<point x="158" y="153"/>
			<point x="219" y="78"/>
			<point name="sv02" x="279" y="78" type="qcurve"/>
			<point x="327" y="78"/>
			<point x="384" y="125"/>
			<point x="401" y="164" type="qcurve"/>
			<point x="484" y="120" type="line"/>
			<point x="460" y="60"/>
			<point x="365" y="-7"/>
			<point name="sv03" x="296" y="-12" type="qcurve"/>
			<point x="287" y="-58" type="line"/>
			<point x="290" y="-62" type="line"/>
			<point x="301" y="-59"/>
			<point x="322" y="-55"/>
			<point name="sv04" x="333" y="-55" type="qcurve"/>
			<point x="362" y="-55"/>
			<point x="403" y="-88"/>
			<point x="403" y="-123" type="qcurve"/>
			<point x="403" y="-146"/>
			<point x="383" y="-178"/>
			<point x="350" y="-199"/>
			<point x="307" y="-209"/>
			<point name="sv06" x="283" y="-209" type="qcurve"/>
			<point x="238" y="-209"/>
			<point x="185" y="-181"/>
			<point x="173" y="-167" type="qcurve"/>
			<point x="215" y="-119" type="line"/>
			<point x="224" y="-131"/>
			<point x="255" y="-148"/>
			<point name="sv05" x="278" y="-148" type="qcurve"/>
			<point x="297" y="-148"/>
			<point x="322" y="-134"/>
			<point x="322" y="-119" type="qcurve"/>
			<point x="322" y="-107"/>
			<point x="294" y="-84"/>
			<point name="ih01" x="251" y="-79" type="qcurve"/>
			<point x="226" y="-76" type="line"/>
			<point name="ab01" x="239" y="-9" type="line"/>
			<point x="145" y="4"/>
			<point x="43" y="146"/>
			<point x="43" y="260" type="qcurve"/>
			<point x="43" y="322"/>
			<point x="75" y="423"/>
			<point x="135" y="494"/>
			<point x="223" y="532"/>
		</contour>
	</outline>
	<anchor name="top" x="275" y="540"/>
</glyph>
<glyph name="eth" format="2">
	<unicode hex="00F0"/>
	<advance width="574"/>
	<outline>
		<contour>
			<point name="hr00" x="443" y="704" type="line"/>
			<point name="iv05" x="367" y="653" type="line"/>
			<point x="400" y="619"/>
			<point x="458" y="538"/>
			<point x="501" y="443"/>
			<point x="525" y="335"/>
			<point x="525" y="274" type="qcurve"/>
			<point x="525" y="201"/>
			<point x="490" y="94"/>
			<point x="427" y="23"/>
			<point x="339" y="-12"/>
			<point name="ih01" x="286" y="-12" type="qcurve"/>
			<point x="229" y="-12"/>
			<point x="140" y="25"/>
			<point x="77" y="94"/>
			<point x="44" y="190"/>
			<point x="44" y="249" type="qcurve"/>
			<point x="44" y="306"/>
			<point x="74" y="399"/>
			<point x="130" y="465"/>
			<point x="210" y="502"/>
			<point name="iv01" x="259" y="502" type="qcurve"/>
			<point x="311" y="502"/>
			<point x="381" y="450"/>
			<point name="iv06" x="400" y="404" type="qcurve"/>
			<point x="406" y="407" type="line"/>
			<point x="394" y="460"/>
			<point x="330" y="557"/>
			<point name="iv04" x="285" y="600" type="qcurve"/>
			<point name="iv02" x="201" y="546" type="line"/>
			<point x="162" y="595" type="line"/>
			<point name="iv07" x="236" y="644" type="line"/>
			<point x="202" y="671"/>
			<point x="130" y="719"/>
			<point name="at01" x="93" y="740" type="qcurve"/>
			<point x="260" y="740" type="line"/>
			<point x="274" y="731"/>
			<point x="304" y="710"/>
			<point name="iv03" x="319" y="697" type="qcurve"/>
			<point name="at02" x="403" y="753" type="line"/>
		</contour>
		<contour>
			<point name="sh01" x="285" y="75" type="qcurve"/>
			<point x="342" y="75"/>
			<point x="411" y="148"/>
			<point x="411" y="214" type="qcurve"/>
			<point x="411" y="276" type="line"/>
			<point x="411" y="342"/>
			<point x="342" y="415"/>
			<point name="sv01" x="285" y="415" type="qcurve"/>
			<point x="228" y="415"/>
			<point x="159" y="342"/>
			<point x="159" y="276" type="qcurve"/>
			<point x="159" y="214" type="line"/>
			<point x="159" y="148"/>
			<point x="228" y="75"/>
		</contour>
	</outline>
	<anchor name="bottom" x="287" y="0"/>
</glyph>
<glyph name="divide" format="2">
	<unicode hex="00F7"/>
	<advance width="600"/>
	<outline>
		<contour>
			<point name="sh01" x="67" y="261" type="line"/>
			<point name="dv01" x="67" y="350" type="line"/>
			<point x="533" y="350" type="line"/>
			<point x="533" y="261" type="line"/>
		</contour>
		<contour>
			<point name="ih01" x="300" y="42" type="qcurve"/>
			<point x="260" y="42"/>
			<point x="227" y="76"/>
			<point x="227" y="99" type="qcurve"/>
			<point x="227" y="122" type="line"/>
			<point x="227" y="145"/>
			<point x="260" y="179"/>
			<point name="sv01" x="300" y="179" type="qcurve"/>
			<point x="340" y="179"/>
			<point x="373" y="145"/>
			<point x="373" y="122" type="qcurve"/>
			<point x="373" y="99" type="line"/>
			<point x="373" y="76"/>
			<point x="340" y="42"/>
		</contour>
		<contour>
			<point name="sh02" x="300" y="431" type="qcurve"/>
			<point x="260" y="431"/>
			<point x="227" y="465"/>
			<point x="227" y="488" type="qcurve"/>
			<point x="227" y="511" type="line"/>
			<point x="227" y="534"/>
			<point x="260" y="568"/>
			<point name="sv02" x="300" y="568" type="qcurve"/>
			<point x="340" y="568"/>
			<point x="373" y="534"/>
			<point x="373" y="511" type="qcurve"/>
			<point x="373" y="488" type="line"/>
			<point x="373" y="465"/>
			<point x="340" y="431"/>
		</contour>
	</outline>
</glyph>
<glyph name="oslash" format="2">
	<unicode hex="00F8"/>
	<advance width="570"/>
	<outline>
		<contour>
			<point name="hr00" x="26" y="1" type="line"/>
			<point name="iv03" x="93" y="84" type="line"/>
			<point x="70" y="119"/>
			<point x="46" y="206"/>
			<point x="46" y="260" type="qcurve"/>
			<point x="46" y="322"/>
			<point x="80" y="423"/>
			<point x="142" y="494"/>
			<point x="231" y="532"/>
			<point name="at01" x="285" y="532" type="qcurve"/>
			<point x="364" y="532"/>
			<point name="iv04" x="423" y="490" type="qcurve"/>
			<point x="484" y="564" type="line"/>
			<point x="544" y="519" type="line"/>
			<point name="iv06" x="476" y="435" type="line"/>
			<point x="499" y="401"/>
			<point x="524" y="313"/>
			<point x="524" y="260" type="qcurve"/>
			<point x="524" y="198"/>
			<point x="490" y="97"/>
			<point x="428" y="26"/>
			<point x="339" y="-12"/>
			<point name="ih01" x="285" y="-12" type="qcurve"/>
			<point x="244" y="-12"/>
			<point x="175" y="9"/>
			<point name="iv02" x="147" y="29" type="qcurve"/>
			<point x="86" y="-44" type="line"/>
		</contour>
		<contour>
			<point name="sh01" x="285" y="75" type="qcurve"/>
			<point x="342" y="75"/>
			<point x="411" y="148"/>
			<point x="411" y="218" type="qcurve"/>
			<point x="411" y="302" type="line"/>
			<point x="411" y="329"/>
			<point name="iv05" x="405" y="352" type="qcurve"/>
			<point name="iv07" x="202" y="103" type="line"/>
			<point x="233" y="75"/>
		</contour>
		<contour>
			<point x="159" y="218" type="line"/>
			<point x="159" y="190"/>
			<point name="iv01" x="165" y="168" type="qcurve"/>
			<point name="iv08" x="368" y="416" type="line"/>
			<point x="334" y="445"/>
			<point name="sh02" x="285" y="445" type="qcurve"/>
			<point x="228" y="445"/>
			<point x="159" y="372"/>
			<point x="159" y="302" type="qcurve"/>
		</contour>
	</outline>
	<anchor name="bottom" x="284" y="0"/>
	<anchor name="top" x="284" y="540"/>
</glyph>
<glyph name="thorn" format="2">
	<unicode hex="00FE"/>
	<advance width="592"/>
	<outline>
		<contour>
			<point name="at01" x="78" y="740" type="line"/>
			<point x="187" y="740" type="line"/>
			<point x="187" y="434" type="line"/>
			<point name="iv01" x="192" y="434" type="line"/>
			<point x="209" y="481"/>
			<point x="286" y="532"/>
			<point name="at02" x="338" y="532" type="qcurve"/>
			<point x="437" y="532"/>
			<point x="545" y="389"/>
			<point x="545" y="260" type="qcurve"/>
			<point x="545" y="131"/>
			<point x="437" y="-12"/>
			<point name="sh01" x="338" y="-12" type="qcurve"/>
			<point x="286" y="-12"/>
			<point x="209" y="40"/>
			<point name="iv02" x="192" y="86" type="qcurve"/>
			<point x="187" y="86" type="line"/>
			<point x="187" y="-200" type="line"/>
			<point name="ab01" x="78" y="-200" type="line"/>
		</contour>
		<contour>
			<point name="ih01" x="305" y="82" type="qcurve"/>
			<point x="362" y="82"/>
			<point x="430" y="155"/>
			<point x="430" y="215" type="qcurve"/>
			<point x="430" y="305" type="line"/>
			<point x="430" y="365"/>
			<point x="362" y="438"/>
			<point name="sv01" x="305" y="438" type="qcurve"/>
			<point x="255" y="438"/>
			<point x="187" y="389"/>
			<point x="187" y="349" type="qcurve"/>
			<point x="187" y="171" type="line"/>
			<point x="187" y="131"/>
			<point x="255" y="82"/>
		</contour>
	</outline>
</glyph>
<glyph name="Aogonek" format="2">
	<unicode hex="0104"/>
	<advance width="662"/>
	<outline>
		<contour>
			<point name="sh01" x="260" y="698" type="line"/>
			<point x="402" y="698" type="line"/>
			<point name="sv01" x="640" y="0" type="line"/>
			<point x="605" y="-26"/>
			<point x="564" y="-62"/>
			<point x="541" y="-88"/>
			<point x="534" y="-106"/>
			<point x="534" y="-115" type="qcurve"/>
			<point x="534" y="-133"/>
			<point x="554" y="-147"/>
			<point name="sv02" x="568" y="-147" type="qcurve"/>
			<point x="584" y="-147"/>
			<point x="609" y="-132"/>
			<point name="sv03" x="619" y="-121" type="qcurve"/>
			<point x="664" y="-165" type="line"/>
			<point x="653" y="-185"/>
			<point x="602" y="-209"/>
			<point name="ab03" x="562" y="-209" type="qcurve"/>
			<point x="540" y="-209"/>
			<point x="501" y="-200"/>
			<point x="471" y="-181"/>
			<point x="454" y="-151"/>
			<point x="454" y="-129" type="qcurve"/>
			<point x="454" y="-89"/>
			<point x="516" y="-32"/>
			<point x="563" y="-4" type="qcurve"/>
			<point x="562" y="0" type="line"/>
			<point name="ab02" x="522" y="0" type="line"/>
			<point x="459" y="189" type="line"/>
			<point name="iv01" x="198" y="189" type="line"/>
			<point x="137" y="0" type="line"/>
			<point name="ab01" x="22" y="0" type="line"/>
		</contour>
		<contour>
			<point name="ih01" x="331" y="594" type="line"/>
			<point name="sv04" x="326" y="594" type="line"/>
			<point name="sv05" x="225" y="286" type="line"/>
			<point x="431" y="286" type="line"/>
		</contour>
	</outline>
	<anchor name="top" x="329" y="698"/>
</glyph>
<glyph name="aogonek" format="2">
	<unicode hex="0105"/>
	<advance width="549"/>
	<outline>
		<contour>
			<point name="sv01" x="520" y="0" type="line"/>
			<point x="486" y="-26"/>
			<point x="445" y="-62"/>
			<point x="422" y="-88"/>
			<point x="415" y="-106"/>
			<point x="415" y="-115" type="qcurve"/>
			<point x="415" y="-133"/>
			<point x="435" y="-147"/>
			<point name="sv02" x="449" y="-147" type="qcurve"/>
			<point x="465" y="-147"/>
			<point x="490" y="-132"/>
			<point name="sv03" x="500" y="-121" type="qcurve"/>
			<point x="545" y="-165" type="line"/>
			<point x="534" y="-185"/>
			<point x="483" y="-209"/>
			<point name="ab03" x="443" y="-209" type="qcurve"/>
			<point x="421" y="-209"/>
			<point x="382" y="-200"/>
			<point x="352" y="-181"/>
			<point x="335" y="-151"/>
			<point x="335" y="-129" type="qcurve"/>
			<point x="335" y="-89"/>
			<point x="397" y="-31"/>
			<point x="445" y="-3" type="qcurve"/>
			<point name="ab02" x="443" y="1" type="line"/>
			<point x="408" y="6"/>
			<point x="370" y="52"/>
			<point x="365" y="87" type="qcurve"/>
			<point name="iv01" x="360" y="87" type="line"/>
			<point x="345" y="38"/>
			<point x="265" y="-12"/>
			<point name="ab01" x="208" y="-12" type="qcurve"/>
			<point x="127" y="-12"/>
			<point x="40" y="72"/>
			<point x="40" y="143" type="qcurve"/>
			<point x="40" y="221"/>
			<point x="153" y="299"/>
			<point name="sh01" x="262" y="299" type="qcurve"/>
			<point x="356" y="299" type="line"/>
			<point x="356" y="343" type="line"/>
			<point x="356" y="391"/>
			<point x="304" y="443"/>
			<point name="sv05" x="249" y="443" type="qcurve"/>
			<point x="203" y="443"/>
			<point x="145" y="403"/>
			<point name="iv02" x="125" y="372" type="qcurve"/>
			<point x="60" y="431" type="line"/>
			<point x="86" y="475"/>
			<point x="180" y="532"/>
			<point name="at01" x="256" y="532" type="qcurve"/>
			<point x="357" y="532"/>
			<point x="465" y="438"/>
			<point x="465" y="350" type="qcurve"/>
			<point name="sv06" x="465" y="89" type="line"/>
			<point x="520" y="89" type="line"/>
		</contour>
		<contour>
			<point name="ih01" x="264" y="229" type="line"/>
			<point x="151" y="229"/>
			<point x="151" y="159" type="qcurve"/>
			<point x="151" y="141" type="line"/>
			<point x="151" y="106"/>
			<point x="198" y="71"/>
			<point name="sv04" x="239" y="71" type="qcurve"/>
			<point x="290" y="71"/>
			<point x="356" y="116"/>
			<point x="356" y="154" type="qcurve"/>
			<point x="356" y="229" type="line"/>
		</contour>
	</outline>
	<anchor name="top" x="259" y="540"/>
</glyph>
<glyph name="Dcroat" format="2">
	<unicode hex="0110"/>
	<advance width="687"/>
	<outline>
		<contour>
			<point name="hr00" x="90" y="320" type="line"/>
			<point name="iv01" x="13" y="320" type="line"/>
			<point name="sv02" x="13" y="406" type="line"/>
			<point x="90" y="406" type="line"/>
			<point name="at01" x="90" y="698" type="line"/>
			<point x="337" y="698" type="line"/>
			<point x="404" y="698"/>
			<point x="513" y="654"/>
			<point x="590" y="567"/>
			<point x="632" y="436"/>
			<point x="632" y="349" type="qcurve"/>
			<point x="632" y="262"/>
			<point x="590" y="131"/>
			<point x="513" y="44"/>
			<point x="404" y="0"/>
			<point name="ih01" x="337" y="0" type="qcurve"/>
			<point name="ab01" x="90" y="0" type="line"/>
		</contour>
		<contour>
			<point name="sh01" x="337" y="100" type="line"/>
			<point x="415" y="100"/>
			<point x="511" y="198"/>
			<point x="511" y="293" type="qcurve"/>
			<point x="511" y="405" type="line"/>
			<point x="511" y="500"/>
			<point x="415" y="598"/>
			<point x="337" y="598" type="qcurve"/>
			<point name="sv01" x="203" y="598" type="line"/>
			<point name="sv03" x="203" y="406" type="line"/>
			<point x="333" y="406" type="line"/>
			<point x="333" y="320" type="line"/>
			<point name="sv04" x="203" y="320" type="line"/>
			<point name="sv05" x="203" y="100" type="line"/>
		</contour>
	</outline>
	<anchor name="bottom" x="318" y="0"/>
	<anchor name="top" x="318" y="698"/>
</glyph>
<glyph name="dcroat" format="2">
	<unicode hex="0111"/>
	<advance width="595"/>
	<outline>
		<contour>
			<point name="hr00" x="405" y="86" type="line"/>
			<point name="iv01" x="400" y="86" type="line"/>
			<point x="383" y="40"/>
			<point x="306" y="-12"/>
			<point name="ab01" x="254" y="-12" type="qcurve"/>
			<point x="155" y="-12"/>
			<point x="47" y="131"/>
			<point x="47" y="260" type="qcurve"/>
			<point x="47" y="389"/>
			<point x="155" y="532"/>
			<point name="at02" x="254" y="532" type="qcurve"/>
			<point x="306" y="532"/>
			<point x="383" y="481"/>
			<point name="iv02" x="400" y="434" type="qcurve"/>
			<point x="405" y="434" type="line"/>
			<point x="405" y="600" type="line"/>
			<point name="sh01" x="259" y="600" type="line"/>
			<point name="sv02" x="259" y="679" type="line"/>
			<point x="405" y="679" type="line"/>
			<point name="at01" x="405" y="740" type="line"/>
			<point x="514" y="740" type="line"/>
			<point name="sv03" x="514" y="679" type="line"/>
			<point x="577" y="679" type="line"/>
			<point x="577" y="600" type="line"/>
			<point name="sv04" x="514" y="600" type="line"/>
			<point x="514" y="0" type="line"/>
			<point name="ab02" x="405" y="0" type="line"/>
		</contour>
		<contour>
			<point name="ih01" x="287" y="82" type="qcurve"/>
			<point x="337" y="82"/>
			<point x="405" y="131"/>
			<point x="405" y="171" type="qcurve"/>
			<point x="405" y="349" type="line"/>
			<point x="405" y="389"/>
			<point x="337" y="438"/>
			<point name="sv01" x="287" y="438" type="qcurve"/>
			<point x="230" y="438"/>
			<point x="162" y="365"/>
			<point x="162" y="305" type="qcurve"/>
			<point x="162" y="215" type="line"/>
			<point x="162" y="155"/>
			<point x="230" y="82"/>
		</contour>
	</outline>
	<anchor name="bottom" x="281" y="0"/>
</glyph>
<glyph name="Eogonek" format="2">
	<unicode hex="0118"/>
	<advance width="593"/>
	<outline>
		<contour>
			<point name="at01" x="86" y="698" type="line"/>
			<point x="533" y="698" type="line"/>
			<point x="533" y="598" type="line"/>
			<point name="sv01" x="199" y="598" type="line"/>
			<point name="sv02" x="199" y="404" type="line"/>
			<point x="502" y="404" type="line"/>
			<point x="502" y="304" type="line"/>
			<point name="iv01" x="199" y="304" type="line"/>
			<point name="sv03" x="199" y="100" type="line"/>
			<point x="533" y="100" type="line"/>
			<point name="sv04" x="533" y="0" type="line"/>
			<point x="499" y="-26"/>
			<point x="458" y="-62"/>
			<point x="436" y="-88"/>
			<point x="429" y="-106"/>
			<point x="429" y="-115" type="qcurve"/>
			<point x="429" y="-133"/>
			<point x="449" y="-147"/>
			<point name="sv05" x="463" y="-147" type="qcurve"/>
			<point x="479" y="-147"/>
			<point x="504" y="-132"/>
			<point name="sv06" x="514" y="-121" type="qcurve"/>
			<point x="559" y="-165" type="line"/>
			<point x="548" y="-185"/>
			<point x="497" y="-209"/>
			<point name="ab02" x="457" y="-209" type="qcurve"/>
			<point x="435" y="-209"/>
			<point x="396" y="-200"/>
			<point x="366" y="-181"/>
			<point x="349" y="-151"/>
			<point name="ih01" x="349" y="-129" type="qcurve"/>
			<point x="349" y="-89"/>
			<point x="410" y="-31"/>
			<point x="458" y="-5" type="qcurve"/>
			<point x="457" y="0" type="line"/>
			<point name="ab01" x="86" y="0" type="line"/>
		</contour>
	</outline>
	<anchor name="top" x="309" y="698"/>
</glyph>
<glyph name="eogonek" format="2">
	<unicode hex="0119"/>
	<advance width="555"/>
	<outline>
		<contour>
			<point name="ab02" x="347" y="-209" type="qcurve"/>
			<point x="326" y="-209"/>
			<point x="287" y="-200"/>
			<point x="258" y="-181"/>
			<point x="241" y="-151"/>
			<point x="241" y="-129" type="qcurve"/>
			<point x="241" y="-107"/>
			<point x="259" y="-72"/>
			<point x="288" y="-42"/>
			<point x="327" y="-17"/>
			<point x="348" y="-5" type="qcurve"/>
			<point name="iv01" x="346" y="-1" type="line"/>
			<point x="332" y="-6"/>
			<point x="301" y="-12"/>
			<point name="ab01" x="281" y="-12" type="qcurve"/>
			<point x="225" y="-12"/>
			<point x="137" y="26"/>
			<point x="76" y="97"/>
			<point x="43" y="198"/>
			<point x="43" y="260" type="qcurve"/>
			<point x="43" y="322"/>
			<point x="75" y="422"/>
			<point x="137" y="493"/>
			<point x="224" y="532"/>
			<point name="ih01" x="280" y="532" type="qcurve"/>
			<point x="338" y="532"/>
			<point x="425" y="492"/>
			<point x="483" y="421"/>
			<point x="512" y="327"/>
			<point x="512" y="273" type="qcurve"/>
			<point x="512" y="232" type="line"/>
			<point name="sv02" x="156" y="232" type="line"/>
			<point x="156" y="215" type="line"/>
			<point x="156" y="155"/>
			<point x="226" y="78"/>
			<point name="sv01" x="294" y="78" type="qcurve"/>
			<point x="341" y="78"/>
			<point x="409" y="120"/>
			<point name="iv03" x="430" y="155" type="qcurve"/>
			<point x="494" y="93" type="line"/>
			<point x="484" y="78"/>
			<point x="454" y="48"/>
			<point name="iv04" x="429" y="26" type="qcurve"/>
			<point x="411" y="8"/>
			<point x="373" y="-27"/>
			<point x="341" y="-62"/>
			<point x="320" y="-97"/>
			<point x="320" y="-115" type="qcurve"/>
			<point x="320" y="-132"/>
			<point x="340" y="-147"/>
			<point name="sv03" x="354" y="-147" type="qcurve"/>
			<point x="369" y="-147"/>
			<point x="395" y="-132"/>
			<point name="sv04" x="405" y="-121" type="qcurve"/>
			<point x="449" y="-165" type="line"/>
			<point x="438" y="-185"/>
			<point x="388" y="-209"/>
		</contour>
		<contour>
			<point x="397" y="304" type="line"/>
			<point x="397" y="314" type="line"/>
			<point x="397" y="374"/>
			<point x="336" y="447"/>
			<point name="sh01" x="281" y="447" type="qcurve"/>
			<point x="224" y="447"/>
			<point x="156" y="371"/>
			<point x="156" y="311" type="qcurve"/>
			<point name="iv02" x="156" y="304" type="line"/>
		</contour>
	</outline>
	<anchor name="top" x="282" y="540"/>
</glyph>
<glyph name="Hbar" format="2">
	<unicode hex="0126"/>
	<advance width="722"/>
	<outline>
		<contour>
			<point name="hr00" x="519" y="304" type="line"/>
			<point name="iv01" x="203" y="304" type="line"/>
			<point name="ih01" x="203" y="0" type="line"/>
			<point name="ab01" x="90" y="0" type="line"/>
			<point x="90" y="513" type="line"/>
			<point name="iv02" x="19" y="513" type="line"/>
			<point name="sv01" x="19" y="598" type="line"/>
			<point x="90" y="598" type="line"/>
			<point name="at02" x="90" y="698" type="line"/>
			<point x="203" y="698" type="line"/>
			<point name="sv02" x="203" y="598" type="line"/>
			<point x="519" y="598" type="line"/>
			<point name="at01" x="519" y="698" type="line"/>
			<point x="632" y="698" type="line"/>
			<point name="sv03" x="632" y="598" type="line"/>
			<point x="703" y="598" type="line"/>
			<point x="703" y="513" type="line"/>
			<point name="sv05" x="632" y="513" type="line"/>
			<point x="632" y="0" type="line"/>
			<point name="ab02" x="519" y="0" type="line"/>
		</contour>
		<contour>
			<point x="519" y="404" type="line"/>
			<point x="519" y="513" type="line"/>
			<point name="sv04" x="203" y="513" type="line"/>
			<point name="sh01" x="203" y="404" type="line"/>
		</contour>
	</outline>
	<anchor name="bottom" x="361" y="0"/>
	<anchor name="top" x="361" y="698"/>
</glyph>
<glyph name="hbar" format="2">
	<unicode hex="0127"/>
	<advance width="580"/>
	<outline>
		<contour>
			<point name="ab01" x="78" y="0" type="line"/>
			<point x="78" y="600" type="line"/>
			<point name="sv01" x="15" y="600" type="line"/>
			<point name="sv02" x="15" y="679" type="line"/>
			<point x="78" y="679" type="line"/>
			<point name="at02" x="78" y="740" type="line"/>
			<point x="187" y="740" type="line"/>
			<point name="sv03" x="187" y="679" type="line"/>
			<point x="333" y="679" type="line"/>
			<point x="333" y="600" type="line"/>
			<point name="sv04" x="187" y="600" type="line"/>
			<point name="iv01" x="187" y="434" type="line"/>
			<point x="192" y="434" type="line"/>
			<point x="209" y="476"/>
			<point x="278" y="532"/>
			<point name="at01" x="338" y="532" type="qcurve"/>
			<point x="419" y="532"/>
			<point x="507" y="427"/>
			<point x="507" y="330" type="qcurve"/>
			<point x="507" y="0" type="line"/>
			<point name="ab02" x="398" y="0" type="line"/>
			<point x="398" y="317" type="line"/>
			<point x="398" y="438"/>
			<point name="ih01" x="300" y="438" type="qcurve"/>
			<point x="279" y="438"/>
			<point x="238" y="427"/>
			<point x="206" y="405"/>
			<point x="187" y="371"/>
			<point x="187" y="349" type="qcurve"/>
			<point x="187" y="0" type="line"/>
		</contour>
	</outline>
	<anchor name="bottom" x="293" y="0"/>
</glyph>
<glyph name="Iogonek" format="2">
	<unicode hex="012E"/>
	<advance width="416"/>
	<outline>
		<contour>
			<point name="sv01" x="56" y="92" type="line"/>
			<point x="151" y="92" type="line"/>
			<point x="151" y="606" type="line"/>
			<point name="sv02" x="56" y="606" type="line"/>
			<point name="at01" x="56" y="698" type="line"/>
			<point x="360" y="698" type="line"/>
			<point x="360" y="606" type="line"/>
			<point name="sv03" x="264" y="606" type="line"/>
			<point name="sv04" x="264" y="92" type="line"/>
			<point x="360" y="92" type="line"/>
			<point name="sv05" x="360" y="0" type="line"/>
			<point x="326" y="-26"/>
			<point x="285" y="-62"/>
			<point x="262" y="-88"/>
			<point x="255" y="-106"/>
			<point x="255" y="-115" type="qcurve"/>
			<point x="255" y="-133"/>
			<point x="275" y="-147"/>
			<point name="sv06" x="289" y="-147" type="qcurve"/>
			<point x="305" y="-147"/>
			<point x="330" y="-132"/>
			<point name="sv07" x="340" y="-121" type="qcurve"/>
			<point x="386" y="-165" type="line"/>
			<point x="375" y="-185"/>
			<point x="323" y="-209"/>
			<point name="ab02" x="283" y="-209" type="qcurve"/>
			<point x="261" y="-209"/>
			<point x="222" y="-200"/>
			<point x="193" y="-181"/>
			<point x="176" y="-151"/>
			<point name="ih01" x="176" y="-129" type="qcurve"/>
			<point x="176" y="-90"/>
			<point x="233" y="-34"/>
			<point x="284" y="-5" type="qcurve"/>
			<point x="283" y="0" type="line"/>
			<point name="ab01" x="56" y="0" type="line"/>
		</contour>
	</outline>
	<anchor name="top" x="207" y="698"/>
</glyph>
<glyph name="iogonek" format="2">
	<unicode hex="012F"/>
	<advance width="265"/>
	<outline>
		<contour>
			<point name="at02" x="78" y="520" type="line"/>
			<point x="187" y="520" type="line"/>
			<point name="sv01" x="187" y="0" type="line"/>
			<point x="153" y="-26"/>
			<point x="112" y="-62"/>
			<point x="89" y="-88"/>
			<point x="82" y="-106"/>
			<point x="82" y="-115" type="qcurve"/>
			<point x="82" y="-133"/>
			<point x="102" y="-147"/>
			<point name="sh01" x="116" y="-147" type="qcurve"/>
			<point x="132" y="-147"/>
			<point x="157" y="-132"/>
			<point name="sv02" x="167" y="-121" type="qcurve"/>
			<point x="213" y="-165" type="line"/>
			<point x="202" y="-185"/>
			<point x="151" y="-209"/>
			<point name="ab02" x="110" y="-209" type="qcurve"/>
			<point x="88" y="-209"/>
			<point x="49" y="-200"/>
			<point x="20" y="-181"/>
			<point x="3" y="-151"/>
			<point x="3" y="-129" type="qcurve"/>
			<point x="3" y="-89"/>
			<point x="65" y="-32"/>
			<point x="112" y="-4" type="qcurve"/>
			<point x="111" y="0" type="line"/>
			<point name="ab01" x="78" y="0" type="line"/>
		</contour>
		<contour>
			<point name="ih01" x="133" y="613" type="qcurve"/>
			<point x="99" y="613"/>
			<point x="68" y="645"/>
			<point x="68" y="670" type="qcurve"/>
			<point x="68" y="687" type="line"/>
			<point x="68" y="712"/>
			<point x="99" y="744"/>
			<point name="at01" x="133" y="744" type="qcurve"/>
			<point x="167" y="744"/>
			<point x="197" y="712"/>
			<point x="197" y="687" type="qcurve"/>
			<point x="197" y="670" type="line"/>
			<point x="197" y="645"/>
			<point x="167" y="613"/>
		</contour>
	</outline>
</glyph>
<glyph name="IJ" format="2">
	<unicode hex="0132"/>
	<advance width="650"/>
	<outline>
		<contour>
			<point name="hr00" x="568" y="698" type="line"/>
			<point x="568" y="219" type="line"/>
			<point x="568" y="165"/>
			<point x="534" y="80"/>
			<point x="471" y="20"/>
			<point x="381" y="-12"/>
			<point name="ih01" x="325" y="-12" type="qcurve"/>
			<point x="272" y="-12"/>
			<point x="191" y="15"/>
			<point x="132" y="62"/>
			<point x="95" y="128"/>
			<point x="88" y="167" type="qcurve"/>
			<point x="192" y="190" type="line"/>
			<point x="202" y="145"/>
			<point x="267" y="89"/>
			<point name="sv01" x="326" y="89" type="qcurve"/>
			<point x="383" y="89"/>
			<point x="455" y="148"/>
			<point x="455" y="213" type="qcurve"/>
			<point x="455" y="603" type="line"/>
			<point name="sv02" x="331" y="603" type="line"/>
			<point name="at01" x="331" y="698" type="line"/>
		</contour>
		<contour>
			<point name="at02" x="82" y="698" type="line"/>
			<point x="195" y="698" type="line"/>
			<point name="sh01" x="195" y="298" type="line"/>
			<point name="av01" x="82" y="298" type="line"/>
		</contour>
	</outline>
</glyph>
<glyph name="Lslash" format="2">
	<unicode hex="0141"/>
	<advance width="522"/>
	<outline>
		<contour>
			<point name="hr00" x="487" y="0" type="line"/>
			<point name="ab01" x="90" y="0" type="line"/>
			<point name="sv02" x="90" y="259" type="line"/>
			<point name="sv01" x="-7" y="227" type="line"/>
			<point name="iv01" x="-7" y="314" type="line"/>
			<point name="sv03" x="90" y="346" type="line"/>
			<point name="at01" x="90" y="698" type="line"/>
			<point x="203" y="698" type="line"/>
			<point name="sv04" x="203" y="383" type="line"/>
			<point name="sv05" x="374" y="440" type="line"/>
			<point name="sv07" x="374" y="351" type="line"/>
			<point name="sv06" x="203" y="295" type="line"/>
			<point name="ih01" x="203" y="100" type="line"/>
			<point x="487" y="100" type="line"/>
		</contour>
	</outline>
</glyph>
<glyph name="lslash" format="2">
	<unicode hex="0142"/>
	<advance width="292"/>
	<outline>
		<contour>
			<point name="hr00" x="263" y="0" type="line"/>
			<point name="ab01" x="193" y="0" type="line"/>
			<point x="137" y="0"/>
			<point x="82" y="57"/>
			<point x="82" y="108" type="qcurve"/>
			<point name="sv02" x="82" y="312" type="line"/>
			<point name="sv01" x="9" y="288" type="line"/>
			<point name="iv01" x="9" y="374" type="line"/>
			<point name="sv03" x="82" y="398" type="line"/>
			<point name="at01" x="82" y="740" type="line"/>
			<point x="191" y="740" type="line"/>
			<point name="sv04" x="191" y="434" type="line"/>
			<point name="sv05" x="294" y="468" type="line"/>
			<point name="sv07" x="294" y="382" type="line"/>
			<point name="sv06" x="191" y="348" type="line"/>
			<point name="ih01" x="191" y="89" type="line"/>
			<point x="263" y="89" type="line"/>
		</contour>
	</outline>
</glyph>
<glyph name="OE" format="2">
	<unicode hex="0152"/>
	<advance width="990"/>
	<outline>
		<contour>
			<point name="ab02" x="486" y="0" type="line"/>
			<point x="460" y="-5"/>
			<point x="395" y="-12"/>
			<point name="ab01" x="363" y="-12" type="qcurve"/>
			<point x="292" y="-12"/>
			<point x="178" y="34"/>
			<point x="98" y="126"/>
			<point x="55" y="260"/>
			<point x="55" y="349" type="qcurve"/>
			<point x="55" y="437"/>
			<point x="98" y="572"/>
			<point x="178" y="664"/>
			<point x="292" y="710"/>
			<point name="at01" x="363" y="710" type="qcurve"/>
			<point x="395" y="710"/>
			<point x="461" y="703"/>
			<point name="ih01" x="489" y="698" type="qcurve"/>
			<point x="930" y="698" type="line"/>
			<point x="930" y="598" type="line"/>
			<point name="sv01" x="596" y="598" type="line"/>
			<point name="sv02" x="596" y="404" type="line"/>
			<point x="899" y="404" type="line"/>
			<point x="899" y="304" type="line"/>
			<point name="iv01" x="596" y="304" type="line"/>
			<point name="sv03" x="596" y="100" type="line"/>
			<point x="930" y="100" type="line"/>
			<point x="930" y="0" type="line"/>
		</contour>
		<contour>
			<point name="sv04" x="369" y="89" type="qcurve"/>
			<point x="398" y="89"/>
			<point x="457" y="95"/>
			<point name="sh01" x="483" y="103" type="qcurve"/>
			<point name="sv05" x="483" y="595" type="line"/>
			<point x="457" y="602"/>
			<point x="398" y="609"/>
			<point name="sv06" x="369" y="609" type="qcurve"/>
			<point x="272" y="609"/>
			<point x="176" y="500"/>
			<point x="176" y="404" type="qcurve"/>
			<point x="176" y="294" type="line"/>
			<point x="176" y="198"/>
			<point x="272" y="89"/>
		</contour>
	</outline>
	<anchor name="bottom" x="562" y="0"/>
	<anchor name="top" x="562" y="698"/>
</glyph>
<glyph name="oe" format="2">
	<unicode hex="0153"/>
	<advance width="921"/>
	<outline>
		<contour>
			<point name="sv01" x="282" y="78" type="qcurve"/>
			<point x="338" y="78"/>
			<point x="406" y="147"/>
			<point name="sh01" x="406" y="216" type="qcurve"/>
			<point x="406" y="304" type="line"/>
			<point x="406" y="373"/>
			<point x="338" y="442"/>
			<point name="sv02" x="282" y="442" type="qcurve"/>
			<point x="226" y="442"/>
			<point x="158" y="373"/>
			<point x="158" y="304" type="qcurve"/>
			<point x="158" y="216" type="line"/>
			<point x="158" y="147"/>
			<point x="226" y="78"/>
		</contour>
		<contour>
			<point x="763" y="304" type="line"/>
			<point x="763" y="314" type="line"/>
			<point x="763" y="374"/>
			<point x="701" y="447"/>
			<point name="sv03" x="647" y="447" type="qcurve"/>
			<point x="619" y="447"/>
			<point x="572" y="427"/>
			<point x="539" y="391"/>
			<point x="521" y="341"/>
			<point x="521" y="311" type="qcurve"/>
			<point name="sh02" x="521" y="304" type="line"/>
		</contour>
		<contour>
			<point name="ab02" x="653" y="-12" type="qcurve"/>
			<point x="581" y="-12"/>
			<point x="486" y="44"/>
			<point x="466" y="85" type="qcurve"/>
			<point name="ih01" x="460" y="85" type="line"/>
			<point x="439" y="42"/>
			<point x="346" y="-12"/>
			<point name="ab01" x="282" y="-12" type="qcurve"/>
			<point x="228" y="-12"/>
			<point x="139" y="26"/>
			<point x="77" y="97"/>
			<point x="43" y="198"/>
			<point x="43" y="260" type="qcurve"/>
			<point x="43" y="322"/>
			<point x="77" y="423"/>
			<point x="139" y="494"/>
			<point x="228" y="532"/>
			<point name="at01" x="282" y="532" type="qcurve"/>
			<point x="344" y="532"/>
			<point x="436" y="483"/>
			<point name="iv01" x="460" y="434" type="qcurve"/>
			<point x="466" y="434" type="line"/>
			<point x="488" y="479"/>
			<point x="582" y="532"/>
			<point name="at02" x="648" y="532" type="qcurve"/>
			<point x="702" y="532"/>
			<point x="787" y="494"/>
			<point x="847" y="426"/>
			<point x="878" y="331"/>
			<point x="878" y="273" type="qcurve"/>
			<point x="878" y="232" type="line"/>
			<point name="sv05" x="521" y="232" type="line"/>
			<point x="521" y="215" type="line"/>
			<point x="521" y="155"/>
			<point x="592" y="78"/>
			<point name="sv04" x="660" y="78" type="qcurve"/>
			<point x="708" y="78"/>
			<point x="774" y="120"/>
			<point name="iv02" x="797" y="156" type="qcurve"/>
			<point x="861" y="93" type="line"/>
			<point x="832" y="45"/>
			<point x="725" y="-12"/>
		</contour>
	</outline>
	<anchor name="bottom" x="472" y="0"/>
	<anchor name="top" x="472" y="540"/>
</glyph>
<glyph name="Scedilla" format="2">
	<unicode hex="015E"/>
	<advance width="598"/>
	<outline>
		<contour>
			<point name="ih01" x="299" y="610" type="qcurve"/>
			<point x="239" y="610"/>
			<point x="173" y="562"/>
			<point x="173" y="516" type="qcurve"/>
			<point x="173" y="472"/>
			<point x="227" y="429"/>
			<point name="iv01" x="284" y="418" type="qcurve"/>
			<point x="346" y="405" type="line"/>
			<point x="451" y="385"/>
			<point x="548" y="289"/>
			<point x="548" y="205" type="qcurve"/>
			<point x="548" y="112"/>
			<point x="429" y="-4"/>
			<point name="sv02" x="320" y="-11" type="qcurve"/>
			<point x="311" y="-58" type="line"/>
			<point x="314" y="-62" type="line"/>
			<point x="325" y="-59"/>
			<point x="346" y="-55"/>
			<point name="sv03" x="357" y="-55" type="qcurve"/>
			<point x="387" y="-55"/>
			<point x="427" y="-88"/>
			<point x="427" y="-123" type="qcurve"/>
			<point x="427" y="-146"/>
			<point x="407" y="-178"/>
			<point x="374" y="-199"/>
			<point x="331" y="-209"/>
			<point name="sv06" x="307" y="-209" type="qcurve"/>
			<point x="262" y="-209"/>
			<point x="209" y="-181"/>
			<point x="198" y="-167" type="qcurve"/>
			<point x="239" y="-119" type="line"/>
			<point x="248" y="-131"/>
			<point x="279" y="-148"/>
			<point name="sv05" x="302" y="-148" type="qcurve"/>
			<point x="321" y="-148"/>
			<point x="346" y="-134"/>
			<point x="346" y="-119" type="qcurve"/>
			<point x="346" y="-107"/>
			<point x="319" y="-84"/>
			<point name="sv04" x="275" y="-79" type="qcurve"/>
			<point x="250" y="-76" type="line"/>
			<point name="ab01" x="263" y="-11" type="line"/>
			<point x="188" y="-6"/>
			<point x="79" y="57"/>
			<point x="40" y="106" type="qcurve"/>
			<point x="118" y="179" type="line"/>
			<point x="154" y="134"/>
			<point x="244" y="88"/>
			<point name="sv01" x="301" y="88" type="qcurve"/>
			<point x="368" y="88"/>
			<point x="436" y="148"/>
			<point x="436" y="199" type="qcurve"/>
			<point x="436" y="240"/>
			<point x="388" y="288"/>
			<point x="327" y="300" type="qcurve"/>
			<point name="iv02" x="265" y="311" type="line"/>
			<point x="163" y="330"/>
			<point x="61" y="426"/>
			<point x="61" y="510" type="qcurve"/>
			<point x="61" y="556"/>
			<point x="96" y="631"/>
			<point x="159" y="682"/>
			<point x="249" y="710"/>
			<point name="at01" x="305" y="710" type="qcurve"/>
			<point x="384" y="710"/>
			<point x="500" y="655"/>
			<point x="541" y="603" type="qcurve"/>
			<point x="462" y="533" type="line"/>
			<point x="435" y="568"/>
			<point x="357" y="610"/>
		</contour>
	</outline>
	<anchor name="top" x="297" y="698"/>
</glyph>
<glyph name="scedilla" format="2">
	<unicode hex="015F"/>
	<advance width="494"/>
	<outline>
		<contour>
			<point name="sv04" x="256" y="-209" type="qcurve"/>
			<point x="211" y="-209"/>
			<point x="158" y="-181"/>
			<point x="147" y="-167" type="qcurve"/>
			<point x="188" y="-119" type="line"/>
			<point x="197" y="-131"/>
			<point x="228" y="-148"/>
			<point name="sv03" x="251" y="-148" type="qcurve"/>
			<point x="270" y="-148"/>
			<point x="295" y="-134"/>
			<point x="295" y="-119" type="qcurve"/>
			<point x="295" y="-107"/>
			<point x="268" y="-84"/>
			<point name="sv02" x="224" y="-79" type="qcurve"/>
			<point x="199" y="-76" type="line"/>
			<point name="ab01" x="212" y="-11" type="line"/>
			<point x="152" y="-6"/>
			<point x="64" y="45"/>
			<point x="32" y="86" type="qcurve"/>
			<point name="iv02" x="102" y="150" type="line"/>
			<point x="131" y="115"/>
			<point x="202" y="76"/>
			<point name="ih01" x="249" y="76" type="qcurve"/>
			<point x="297" y="76"/>
			<point x="344" y="113"/>
			<point x="344" y="146" type="qcurve"/>
			<point x="344" y="172"/>
			<point x="311" y="205"/>
			<point x="270" y="211" type="qcurve"/>
			<point name="iv01" x="222" y="217" type="line"/>
			<point x="142" y="228"/>
			<point x="51" y="300"/>
			<point x="51" y="372" type="qcurve"/>
			<point x="51" y="410"/>
			<point x="79" y="469"/>
			<point x="130" y="510"/>
			<point x="201" y="532"/>
			<point name="at01" x="244" y="532" type="qcurve"/>
			<point x="314" y="532"/>
			<point x="403" y="488"/>
			<point x="438" y="449" type="qcurve"/>
			<point name="iv04" x="371" y="385" type="line"/>
			<point x="351" y="409"/>
			<point x="286" y="444"/>
			<point name="sv05" x="244" y="444" type="qcurve"/>
			<point x="199" y="444"/>
			<point x="156" y="408"/>
			<point x="156" y="379" type="qcurve"/>
			<point x="156" y="349"/>
			<point x="194" y="319"/>
			<point name="iv03" x="236" y="312" type="qcurve"/>
			<point x="284" y="306" type="line"/>
			<point x="370" y="293"/>
			<point x="449" y="218"/>
			<point x="449" y="155" type="qcurve"/>
			<point x="449" y="85"/>
			<point x="352" y="-4"/>
			<point name="sv06" x="269" y="-11" type="qcurve"/>
			<point x="260" y="-58" type="line"/>
			<point x="263" y="-62" type="line"/>
			<point x="274" y="-59"/>
			<point x="295" y="-55"/>
			<point name="sv01" x="306" y="-55" type="qcurve"/>
			<point x="336" y="-55"/>
			<point x="376" y="-88"/>
			<point x="376" y="-123" type="qcurve"/>
			<point x="376" y="-146"/>
			<point x="356" y="-178"/>
			<point x="323" y="-199"/>
			<point x="280" y="-209"/>
		</contour>
	</outline>
	<anchor name="top" x="243" y="540"/>
</glyph>
<glyph name="Tcedilla" format="2">
	<unicode hex="0162"/>
	<advance width="577"/>
	<outline>
		<contour>
			<point name="hr00" x="232" y="598" type="line"/>
			<point name="sv01" x="24" y="598" type="line"/>
			<point name="at01" x="24" y="698" type="line"/>
			<point x="553" y="698" type="line"/>
			<point x="553" y="598" type="line"/>
			<point name="sv02" x="345" y="598" type="line"/>
			<point x="345" y="0" type="line"/>
			<point name="sv03" x="317" y="0" type="line"/>
			<point x="305" y="-58" type="line"/>
			<point x="309" y="-62" type="line"/>
			<point x="320" y="-59"/>
			<point x="341" y="-55"/>
			<point name="sv04" x="352" y="-55" type="qcurve"/>
			<point x="381" y="-55"/>
			<point x="422" y="-88"/>
			<point x="422" y="-123" type="qcurve"/>
			<point x="422" y="-146"/>
			<point x="402" y="-178"/>
			<point x="369" y="-199"/>
			<point x="326" y="-209"/>
			<point name="sv06" x="302" y="-209" type="qcurve"/>
			<point x="256" y="-209"/>
			<point x="203" y="-181"/>
			<point x="192" y="-167" type="qcurve"/>
			<point x="234" y="-119" type="line"/>
			<point x="243" y="-131"/>
			<point x="274" y="-148"/>
			<point name="ih01" x="297" y="-148" type="qcurve"/>
			<point x="316" y="-148"/>
			<point x="341" y="-134"/>
			<point x="341" y="-119" type="qcurve"/>
			<point x="341" y="-107"/>
			<point x="313" y="-84"/>
			<point name="sv05" x="270" y="-79" type="qcurve"/>
			<point x="245" y="-76" type="line"/>
			<point x="260" y="0" type="line"/>
			<point name="ab01" x="232" y="0" type="line"/>
		</contour>
	</outline>
</glyph>
<glyph name="tcedilla" format="2">
	<unicode hex="0163"/>
	<advance width="365"/>
	<outline>
		<contour>
			<point name="sv04" x="233" y="-209" type="qcurve"/>
			<point x="187" y="-209"/>
			<point x="134" y="-181"/>
			<point x="123" y="-167" type="qcurve"/>
			<point x="165" y="-119" type="line"/>
			<point x="174" y="-131"/>
			<point x="205" y="-148"/>
			<point name="sv03" x="228" y="-148" type="qcurve"/>
			<point x="247" y="-148"/>
			<point x="272" y="-134"/>
			<point x="272" y="-119" type="qcurve"/>
			<point x="272" y="-107"/>
			<point x="244" y="-84"/>
			<point name="sv02" x="201" y="-79" type="qcurve"/>
			<point name="ih01" x="176" y="-76" type="line"/>
			<point name="iv01" x="191" y="2" type="line"/>
			<point x="149" y="10"/>
			<point x="107" y="67"/>
			<point x="107" y="113" type="qcurve"/>
			<point x="107" y="431" type="line"/>
			<point name="sv06" x="26" y="431" type="line"/>
			<point name="at01" x="26" y="520" type="line"/>
			<point x="70" y="520" type="line"/>
			<point x="97" y="520"/>
			<point x="118" y="544"/>
			<point x="118" y="571" type="qcurve"/>
			<point name="av01" x="118" y="662" type="line"/>
			<point x="216" y="662" type="line"/>
			<point name="sv07" x="216" y="520" type="line"/>
			<point x="325" y="520" type="line"/>
			<point x="325" y="431" type="line"/>
			<point name="sv08" x="216" y="431" type="line"/>
			<point name="sv05" x="216" y="89" type="line"/>
			<point x="317" y="89" type="line"/>
			<point x="317" y="0" type="line"/>
			<point name="ab01" x="248" y="0" type="line"/>
			<point x="236" y="-58" type="line"/>
			<point x="240" y="-62" type="line"/>
			<point x="251" y="-59"/>
			<point x="272" y="-55"/>
			<point name="sv01" x="283" y="-55" type="qcurve"/>
			<point x="312" y="-55"/>
			<point x="353" y="-88"/>
			<point x="353" y="-123" type="qcurve"/>
			<point x="353" y="-146"/>
			<point x="333" y="-178"/>
			<point x="300" y="-199"/>
			<point x="257" y="-209"/>
		</contour>
	</outline>
</glyph>
<glyph name="Tbar" format="2">
	<unicode hex="0166"/>
	<advance width="589"/>
	<outline>
		<contour>
			<point name="sv02" x="351" y="311" type="line"/>
			<point x="351" y="0" type="line"/>
			<point name="ih01" x="238" y="0" type="line"/>
			<point x="238" y="311" type="line"/>
			<point name="iv01" x="85" y="311" type="line"/>
			<point name="sv03" x="85" y="396" type="line"/>
			<point x="238" y="396" type="line"/>
			<point x="238" y="598" type="line"/>
			<point name="sv01" x="30" y="598" type="line"/>
			<point name="at01" x="30" y="698" type="line"/>
			<point x="559" y="698" type="line"/>
			<point x="559" y="598" type="line"/>
			<point name="sv04" x="351" y="598" type="line"/>
			<point name="sv05" x="351" y="396" type="line"/>
			<point x="504" y="396" type="line"/>
			<point x="504" y="311" type="line"/>
		</contour>
	</outline>
	<anchor name="bottom" x="294" y="0"/>
	<anchor name="top" x="294" y="698"/>
</glyph>
<glyph name="tbar" format="2">
	<unicode hex="0167"/>
	<advance width="372"/>
	<outline>
		<contour>
			<point name="hr00" x="320" y="0" type="line"/>
			<point name="ab01" x="225" y="0" type="line"/>
			<point x="168" y="0"/>
			<point x="110" y="59"/>
			<point x="110" y="113" type="qcurve"/>
			<point x="110" y="236" type="line"/>
			<point name="sv01" x="46" y="236" type="line"/>
			<point name="iv01" x="46" y="315" type="line"/>
			<point x="110" y="315" type="line"/>
			<point x="110" y="431" type="line"/>
			<point name="sv02" x="30" y="431" type="line"/>
			<point name="at01" x="30" y="520" type="line"/>
			<point x="73" y="520" type="line"/>
			<point x="101" y="520"/>
			<point x="121" y="544"/>
			<point x="121" y="571" type="qcurve"/>
			<point name="av01" x="121" y="662" type="line"/>
			<point x="219" y="662" type="line"/>
			<point name="at02" x="219" y="520" type="line"/>
			<point x="328" y="520" type="line"/>
			<point x="328" y="431" type="line"/>
			<point name="sv03" x="219" y="431" type="line"/>
			<point name="sv04" x="219" y="315" type="line"/>
			<point x="308" y="315" type="line"/>
			<point x="308" y="236" type="line"/>
			<point name="sv05" x="219" y="236" type="line"/>
			<point name="ih01" x="219" y="89" type="line"/>
			<point x="320" y="89" type="line"/>
		</contour>
	</outline>
	<anchor name="bottom" x="223" y="0"/>
</glyph>
<glyph name="Uogonek" format="2">
	<unicode hex="0172"/>
	<advance width="686"/>
	<outline>
		<contour>
			<point name="hr00" x="193" y="698" type="line"/>
			<point x="193" y="268" type="line"/>
			<point x="193" y="179"/>
			<point x="261" y="89"/>
			<point name="ih01" x="343" y="89" type="qcurve"/>
			<point x="425" y="89"/>
			<point x="493" y="179"/>
			<point x="493" y="268" type="qcurve"/>
			<point name="at02" x="493" y="698" type="line"/>
			<point x="604" y="698" type="line"/>
			<point x="604" y="286" type="line"/>
			<point x="604" y="235"/>
			<point x="593" y="153"/>
			<point x="566" y="83"/>
			<point x="521" y="21"/>
			<point x="486" y="-9" type="qcurve"/>
			<point x="443" y="-47"/>
			<point x="393" y="-92"/>
			<point x="393" y="-116" type="qcurve"/>
			<point x="393" y="-133"/>
			<point x="413" y="-147"/>
			<point name="sv01" x="427" y="-147" type="qcurve"/>
			<point x="443" y="-147"/>
			<point x="468" y="-132"/>
			<point name="sv02" x="478" y="-121" type="qcurve"/>
			<point x="523" y="-165" type="line"/>
			<point x="512" y="-185"/>
			<point x="461" y="-209"/>
			<point name="ab02" x="421" y="-209" type="qcurve"/>
			<point x="378" y="-209"/>
			<point x="314" y="-172"/>
			<point x="314" y="-131" type="qcurve"/>
			<point x="314" y="-110"/>
			<point x="331" y="-76"/>
			<point x="363" y="-47"/>
			<point x="405" y="-20"/>
			<point x="431" y="-6" type="qcurve"/>
			<point name="iv01" x="428" y="-1" type="line"/>
			<point x="408" y="-7"/>
			<point x="365" y="-12"/>
			<point name="ab01" x="341" y="-12" type="qcurve"/>
			<point x="269" y="-12"/>
			<point x="170" y="24"/>
			<point x="109" y="97"/>
			<point x="82" y="209"/>
			<point x="82" y="286" type="qcurve"/>
			<point name="at01" x="82" y="698" type="line"/>
		</contour>
	</outline>
	<anchor name="top" x="341" y="698"/>
</glyph>
<glyph name="uogonek" format="2">
	<unicode hex="0173"/>
	<advance width="581"/>
	<outline>
		<contour>
			<point name="sv01" x="502" y="0" type="line"/>
			<point x="468" y="-26"/>
			<point x="427" y="-62"/>
			<point x="404" y="-88"/>
			<point x="397" y="-106"/>
			<point x="397" y="-115" type="qcurve"/>
			<point x="397" y="-133"/>
			<point x="417" y="-147"/>
			<point name="sv02" x="431" y="-147" type="qcurve"/>
			<point x="448" y="-147"/>
			<point x="473" y="-132"/>
			<point name="sv03" x="482" y="-121" type="qcurve"/>
			<point x="528" y="-165" type="line"/>
			<point x="517" y="-185"/>
			<point x="466" y="-209"/>
			<point name="ab03" x="425" y="-209" type="qcurve"/>
			<point x="403" y="-209"/>
			<point x="364" y="-200"/>
			<point x="335" y="-181"/>
			<point x="318" y="-151"/>
			<point x="318" y="-129" type="qcurve"/>
			<point x="318" y="-89"/>
			<point x="379" y="-31"/>
			<point x="427" y="-3" type="qcurve"/>
			<point x="426" y="0" type="line"/>
			<point name="ab01" x="393" y="0" type="line"/>
			<point x="393" y="86" type="line"/>
			<point name="iv01" x="389" y="86" type="line"/>
			<point x="382" y="67"/>
			<point x="359" y="31"/>
			<point x="324" y="4"/>
			<point x="275" y="-12"/>
			<point name="ab02" x="243" y="-12" type="qcurve"/>
			<point x="162" y="-12"/>
			<point x="73" y="92"/>
			<point x="73" y="189" type="qcurve"/>
			<point name="at01" x="73" y="520" type="line"/>
			<point x="182" y="520" type="line"/>
			<point x="182" y="203" type="line"/>
			<point x="182" y="82"/>
			<point name="ih01" x="282" y="82" type="qcurve"/>
			<point x="303" y="82"/>
			<point x="343" y="93"/>
			<point x="374" y="115"/>
			<point x="393" y="149"/>
			<point x="393" y="172" type="qcurve"/>
			<point name="at02" x="393" y="520" type="line"/>
			<point x="502" y="520" type="line"/>
		</contour>
	</outline>
	<anchor name="top" x="288" y="540"/>
</glyph>
<glyph name="longs" format="2">
	<unicode hex="017F"/>
	<advance width="292"/>
	<outline>
		<contour>
			<point name="hr00" x="105" y="431" type="line"/>
			<point name="sv01" x="26" y="431" type="line"/>
			<point name="at02" x="26" y="520" type="line"/>
			<point x="105" y="520" type="line"/>
			<point x="105" y="606" type="line"/>
			<point x="105" y="669"/>
			<point x="171" y="740"/>
			<point x="237" y="740" type="qcurve"/>
			<point name="at01" x="323" y="740" type="line"/>
			<point name="sv02" x="323" y="651" type="line"/>
			<point x="214" y="651" type="line"/>
			<point x="214" y="0" type="line"/>
			<point name="ih01" x="105" y="0" type="line"/>
		</contour>
	</outline>
</glyph>
<glyph name="Schwa" format="2">
	<unicode hex="018F"/>
	<advance width="712"/>
	<outline>
		<contour>
			<point name="hr00" x="537" y="401" type="line"/>
			<point x="537" y="449"/>
			<point x="510" y="526"/>
			<point x="461" y="580"/>
			<point x="394" y="609"/>
			<point name="sv01" x="355" y="609" type="qcurve"/>
			<point x="287" y="609"/>
			<point x="203" y="542"/>
			<point name="iv02" x="182" y="483" type="qcurve"/>
			<point x="83" y="524" type="line"/>
			<point x="98" y="563"/>
			<point x="146" y="631"/>
			<point x="214" y="681"/>
			<point x="302" y="710"/>
			<point name="at01" x="355" y="710" type="qcurve"/>
			<point x="424" y="710"/>
			<point x="536" y="662"/>
			<point x="615" y="570"/>
			<point x="657" y="435"/>
			<point x="657" y="349" type="qcurve"/>
			<point x="657" y="263"/>
			<point x="615" y="128"/>
			<point x="536" y="36"/>
			<point x="424" y="-12"/>
			<point name="ih01" x="355" y="-12" type="qcurve"/>
			<point x="286" y="-12"/>
			<point x="175" y="34"/>
			<point x="97" y="125"/>
			<point x="55" y="260"/>
			<point x="55" y="349" type="qcurve"/>
			<point name="iv01" x="55" y="383" type="line"/>
			<point x="537" y="383" type="line"/>
		</contour>
		<contour>
			<point name="sv02" x="174" y="290" type="line"/>
			<point x="175" y="246"/>
			<point x="201" y="172"/>
			<point x="250" y="118"/>
			<point x="316" y="89"/>
			<point name="sh01" x="355" y="89" type="qcurve"/>
			<point x="394" y="89"/>
			<point x="461" y="118"/>
			<point x="510" y="172"/>
			<point x="536" y="246"/>
			<point x="537" y="290" type="qcurve"/>
		</contour>
	</outline>
	<anchor name="bottom" x="355" y="0"/>
	<anchor name="top" x="352" y="698"/>
</glyph>
<glyph name="florin" format="2">
	<unicode hex="0192"/>
	<advance width="484"/>
	<outline>
		<contour>
			<point name="sv01" x="9" y="-45" type="line"/>
			<point x="141" y="-45" type="line"/>
			<point x="174" y="280" type="line"/>
			<point name="dv02" x="47" y="280" type="line"/>
			<point name="dv01" x="57" y="373" type="line"/>
			<point x="183" y="373" type="line"/>
			<point x="203" y="565" type="line"/>
			<point x="209" y="624"/>
			<point x="281" y="698"/>
			<point name="at01" x="349" y="698" type="qcurve"/>
			<point x="465" y="698" type="line"/>
			<point x="455" y="609" type="line"/>
			<point name="sv02" x="317" y="609" type="line"/>
			<point name="sv03" x="292" y="373" type="line"/>
			<point x="443" y="373" type="line"/>
			<point x="434" y="280" type="line"/>
			<point name="sv04" x="283" y="280" type="line"/>
			<point name="ih01" x="255" y="-2" type="line"/>
			<point x="249" y="-60"/>
			<point x="177" y="-134"/>
			<point x="109" y="-134" type="qcurve"/>
			<point name="av01" x="0" y="-134" type="line"/>
		</contour>
	</outline>
</glyph>
<glyph name="Ohorn" format="2">
	<unicode hex="01A0"/>
	<advance width="712"/>
	<outline>
		<contour>
			<point name="hr00" x="668" y="807" type="line"/>
			<point x="668" y="710" type="line"/>
			<point x="668" y="673"/>
			<point x="637" y="631"/>
			<point x="589" y="631" type="qcurve"/>
			<point name="sv01" x="562" y="631" type="line"/>
			<point x="611" y="581"/>
			<point x="657" y="440"/>
			<point x="657" y="349" type="qcurve"/>
			<point x="657" y="261"/>
			<point x="614" y="126"/>
			<point x="535" y="35"/>
			<point x="424" y="-12"/>
			<point name="ih01" x="356" y="-12" type="qcurve"/>
			<point x="288" y="-12"/>
			<point x="177" y="35"/>
			<point x="98" y="126"/>
			<point x="55" y="261"/>
			<point x="55" y="349" type="qcurve"/>
			<point x="55" y="437"/>
			<point x="98" y="572"/>
			<point x="177" y="663"/>
			<point x="288" y="710"/>
			<point name="at01" x="356" y="710" type="qcurve"/>
			<point x="405" y="710"/>
			<point name="at02" x="447" y="698" type="qcurve"/>
			<point x="575" y="698" type="line"/>
			<point name="sv02" x="575" y="807" type="line"/>
		</contour>
		<contour>
			<point name="sh01" x="356" y="89" type="qcurve"/>
			<point x="396" y="89"/>
			<point x="463" y="117"/>
			<point x="510" y="170"/>
			<point x="536" y="246"/>
			<point x="536" y="294" type="qcurve"/>
			<point x="536" y="404" type="line"/>
			<point x="536" y="452"/>
			<point x="510" y="528"/>
			<point x="463" y="581"/>
			<point x="396" y="609"/>
			<point name="sv03" x="356" y="609" type="qcurve"/>
			<point x="315" y="609"/>
			<point x="249" y="581"/>
			<point x="202" y="528"/>
			<point x="176" y="452"/>
			<point x="176" y="404" type="qcurve"/>
			<point x="176" y="294" type="line"/>
			<point x="176" y="246"/>
			<point x="202" y="170"/>
			<point x="249" y="117"/>
			<point x="315" y="89"/>
		</contour>
	</outline>
	<anchor name="bottom" x="355" y="0"/>
	<anchor name="top" x="355" y="698"/>
</glyph>
<glyph name="ohorn" format="2">
	<unicode hex="01A1"/>
	<advance width="563"/>
	<outline>
		<contour>
			<point name="hr00" x="534" y="629" type="line"/>
			<point x="534" y="533" type="line"/>
			<point x="534" y="495"/>
			<point x="502" y="454"/>
			<point name="sv01" x="459" y="454" type="qcurve"/>
			<point x="494" y="412"/>
			<point x="520" y="318"/>
			<point x="520" y="261" type="qcurve"/>
			<point x="520" y="199"/>
			<point x="486" y="98"/>
			<point x="424" y="27"/>
			<point x="336" y="-12"/>
			<point name="ih01" x="282" y="-12" type="qcurve"/>
			<point x="228" y="-12"/>
			<point x="139" y="27"/>
			<point x="77" y="98"/>
			<point x="43" y="199"/>
			<point x="43" y="261" type="qcurve"/>
			<point x="43" y="324"/>
			<point x="77" y="424"/>
			<point x="139" y="494"/>
			<point x="228" y="532"/>
			<point name="at01" x="282" y="532" type="qcurve"/>
			<point x="324" y="532"/>
			<point name="at02" x="362" y="520" type="qcurve"/>
			<point x="440" y="520" type="line"/>
			<point name="sv02" x="440" y="629" type="line"/>
		</contour>
		<contour>
			<point name="sh01" x="282" y="78" type="qcurve"/>
			<point x="338" y="78"/>
			<point x="405" y="148"/>
			<point x="405" y="217" type="qcurve"/>
			<point x="405" y="304" type="line"/>
			<point x="405" y="373"/>
			<point x="338" y="442"/>
			<point name="sv03" x="282" y="442" type="qcurve"/>
			<point x="226" y="442"/>
			<point x="158" y="373"/>
			<point x="158" y="304" type="qcurve"/>
			<point x="158" y="217" type="line"/>
			<point x="158" y="148"/>
			<point x="226" y="78"/>
		</contour>
	</outline>
	<anchor name="bottom" x="280" y="0"/>
	<anchor name="top" x="280" y="540"/>
</glyph>
<glyph name="Uhorn" format="2">
	<unicode hex="01AF"/>
	<advance width="686"/>
	<outline>
		<contour>
			<point name="hr00" x="193" y="698" type="line"/>
			<point x="193" y="268" type="line"/>
			<point x="193" y="179"/>
			<point x="261" y="89"/>
			<point name="sv01" x="343" y="89" type="qcurve"/>
			<point x="425" y="89"/>
			<point x="493" y="179"/>
			<point x="493" y="268" type="qcurve"/>
			<point name="at02" x="493" y="698" type="line"/>
			<point x="579" y="698" type="line"/>
			<point name="sv02" x="579" y="807" type="line"/>
			<point x="672" y="807" type="line"/>
			<point x="672" y="709" type="line"/>
			<point x="672" y="674"/>
			<point x="644" y="632"/>
			<point name="sv03" x="604" y="630" type="qcurve"/>
			<point x="604" y="286" type="line"/>
			<point x="604" y="209"/>
			<point x="576" y="97"/>
			<point x="514" y="24"/>
			<point x="415" y="-12"/>
			<point name="ih01" x="343" y="-12" type="qcurve"/>
			<point x="271" y="-12"/>
			<point x="172" y="24"/>
			<point x="110" y="97"/>
			<point x="82" y="209"/>
			<point x="82" y="286" type="qcurve"/>
			<point name="at01" x="82" y="698" type="line"/>
		</contour>
	</outline>
	<anchor name="bottom" x="341" y="0"/>
	<anchor name="top" x="341" y="698"/>
</glyph>
<glyph name="dotlessj" format="2">
	<unicode hex="0237"/>
	<advance width="265"/>
	<outline>
		<contour>
			<point name="sv01" x="-3" y="-111" type="line"/>
			<point name="ih01" x="78" y="-111" type="line"/>
			<point name="at01" x="78" y="520" type="line"/>
			<point x="187" y="520" type="line"/>
			<point x="187" y="-70" type="line"/>
			<point x="187" y="-130"/>
			<point x="126" y="-200"/>
			<point x="60" y="-200" type="qcurve"/>
			<point name="ab01" x="-3" y="-200" type="line"/>
		</contour>
	</outline>
	<anchor name="top" x="133" y="540"/>
</glyph>
<glyph name="schwa" format="2">
	<unicode hex="0259"/>
	<advance width="556"/>
	<outline>
		<contour>
			<point name="hr00" x="400" y="288" type="line"/>
			<point x="400" y="305" type="line"/>
			<point x="400" y="365"/>
			<point x="331" y="442"/>
			<point name="sv01" x="265" y="442" type="qcurve"/>
			<point x="215" y="442"/>
			<point x="150" y="398"/>
			<point name="iv02" x="130" y="364" type="qcurve"/>
			<point x="65" y="427" type="line"/>
			<point x="94" y="475"/>
			<point x="203" y="532"/>
			<point name="at01" x="275" y="532" type="qcurve"/>
			<point x="330" y="532"/>
			<point x="419" y="494"/>
			<point x="480" y="423"/>
			<point x="513" y="322"/>
			<point x="513" y="260" type="qcurve"/>
			<point x="513" y="198"/>
			<point x="480" y="97"/>
			<point x="419" y="26"/>
			<point x="330" y="-12"/>
			<point name="ih01" x="275" y="-12" type="qcurve"/>
			<point x="218" y="-12"/>
			<point x="131" y="28"/>
			<point x="72" y="99"/>
			<point x="43" y="193"/>
			<point x="43" y="247" type="qcurve"/>
			<point name="sv02" x="43" y="288" type="line"/>
		</contour>
		<contour>
			<point x="157" y="206" type="line"/>
			<point x="157" y="146"/>
			<point x="219" y="73"/>
			<point name="sh01" x="274" y="73" type="qcurve"/>
			<point x="302" y="73"/>
			<point x="349" y="93"/>
			<point x="382" y="129"/>
			<point x="400" y="179"/>
			<point x="400" y="209" type="qcurve"/>
			<point x="400" y="216" type="line"/>
			<point name="iv01" x="157" y="216" type="line"/>
		</contour>
	</outline>
	<anchor name="bottom" x="272" y="0"/>
	<anchor name="top" x="270" y="540"/>
</glyph>
<glyph name="commaturnedtop" format="2">
	<unicode hex="02BB"/>
	<advance width="600"/>
	<outline>
		<contour>
			<point name="ih01" x="301" y="587" type="qcurve"/>
			<point x="272" y="587"/>
			<point x="242" y="615"/>
			<point x="242" y="640" type="qcurve"/>
			<point x="242" y="653" type="line"/>
			<point x="242" y="693"/>
			<point x="279" y="766"/>
			<point name="sv02" x="305" y="789" type="qcurve"/>
			<point x="374" y="789" type="line"/>
			<point x="351" y="768"/>
			<point x="326" y="728"/>
			<point name="sv01" x="319" y="702" type="qcurve"/>
			<point x="341" y="699"/>
			<point x="360" y="670"/>
			<point x="360" y="651" type="qcurve"/>
			<point x="360" y="640" type="line"/>
			<point x="360" y="615"/>
			<point x="330" y="587"/>
		</contour>
	</outline>
	<anchor name="_top" x="300" y="540"/>
</glyph>
<glyph name="caronslovak" format="2">
	<unicode hex="02BC"/>
	<advance width="600"/>
	<outline>
		<contour>
			<point name="ih01" x="302" y="542" type="line"/>
			<point x="230" y="542" type="line"/>
			<point name="at01" x="240" y="740" type="line"/>
			<point x="360" y="740" type="line"/>
		</contour>
	</outline>
	<anchor name="_topright" x="230" y="740"/>
</glyph>
<glyph name="circumflex" format="2">
	<unicode hex="02C6"/>
	<advance width="600"/>
	<outline>
		<contour>
			<point name="hr00" x="355" y="778" type="line"/>
			<point x="475" y="628" type="line"/>
			<point name="sv01" x="419" y="585" type="line"/>
			<point name="ih01" x="300" y="702" type="line"/>
			<point name="av01" x="181" y="585" type="line"/>
			<point x="125" y="628" type="line"/>
			<point name="sv02" x="245" y="778" type="line"/>
		</contour>
	</outline>
	<anchor name="_top" x="300" y="540"/>
</glyph>
<glyph name="caron" format="2">
	<unicode hex="02C7"/>
	<advance width="600"/>
	<outline>
		<contour>
			<point name="av01" x="245" y="594" type="line"/>
			<point x="125" y="744" type="line"/>
			<point name="sv01" x="181" y="786" type="line"/>
			<point name="ih01" x="300" y="670" type="line"/>
			<point name="sv02" x="419" y="786" type="line"/>
			<point x="475" y="744" type="line"/>
			<point x="355" y="594" type="line"/>
		</contour>
	</outline>
	<anchor name="_top" x="300" y="540"/>
</glyph>
<glyph name="breve" format="2">
	<unicode hex="02D8"/>
	<advance width="600"/>
	<outline>
		<contour>
			<point name="ih01" x="300" y="589" type="qcurve"/>
			<point x="258" y="589"/>
			<point x="201" y="617"/>
			<point x="163" y="659"/>
			<point x="140" y="710"/>
			<point x="132" y="733" type="qcurve"/>
			<point name="sv02" x="192" y="763" type="line"/>
			<point x="213" y="730" type="line"/>
			<point x="230" y="702"/>
			<point x="267" y="669"/>
			<point name="sv01" x="300" y="669" type="qcurve"/>
			<point x="333" y="669"/>
			<point x="370" y="702"/>
			<point x="387" y="730" type="qcurve"/>
			<point name="sv03" x="408" y="763" type="line"/>
			<point x="468" y="733" type="line"/>
			<point x="460" y="710"/>
			<point x="437" y="659"/>
			<point x="399" y="617"/>
			<point x="342" y="589"/>
		</contour>
	</outline>
	<anchor name="_top" x="300" y="540"/>
</glyph>
<glyph name="dotaccent" format="2">
	<unicode hex="02D9"/>
	<advance width="600"/>
	<outline>
		<contour>
			<point name="ih01" x="300" y="605" type="qcurve"/>
			<point x="264" y="605"/>
			<point x="233" y="637"/>
			<point x="233" y="662" type="qcurve"/>
			<point x="233" y="680" type="line"/>
			<point x="233" y="705"/>
			<point x="264" y="737"/>
			<point name="sv01" x="300" y="737" type="qcurve"/>
			<point x="336" y="737"/>
			<point x="367" y="705"/>
			<point x="367" y="680" type="qcurve"/>
			<point x="367" y="662" type="line"/>
			<point x="367" y="637"/>
			<point x="336" y="605"/>
		</contour>
	</outline>
	<anchor name="_top" x="300" y="540"/>
</glyph>
<glyph name="ring" format="2">
	<unicode hex="02DA"/>
	<advance width="600"/>
	<outline>
		<contour>
			<point name="ih01" x="300" y="568" type="qcurve"/>
			<point x="273" y="568"/>
			<point x="225" y="587"/>
			<point x="190" y="621"/>
			<point x="170" y="668"/>
			<point x="170" y="695" type="qcurve"/>
			<point x="170" y="722"/>
			<point x="190" y="769"/>
			<point x="225" y="803"/>
			<point x="273" y="822"/>
			<point name="sv01" x="300" y="822" type="qcurve"/>
			<point x="327" y="822"/>
			<point x="375" y="803"/>
			<point x="410" y="769"/>
			<point x="430" y="722"/>
			<point x="430" y="695" type="qcurve"/>
			<point x="430" y="668"/>
			<point x="410" y="621"/>
			<point x="375" y="587"/>
			<point x="327" y="568"/>
		</contour>
		<contour>
			<point name="sh01" x="300" y="628" type="qcurve"/>
			<point x="355" y="628"/>
			<point x="355" y="681" type="qcurve"/>
			<point x="355" y="709" type="line"/>
			<point x="355" y="762"/>
			<point name="sv02" x="300" y="762" type="qcurve"/>
			<point x="245" y="762"/>
			<point x="245" y="709" type="qcurve"/>
			<point x="245" y="681" type="line"/>
			<point x="245" y="628"/>
		</contour>
	</outline>
	<anchor name="_top" x="300" y="540"/>
</glyph>
